<svg width="45" height="45" viewBox="0 0 45 45" fill="none" xmlns="http://www.w3.org/2000/svg">
<g filter="url(#filter0_d)">
<path d="M8.64062 15.2188H10.2812V19.0469C10.2813 19.1919 10.3389 19.331 10.4414 19.4336C10.544 19.5361 10.6831 19.5937 10.8281 19.5938H11.9219V23.9688C11.9219 29.9997 16.8284 34.9062 22.8594 34.9062H23.9531C26.5596 34.9068 29.0805 33.9758 31.0609 32.2812C32.8101 31.7037 34.333 30.5898 35.4131 29.0976C36.4933 27.6054 37.0758 25.8108 37.0781 23.9688V20.1406C37.2045 20.1406 37.3271 20.0968 37.4248 20.0167C37.5226 19.9365 37.5896 19.825 37.6144 19.701L38.0733 17.4062H39.8125C39.9575 17.4062 40.0966 17.3486 40.1992 17.2461C40.3018 17.1435 40.3594 17.0044 40.3594 16.8594V14.6719C40.3593 14.537 40.3095 14.4069 40.2194 14.3066C40.1292 14.2062 40.0052 14.1427 39.8711 14.1282C40.549 13.1178 40.9095 11.9278 40.9062 10.7111V8.65625C40.9062 8.51121 40.8486 8.37211 40.7461 8.26955C40.6435 8.16699 40.5044 8.10938 40.3594 8.10938H39.8125V3.1875H38.7187V8.10938H38.1719V7.01562C38.1719 6.87058 38.1142 6.73149 38.0117 6.62893C37.9091 6.52637 37.77 6.46875 37.625 6.46875H35.9844V2.64062C35.9844 2.49558 35.9268 2.35648 35.8242 2.25393C35.7216 2.15137 35.5825 2.09375 35.4375 2.09375C35.2925 2.09375 35.1534 2.15137 35.0508 2.25393C34.9482 2.35648 34.8906 2.49558 34.8906 2.64062V6.46875H33.25C33.105 6.46875 32.9659 6.52637 32.8633 6.62893C32.7607 6.73149 32.7031 6.87058 32.7031 7.01562V8.10938H32.1562V3.1875H31.0625V8.10938H30.5156C30.3706 8.10938 30.2315 8.16699 30.1289 8.26955C30.0264 8.37211 29.9687 8.51121 29.9687 8.65625V10.7111C29.9655 11.9279 30.326 13.1179 31.0039 14.1284C30.9262 14.1367 30.8512 14.1616 30.7839 14.2014C30.7167 14.2411 30.6587 14.2949 30.614 14.359C30.5692 14.4231 30.5388 14.496 30.5246 14.5728C30.5105 14.6497 30.513 14.7287 30.532 14.8045L30.6657 15.3394C28.749 13.8414 26.3857 13.0288 23.9531 13.0312C22.225 13.0315 20.5274 13.487 19.0312 14.3519V8.10938C19.0312 7.96433 18.9736 7.82524 18.8711 7.72268C18.7685 7.62012 18.6294 7.5625 18.4844 7.5625H17.9375V2.64062C17.9375 2.49559 17.8799 2.35649 17.7773 2.25393C17.6748 2.15137 17.5357 2.09375 17.3906 2.09375H9.73437C9.58933 2.09375 9.45024 2.15137 9.34768 2.25393C9.24512 2.35649 9.1875 2.49559 9.1875 2.64062V7.5625H8.64062C8.49559 7.5625 8.35649 7.62012 8.25393 7.72268C8.15137 7.82524 8.09375 7.96433 8.09375 8.10938V14.6719C8.09375 14.8169 8.15137 14.956 8.25393 15.0586C8.35649 15.1611 8.49559 15.2187 8.64062 15.2188ZM11.375 17.4062H13.0156V16.3125H11.375V15.2188H15.75V16.3125H14.1094V17.4062H15.75V18.5H11.375V17.4062ZM23.9531 33.8125H22.8594C17.4315 33.8125 13.0156 29.3966 13.0156 23.9688V19.5938H14.1094V23.9688C14.112 26.2886 15.0347 28.5127 16.6751 30.153C18.3155 31.7934 20.5395 32.7161 22.8594 32.7188H28.3281C28.3744 32.7188 28.4205 32.7177 28.4666 32.717C27.0711 33.437 25.5235 33.8126 23.9531 33.8125ZM36.6298 19.0469H34.2452L33.9171 17.4062H36.9579L36.6298 19.0469ZM39.2656 16.3125H32.0363L31.5 15H39.2656V16.3125ZM39.8125 9.20312V10.7111C39.8159 11.9757 39.3416 13.195 38.4846 14.125H37.3414C37.8815 13.3964 38.1727 12.5133 38.1719 11.6064V9.20312H39.8125ZM33.7969 7.5625H37.0781V11.6064C37.0785 12.0961 36.964 12.5791 36.7437 13.0166C36.5235 13.454 36.2037 13.8337 35.81 14.125H35.065C34.6713 13.8337 34.3515 13.454 34.1312 13.0166C33.911 12.5791 33.7965 12.0961 33.7969 11.6064V7.5625ZM31.0625 9.20312H32.7031V11.6064C32.7023 12.5133 32.9935 13.3964 33.5336 14.125H32.3904C31.5334 13.195 31.0591 11.9757 31.0625 10.7111V9.20312ZM33.7969 23.9688C33.7967 24.8434 33.5867 25.7052 33.1844 26.4819C32.7821 27.2585 32.1993 27.9273 31.485 28.432C32.2706 27.1026 32.6908 25.5892 32.7029 24.045C32.7149 22.5009 32.3185 20.981 31.5538 19.6395C30.7891 18.2979 29.6833 17.1825 28.3485 16.4061C27.0137 15.6297 25.4973 15.2201 23.9531 15.2188C21.9233 15.221 19.9772 16.0284 18.5419 17.4638C17.1065 18.8991 16.2992 20.8451 16.2969 22.875V23.9688C16.2988 25.7086 16.9909 27.3767 18.2212 28.607C19.4514 29.8372 21.1195 30.5293 22.8594 30.5312H28.3281C30.068 30.5293 31.7361 29.8372 32.9663 28.607C34.1966 27.3767 34.8887 25.7086 34.8906 23.9688V20.1406H35.9844V23.9688C35.9821 25.9986 35.1747 27.9447 33.7394 29.38C32.304 30.8153 30.358 31.6227 28.3281 31.625H22.8594C20.8295 31.6227 18.8835 30.8153 17.4481 29.38C16.0128 27.9447 15.2054 25.9986 15.2031 23.9688V22.875C15.2009 21.7503 15.4171 20.636 15.8397 19.5938H16.2969C16.4419 19.5937 16.581 19.5361 16.6836 19.4336C16.7861 19.331 16.8437 19.1919 16.8437 19.0469V17.7745C17.6542 16.6458 18.7217 15.7261 19.9579 15.0915C21.1941 14.4569 22.5635 14.1256 23.9531 14.125C29.381 14.125 33.7969 18.5409 33.7969 23.9688ZM29.4225 29.3275C29.0624 29.4008 28.6957 29.4377 28.3281 29.4375H22.8594C21.4095 29.4359 20.0194 28.8592 18.9942 27.8339C17.969 26.8087 17.3923 25.4187 17.3906 23.9688V22.875C17.3926 21.1351 18.0846 19.4671 19.3149 18.2368C20.5452 17.0065 22.2132 16.3145 23.9531 16.3125C25.4607 16.3127 26.9347 16.7579 28.1903 17.5923C29.4459 18.4267 30.4273 19.6132 31.0114 21.0031C31.5954 22.3929 31.7562 23.9243 31.4736 25.4051C31.191 26.886 30.4775 28.2505 29.4225 29.3275ZM16.8437 16.0677V15.2188H17.7684C17.4424 15.4818 17.1336 15.7653 16.8437 16.0677ZM10.2812 3.1875H16.8437V7.5625H10.2812V3.1875ZM9.1875 8.65625H17.9375V14.125H9.1875V8.65625Z" fill="url(#paint0_linear)"/>
</g>
<defs>
<filter id="filter0_d" x="-1" y="-1" width="47" height="47" filterUnits="userSpaceOnUse" color-interpolation-filters="sRGB">
<feFlood flood-opacity="0" result="BackgroundImageFix"/>
<feColorMatrix in="SourceAlpha" type="matrix" values="0 0 0 0 0 0 0 0 0 0 0 0 0 0 0 0 0 0 127 0"/>
<feOffset dx="-2" dy="4"/>
<feGaussianBlur stdDeviation="3"/>
<feColorMatrix type="matrix" values="0 0 0 0 1 0 0 0 0 0.442688 0 0 0 0 0 0 0 0 0.5 0"/>
<feBlend mode="normal" in2="BackgroundImageFix" result="effect1_dropShadow"/>
<feBlend mode="normal" in="SourceGraphic" in2="effect1_dropShadow" result="shape"/>
</filter>
<linearGradient id="paint0_linear" x1="8.09375" y1="18.0028" x2="34.8657" y2="30.9707" gradientUnits="userSpaceOnUse">
<stop offset="0.000997827" stop-color="#E32A23"/>
<stop offset="1" stop-color="#FF7100"/>
</linearGradient>
</defs>
</svg>
