<svg width="38" height="47" viewBox="0 0 38 47" fill="none" xmlns="http://www.w3.org/2000/svg">
<g filter="url(#filter0_d)">
<path d="M31.0499 27.7647L29.44 26.7228L29.0818 25.3333H29.5145C29.6739 25.3333 29.8267 25.2719 29.9394 25.1625C30.0521 25.0531 30.1155 24.9047 30.1155 24.75V4.91667C30.1145 4.1434 29.7976 3.40208 29.2343 2.85529C28.671 2.30851 27.9073 2.00093 27.1106 2H22.303C21.5063 2.00093 20.7426 2.30851 20.1793 2.85529C19.616 3.40208 19.2991 4.1434 19.2981 4.91667V33.5H14.4905V17.75C14.4905 17.5953 14.4271 17.4469 14.3144 17.3375C14.2017 17.2281 14.0489 17.1667 13.8895 17.1667H13.5752L14.4021 15.1612L15.5163 14.0791L14.6665 13.2542L13.4646 14.4209C13.4072 14.4768 13.3618 14.5432 13.3312 14.6163L12.8198 15.8582L12.6695 15.2749C12.6333 15.1343 12.5444 15.0118 12.4201 14.9313L10.6173 13.7647L9.9502 14.7353L11.5602 15.7772L11.9183 17.1667H11.4857C11.3263 17.1667 11.1734 17.2281 11.0607 17.3375C10.948 17.4469 10.8847 17.5953 10.8847 17.75V34.0833C10.8856 34.8566 11.2025 35.5979 11.7658 36.1447C12.3291 36.6915 13.0929 36.9991 13.8895 37H19.8991C20.6957 36.9991 21.4595 36.6915 22.0228 36.1447C22.5861 35.5979 22.903 34.8566 22.9039 34.0833V5.5H26.5097V24.75C26.5097 24.9047 26.573 25.0531 26.6857 25.1625C26.7984 25.2719 26.9513 25.3333 27.1106 25.3333H27.4249L26.598 27.3388L25.4838 28.4209L26.3336 29.2458L27.5355 28.0791C27.593 28.0232 27.6383 27.9568 27.6689 27.8837L28.1804 26.6417L28.3306 27.2251C28.3669 27.3657 28.4558 27.4882 28.58 27.5687L30.3829 28.7353L31.0499 27.7647ZM12.0866 18.3333H13.2885V19.5H12.0866V18.3333ZM28.9135 24.1667H27.7116V23H28.9135V24.1667ZM28.9135 21.8333H27.7116V4.91667C27.7116 4.76196 27.6483 4.61358 27.5356 4.50419C27.4229 4.39479 27.27 4.33333 27.1106 4.33333H22.303C22.1436 4.33333 21.9907 4.39479 21.878 4.50419C21.7653 4.61358 21.702 4.76196 21.702 4.91667V34.0833C21.702 34.5475 21.512 34.9926 21.1739 35.3208C20.8358 35.649 20.3773 35.8333 19.8991 35.8333H13.8895C13.4113 35.8333 12.9528 35.649 12.6147 35.3208C12.2766 34.9926 12.0866 34.5475 12.0866 34.0833V20.6667H13.2885V34.0833C13.2885 34.238 13.3519 34.3864 13.4646 34.4958C13.5773 34.6052 13.7301 34.6667 13.8895 34.6667H19.8991C20.0585 34.6667 20.2114 34.6052 20.3241 34.4958C20.4368 34.3864 20.5001 34.238 20.5001 34.0833V4.91667C20.5001 4.45254 20.69 4.00742 21.0281 3.67923C21.3662 3.35104 21.8248 3.16667 22.303 3.16667H27.1106C27.5888 3.16667 28.0474 3.35104 28.3855 3.67923C28.7236 4.00742 28.9135 4.45254 28.9135 4.91667V21.8333Z" fill="url(#paint0_linear)"/>
<path d="M12.0869 9H13.2888V11.9167H12.0869V9Z" fill="url(#paint1_linear)"/>
<path d="M14.6104 12.1499L16.4132 9.81657L17.3748 10.5166L15.5719 12.8499L14.6104 12.1499Z" fill="url(#paint2_linear)"/>
<path d="M8 10.5166L8.96154 9.8166L10.7644 12.1499L9.80288 12.8499L8 10.5166Z" fill="url(#paint3_linear)"/>
<path d="M27.7119 30.5835H28.9138V33.5002H27.7119V30.5835Z" fill="url(#paint4_linear)"/>
<path d="M23.625 31.9834L25.4279 29.6501L26.3894 30.3501L24.5865 32.6834L23.625 31.9834Z" fill="url(#paint5_linear)"/>
<path d="M30.2354 30.3501L31.1969 29.6501L32.9998 31.9834L32.0382 32.6834L30.2354 30.3501Z" fill="url(#paint6_linear)"/>
</g>
<defs>
<filter id="filter0_d" x="-5" y="0" width="47" height="47" filterUnits="userSpaceOnUse" color-interpolation-filters="sRGB">
<feFlood flood-opacity="0" result="BackgroundImageFix"/>
<feColorMatrix in="SourceAlpha" type="matrix" values="0 0 0 0 0 0 0 0 0 0 0 0 0 0 0 0 0 0 127 0"/>
<feOffset dx="-2" dy="4"/>
<feGaussianBlur stdDeviation="3"/>
<feColorMatrix type="matrix" values="0 0 0 0 1 0 0 0 0 0.442688 0 0 0 0 0 0 0 0 0.5 0"/>
<feBlend mode="normal" in2="BackgroundImageFix" result="effect1_dropShadow"/>
<feBlend mode="normal" in="SourceGraphic" in2="effect1_dropShadow" result="shape"/>
</filter>
<linearGradient id="paint0_linear" x1="9.9502" y1="18.9697" x2="29.5348" y2="24.6886" gradientUnits="userSpaceOnUse">
<stop offset="0.000997827" stop-color="#E32A23"/>
<stop offset="1" stop-color="#FF7100"/>
</linearGradient>
<linearGradient id="paint1_linear" x1="12.0869" y1="10.4141" x2="13.2513" y2="10.6466" gradientUnits="userSpaceOnUse">
<stop offset="0.000997827" stop-color="#E32A23"/>
<stop offset="1" stop-color="#FF7100"/>
</linearGradient>
<linearGradient id="paint2_linear" x1="15.0766" y1="12.4893" x2="17.0015" y2="12.3965" gradientUnits="userSpaceOnUse">
<stop offset="0.000997827" stop-color="#E32A23"/>
<stop offset="1" stop-color="#FF7100"/>
</linearGradient>
<linearGradient id="paint3_linear" x1="8.87412" y1="11.6479" x2="9.93096" y2="11.1191" gradientUnits="userSpaceOnUse">
<stop offset="0.000997827" stop-color="#E32A23"/>
<stop offset="1" stop-color="#FF7100"/>
</linearGradient>
<linearGradient id="paint4_linear" x1="27.7119" y1="31.9976" x2="28.8763" y2="32.2301" gradientUnits="userSpaceOnUse">
<stop offset="0.000997827" stop-color="#E32A23"/>
<stop offset="1" stop-color="#FF7100"/>
</linearGradient>
<linearGradient id="paint5_linear" x1="24.0912" y1="32.3228" x2="26.0162" y2="32.23" gradientUnits="userSpaceOnUse">
<stop offset="0.000997827" stop-color="#E32A23"/>
<stop offset="1" stop-color="#FF7100"/>
</linearGradient>
<linearGradient id="paint6_linear" x1="31.1095" y1="31.4814" x2="32.1663" y2="30.9526" gradientUnits="userSpaceOnUse">
<stop offset="0.000997827" stop-color="#E32A23"/>
<stop offset="1" stop-color="#FF7100"/>
</linearGradient>
</defs>
</svg>
