<svg width="47" height="47" viewBox="0 0 47 47" fill="none" xmlns="http://www.w3.org/2000/svg">
<g clip-path="url(#clip0)" filter="url(#filter0_d)">
<path d="M22.8188 19.2509C22.7226 19.0467 22.5172 18.9166 22.2915 18.9166H19.551L21.6883 10.901C21.7589 10.6356 21.6352 10.3573 21.3913 10.2319C21.1475 10.1059 20.8488 10.1677 20.6744 10.3795L12.5078 20.2962C12.3643 20.4701 12.3346 20.7116 12.4309 20.9157C12.5271 21.1199 12.7325 21.25 12.9582 21.25H15.6987L13.5613 29.2662C13.4907 29.5316 13.6144 29.8098 13.8582 29.9353C13.9428 29.979 14.0344 30 14.1248 30C14.2945 30 14.4614 29.9259 14.5751 29.787L22.7418 19.8704C22.8853 19.6966 22.9151 19.4551 22.8188 19.2509ZM15.3795 26.9754L17.0216 20.8172C17.0683 20.6422 17.0309 20.4555 16.9207 20.3115C16.8104 20.168 16.6395 20.0834 16.4581 20.0834H14.1942L19.87 13.1913L18.2279 19.3495C18.1812 19.5245 18.2186 19.7112 18.3288 19.8553C18.4391 19.9987 18.61 20.0834 18.7914 20.0834H21.0553L15.3795 26.9754Z" fill="url(#paint0_linear)"/>
<path d="M21.1253 2H14.1253C13.8033 2 13.542 2.26134 13.542 2.58331V4.91662C13.542 5.23859 13.8033 5.49993 14.1253 5.49993H21.1253C21.4473 5.49993 21.7086 5.23859 21.7086 4.91662V2.58331C21.7086 2.26134 21.4473 2 21.1253 2ZM20.542 4.33331H14.7086V3.16669H20.5419V4.33331H20.542Z" fill="url(#paint1_linear)"/>
<path d="M24.1403 4.3335H11.1097C9.87715 4.3335 8.875 5.33626 8.875 6.5683V34.7654C8.875 35.9974 9.87715 37.0002 11.1097 37.0002H24.1403C25.3722 37.0002 26.375 35.9974 26.375 34.7654V6.5683C26.375 5.33626 25.3722 4.3335 24.1403 4.3335ZM25.2083 34.7654C25.2083 35.3546 24.7294 35.8336 24.1402 35.8336H11.1097C10.5205 35.8336 10.0416 35.3546 10.0416 34.7654V6.5683C10.0416 5.97911 10.5205 5.50019 11.1097 5.50019H24.1403C24.7295 5.50019 25.2084 5.97911 25.2084 6.5683V34.7654H25.2083Z" fill="url(#paint2_linear)"/>
<path d="M32.792 2C31.8272 2 31.042 2.78518 31.042 3.75V8.41669C31.042 8.73866 31.3033 9 31.6253 9H33.9586C34.2806 9 34.5419 8.73866 34.5419 8.41669V3.75C34.542 2.78518 33.7568 2 32.792 2ZM33.3753 7.83331H32.2086V3.75C32.2086 3.42857 32.4705 3.16669 32.7919 3.16669C33.1133 3.16669 33.3752 3.42857 33.3752 3.75V7.83331H33.3753Z" fill="url(#paint3_linear)"/>
<path d="M38.625 2C37.6602 2 36.875 2.78518 36.875 3.75V8.41669C36.875 8.73866 37.1363 9 37.4583 9H39.7916C40.1136 9 40.3749 8.73866 40.3749 8.41669V3.75C40.375 2.78518 39.5898 2 38.625 2ZM39.2083 7.83331H38.0416V3.75C38.0416 3.42857 38.3035 3.16669 38.6249 3.16669C38.9463 3.16669 39.2082 3.42857 39.2082 3.75V7.83331H39.2083Z" fill="url(#paint4_linear)"/>
<path d="M41.542 7.83301H29.8753C29.5533 7.83301 29.292 8.09435 29.292 8.41632V10.7497C29.292 11.0717 29.5533 11.333 29.8753 11.333H41.542C41.864 11.333 42.1253 11.0717 42.1253 10.7497V8.41639C42.1253 8.09435 41.864 7.83301 41.542 7.83301ZM40.9586 10.1664H30.4586V8.9997H40.9586V10.1664Z" fill="url(#paint5_linear)"/>
<path d="M40.3746 10.1665H31.0413C30.7193 10.1665 30.458 10.4278 30.458 10.7498V16.0004C30.458 17.2867 31.5045 18.3332 32.7908 18.3332H38.6253C39.9115 18.3332 40.958 17.2867 40.958 16.0004V10.7498C40.958 10.4278 40.6966 10.1665 40.3746 10.1665ZM39.7913 16.0004C39.7913 16.6438 39.2687 17.1665 38.6258 17.1665H32.7907C32.1473 17.1665 31.6246 16.6438 31.6246 16.0004V11.3332H39.7913V16.0004Z" fill="url(#paint6_linear)"/>
<path d="M36.8746 17.1665H34.5413C34.2193 17.1665 33.958 17.4278 33.958 17.7498V18.9165C33.958 19.8813 34.7432 20.6665 35.708 20.6665C36.6728 20.6665 37.458 19.8813 37.458 18.9165V17.7498C37.4579 17.4278 37.1966 17.1665 36.8746 17.1665ZM36.2913 18.9165C36.2913 19.2379 36.0294 19.4998 35.708 19.4998C35.3866 19.4998 35.1247 19.2379 35.1247 18.9165V18.3332H36.2914V18.9165H36.2913Z" fill="url(#paint7_linear)"/>
<path d="M35.7079 19.4999C35.386 19.4999 35.1246 19.7612 35.1246 20.0832V32.9165C35.1246 34.2034 34.0781 35.2498 32.7913 35.2498C31.5045 35.2498 30.458 34.2033 30.458 32.9165V20.0832C30.458 17.5101 28.3644 15.4165 25.7913 15.4165C25.4693 15.4165 25.208 15.6778 25.208 15.9998C25.208 16.3218 25.4693 16.5831 25.7913 16.5831C27.7216 16.5831 29.2913 18.1529 29.2913 20.0831V32.9164C29.2913 34.8467 30.8611 36.4164 32.7913 36.4164C34.7216 36.4164 36.2913 34.8467 36.2913 32.9164V20.0832C36.2913 19.7612 36.03 19.4999 35.7079 19.4999Z" fill="url(#paint8_linear)"/>
</g>
<defs>
<filter id="filter0_d" x="0" y="0" width="47" height="47" filterUnits="userSpaceOnUse" color-interpolation-filters="sRGB">
<feFlood flood-opacity="0" result="BackgroundImageFix"/>
<feColorMatrix in="SourceAlpha" type="matrix" values="0 0 0 0 0 0 0 0 0 0 0 0 0 0 0 0 0 0 127 0"/>
<feOffset dx="-2" dy="4"/>
<feGaussianBlur stdDeviation="3"/>
<feColorMatrix type="matrix" values="0 0 0 0 1 0 0 0 0 0.442688 0 0 0 0 0 0 0 0 0.5 0"/>
<feBlend mode="normal" in2="BackgroundImageFix" result="effect1_dropShadow"/>
<feBlend mode="normal" in="SourceGraphic" in2="effect1_dropShadow" result="shape"/>
</filter>
<linearGradient id="paint0_linear" x1="12.375" y1="19.783" x2="22.2991" y2="22.3279" gradientUnits="userSpaceOnUse">
<stop offset="0.000997827" stop-color="#E32A23"/>
<stop offset="1" stop-color="#FF7100"/>
</linearGradient>
<linearGradient id="paint1_linear" x1="13.542" y1="3.69694" x2="17.1542" y2="7.77958" gradientUnits="userSpaceOnUse">
<stop offset="0.000997827" stop-color="#E32A23"/>
<stop offset="1" stop-color="#FF7100"/>
</linearGradient>
<linearGradient id="paint2_linear" x1="8.875" y1="20.1719" x2="25.3913" y2="24.4577" gradientUnits="userSpaceOnUse">
<stop offset="0.000997827" stop-color="#E32A23"/>
<stop offset="1" stop-color="#FF7100"/>
</linearGradient>
<linearGradient id="paint3_linear" x1="31.042" y1="5.39394" x2="34.3723" y2="6.20049" gradientUnits="userSpaceOnUse">
<stop offset="0.000997827" stop-color="#E32A23"/>
<stop offset="1" stop-color="#FF7100"/>
</linearGradient>
<linearGradient id="paint4_linear" x1="36.875" y1="5.39394" x2="40.2053" y2="6.20048" gradientUnits="userSpaceOnUse">
<stop offset="0.000997827" stop-color="#E32A23"/>
<stop offset="1" stop-color="#FF7100"/>
</linearGradient>
<linearGradient id="paint5_linear" x1="29.292" y1="9.52998" x2="32.4037" y2="15.0567" gradientUnits="userSpaceOnUse">
<stop offset="0.000997827" stop-color="#E32A23"/>
<stop offset="1" stop-color="#FF7100"/>
</linearGradient>
<linearGradient id="paint6_linear" x1="30.458" y1="14.1261" x2="38.0792" y2="18.8724" gradientUnits="userSpaceOnUse">
<stop offset="0.000997827" stop-color="#E32A23"/>
<stop offset="1" stop-color="#FF7100"/>
</linearGradient>
<linearGradient id="paint7_linear" x1="33.958" y1="18.8635" x2="36.8137" y2="20.2467" gradientUnits="userSpaceOnUse">
<stop offset="0.000997827" stop-color="#E32A23"/>
<stop offset="1" stop-color="#FF7100"/>
</linearGradient>
<linearGradient id="paint8_linear" x1="25.208" y1="25.5983" x2="35.6878" y2="28.2774" gradientUnits="userSpaceOnUse">
<stop offset="0.000997827" stop-color="#E32A23"/>
<stop offset="1" stop-color="#FF7100"/>
</linearGradient>
<clipPath id="clip0">
<rect width="35" height="35" fill="white" transform="translate(8 2)"/>
</clipPath>
</defs>
</svg>
