<svg width="46" height="42" viewBox="0 0 46 42" fill="none" xmlns="http://www.w3.org/2000/svg">
<g clip-path="url(#clip0)" filter="url(#filter0_d)">
<path d="M14.5891 10.5496L15.1605 8.21332M25.1188 16.3291L25.6902 13.9928M36.8212 23.2692L37.1054 21.8094L37.3896 20.3496" stroke="url(#paint0_linear)"/>
<path d="M14.9007 10.1978L13.7007 10.0695C13.2418 10.0205 12.7915 10.1532 12.4324 10.4427C12.0733 10.7324 11.8486 11.1446 11.7994 11.6034L11.4765 14.6241L11.4292 14.6191C11.354 14.611 11.278 14.6193 11.2063 14.6432L8.83435 15.4352C8.55864 15.5272 8.40936 15.8258 8.50149 16.1017C8.59365 16.3777 8.89211 16.5267 9.16801 16.4346L10.3535 16.0388L10.0803 16.6025C9.97654 16.8166 9.9835 17.0687 10.099 17.2768C10.2144 17.4848 10.4246 17.6242 10.6612 17.6495L16.2686 18.2491C16.4124 18.2644 16.5557 18.2366 16.6811 18.1721C16.762 18.1306 16.8354 18.0739 16.8968 18.0037C17.0537 17.8249 17.1138 17.58 17.0578 17.3487C17.0578 17.3487 17.0578 17.3486 17.0577 17.3485L16.91 16.7399L18.0029 17.3881C18.1648 17.4841 18.3571 17.4834 18.5129 17.4033C18.5981 17.3595 18.6723 17.2921 18.7248 17.2037C18.8732 16.9534 18.7907 16.6302 18.5403 16.4818L16.3714 15.1955C16.3064 15.1569 16.2339 15.1329 16.1588 15.1248L16.1115 15.1197L16.4345 12.099C16.5358 11.1519 15.8477 10.2991 14.9007 10.1978ZM15.926 17.1529L11.2279 16.6506L11.6856 15.7062L11.8883 15.7278L11.9046 15.7296L15.6784 16.1331L15.926 17.1529ZM15.3869 11.987L15.064 15.0078L12.5241 14.7362L12.8471 11.7154C12.8662 11.5365 12.9539 11.3757 13.0939 11.2627C13.234 11.1497 13.4097 11.0981 13.5886 11.1172L14.7886 11.2455C15.1581 11.285 15.4264 11.6177 15.3869 11.987Z" fill="url(#paint1_linear)"/>
<path d="M25.4751 16.2023L24.2555 15.931C23.7892 15.8274 23.3105 15.9116 22.9075 16.1678C22.5045 16.4242 22.2255 16.8222 22.1217 17.2884L21.439 20.3584L21.391 20.3477C21.3146 20.3307 21.2354 20.3304 21.1589 20.3467L18.6269 20.8862C18.3326 20.9489 18.1444 21.2388 18.2072 21.5333C18.27 21.8279 18.5597 22.0158 18.8542 21.953L20.1197 21.6834L19.7732 22.2316C19.6416 22.4398 19.6196 22.7 19.7142 22.9274C19.8088 23.1548 20.0089 23.3226 20.2494 23.3761L25.9482 24.6434C26.0944 24.6759 26.245 24.6639 26.3815 24.6121C26.4695 24.5788 26.5516 24.529 26.6229 24.4639C26.8051 24.2981 26.8953 24.0532 26.8646 23.8088L26.7831 23.1653L27.8322 23.9589C27.9876 24.0765 28.1855 24.098 28.355 24.0338C28.4477 23.9986 28.532 23.9378 28.5962 23.853C28.7779 23.6128 28.7305 23.2707 28.4902 23.0889L26.4083 21.5141C26.3458 21.4669 26.274 21.4337 26.1977 21.4167L26.1496 21.406L26.8324 18.336C27.0465 17.3735 26.4375 16.4163 25.4751 16.2023ZM25.7229 23.476L20.9482 22.4142L21.5286 21.4958L21.7346 21.5416L21.7511 21.5452L25.5865 22.3982L25.7229 23.476ZM25.7677 18.0993L25.085 21.1693L22.5038 20.5952L23.1865 17.5252C23.2269 17.3433 23.3357 17.1881 23.4929 17.0881C23.6501 16.9882 23.8368 16.9554 24.0187 16.9958L25.2382 17.2671C25.6137 17.3505 25.8512 17.7239 25.7677 18.0993Z" fill="url(#paint2_linear)"/>
<path d="M37.2487 23.0186L35.9971 22.8146C35.5185 22.7366 35.0383 22.8498 34.6448 23.1328C34.2513 23.416 33.9917 23.8355 33.9136 24.314L33.4 27.4646L33.3507 27.4566C33.2723 27.4438 33.192 27.448 33.1155 27.469L30.5811 28.1628C30.2865 28.2434 30.1126 28.5481 30.1933 28.8429C30.274 29.1377 30.5785 29.3113 30.8733 29.2306L32.1401 28.8839L31.8208 29.4596C31.6995 29.6782 31.6923 29.9431 31.8014 30.1681C31.9104 30.3931 32.1229 30.5514 32.3697 30.5917L38.2182 31.545C38.3682 31.5695 38.5202 31.5485 38.6555 31.4882C38.7427 31.4492 38.823 31.394 38.8916 31.324C39.0665 31.1453 39.1437 30.8919 39.0984 30.646C39.0983 30.646 39.0983 30.6459 39.0983 30.6458L38.9784 29.9987L40.0877 30.742C40.2519 30.8521 40.4537 30.8624 40.6218 30.7875C40.7137 30.7465 40.7955 30.68 40.8557 30.5902C41.0258 30.3363 40.958 29.9924 40.7039 29.8222L38.5027 28.3472C38.4367 28.303 38.362 28.2735 38.2837 28.2607L38.2344 28.2527L38.748 25.102C38.909 24.1143 38.2364 23.1797 37.2487 23.0186ZM37.9222 30.3751L33.0221 29.5764L33.5568 28.612L33.7683 28.6464L33.7852 28.6492L37.7214 29.2908L37.9222 30.3751ZM37.6554 24.924L37.1418 28.0746L34.4927 27.6428L35.0063 24.4921C35.0367 24.3055 35.138 24.1419 35.2914 24.0314C35.4449 23.921 35.6323 23.8769 35.8189 23.9073L37.0705 24.1114C37.4558 24.1741 37.7181 24.5388 37.6554 24.924Z" fill="url(#paint3_linear)"/>
<rect x="9.99835" y="2.75527" width="35.8564" height="2.16971" transform="rotate(29.1047 9.99835 2.75527)" stroke="url(#paint4_linear)"/>
</g>
<defs>
<filter id="filter0_d" x="-1" y="-2" width="47" height="47" filterUnits="userSpaceOnUse" color-interpolation-filters="sRGB">
<feFlood flood-opacity="0" result="BackgroundImageFix"/>
<feColorMatrix in="SourceAlpha" type="matrix" values="0 0 0 0 0 0 0 0 0 0 0 0 0 0 0 0 0 0 127 0"/>
<feOffset dx="-2" dy="4"/>
<feGaussianBlur stdDeviation="3"/>
<feColorMatrix type="matrix" values="0 0 0 0 1 0 0 0 0 0.442688 0 0 0 0 0 0 0 0 0.5 0"/>
<feBlend mode="normal" in2="BackgroundImageFix" result="effect1_dropShadow"/>
<feBlend mode="normal" in="SourceGraphic" in2="effect1_dropShadow" result="shape"/>
</filter>
<linearGradient id="paint0_linear" x1="14.6148" y1="15.5697" x2="29.6693" y2="26.3906" gradientUnits="userSpaceOnUse">
<stop offset="0.000997827" stop-color="#E32A23"/>
<stop offset="1" stop-color="#FF7100"/>
</linearGradient>
<linearGradient id="paint1_linear" x1="8.99589" y1="17.0774" x2="17.2828" y2="16.9422" gradientUnits="userSpaceOnUse">
<stop offset="0.000997827" stop-color="#E32A23"/>
<stop offset="1" stop-color="#FF7100"/>
</linearGradient>
<linearGradient id="paint2_linear" x1="18.6026" y1="22.5943" x2="27.1432" y2="23.4167" gradientUnits="userSpaceOnUse">
<stop offset="0.000997827" stop-color="#E32A23"/>
<stop offset="1" stop-color="#FF7100"/>
</linearGradient>
<linearGradient id="paint3_linear" x1="30.6556" y1="29.8951" x2="39.3579" y2="30.2325" gradientUnits="userSpaceOnUse">
<stop offset="0.000997827" stop-color="#E32A23"/>
<stop offset="1" stop-color="#FF7100"/>
</linearGradient>
<linearGradient id="paint4_linear" x1="9.80469" y1="3.61203" x2="10.9393" y2="10.0024" gradientUnits="userSpaceOnUse">
<stop offset="0.000997827" stop-color="#E32A23"/>
<stop offset="1" stop-color="#FF7100"/>
</linearGradient>
<clipPath id="clip0">
<rect width="35" height="35" fill="white" transform="translate(7)"/>
</clipPath>
</defs>
</svg>
