<svg width="36" height="47" viewBox="0 0 36 47" fill="none" xmlns="http://www.w3.org/2000/svg">
<g filter="url(#filter0_d)">
<path d="M9 20.4167V13.0833V4.83333H14V3H23V4.83333H28V13.0833V20.4167M9 20.4167H28M9 20.4167V22.3646M28 20.4167V22.3646M28 28.2083L9 28.5M28 28.2083V32.1042M28 28.2083V26.2604M9 24.3125H28M9 24.3125V26.2604M9 24.3125V22.3646M28 24.3125V26.2604M28 24.3125V22.3646M9 28.5V28.2083V26.2604M9 28.5V30.375M9 32.25L28 32.1042M9 32.25V30.375M9 32.25V34.125M28 32.1042V34.0521M9 30.375L27.5 30.5M9 26.2604H28M9 34.125V36H28V34.0521M9 34.125L28 34.0521M9 22.3646H28" stroke="url(#paint0_linear)"/>
</g>
<defs>
<filter id="filter0_d" x="-7" y="0" width="47" height="47" filterUnits="userSpaceOnUse" color-interpolation-filters="sRGB">
<feFlood flood-opacity="0" result="BackgroundImageFix"/>
<feColorMatrix in="SourceAlpha" type="matrix" values="0 0 0 0 0 0 0 0 0 0 0 0 0 0 0 0 0 0 127 0"/>
<feOffset dx="-2" dy="4"/>
<feGaussianBlur stdDeviation="3"/>
<feColorMatrix type="matrix" values="0 0 0 0 1 0 0 0 0 0.442688 0 0 0 0 0 0 0 0 0.5 0"/>
<feBlend mode="normal" in2="BackgroundImageFix" result="effect1_dropShadow"/>
<feBlend mode="normal" in="SourceGraphic" in2="effect1_dropShadow" result="shape"/>
</filter>
<linearGradient id="paint0_linear" x1="9" y1="19" x2="26.7582" y2="23.9525" gradientUnits="userSpaceOnUse">
<stop offset="0.000997827" stop-color="#E32A23"/>
<stop offset="1" stop-color="#FF7100"/>
</linearGradient>
</defs>
</svg>
