<svg width="47" height="46" viewBox="0 0 47 46" fill="none" xmlns="http://www.w3.org/2000/svg">
<g filter="url(#filter0_d)">
<path d="M38.5 19C38.5 23.6261 35.9872 27.666 32.2496 29.828C30.4116 30.8913 28.2776 31.5 26 31.5C22.701 31.5 19.7015 30.2227 17.4672 28.1347C15.8346 26.609 14.6119 24.6516 13.9807 22.4454C13.6678 21.3515 13.5 20.1958 13.5 19C13.5 16.9181 14.0086 14.9565 14.9078 13.2311C16.9931 9.23005 21.1782 6.5 26 6.5C28.2776 6.5 30.4116 7.1087 32.2496 8.17197C35.9872 10.334 38.5 14.3739 38.5 19Z" stroke="url(#paint0_linear)"/>
<path d="M42.5 19C42.5 28.0991 34.9026 35.5 25.5 35.5C16.0974 35.5 8.5 28.0991 8.5 19C8.5 9.90087 16.0974 2.5 25.5 2.5C34.9026 2.5 42.5 9.90087 42.5 19Z" stroke="url(#paint1_linear)"/>
</g>
<defs>
<filter id="filter0_d" x="0" y="0" width="47" height="47" filterUnits="userSpaceOnUse" color-interpolation-filters="sRGB">
<feFlood flood-opacity="0" result="BackgroundImageFix"/>
<feColorMatrix in="SourceAlpha" type="matrix" values="0 0 0 0 0 0 0 0 0 0 0 0 0 0 0 0 0 0 127 0"/>
<feOffset dx="-2" dy="4"/>
<feGaussianBlur stdDeviation="3"/>
<feColorMatrix type="matrix" values="0 0 0 0 1 0 0 0 0 0.442688 0 0 0 0 0 0 0 0 0.5 0"/>
<feBlend mode="normal" in2="BackgroundImageFix" result="effect1_dropShadow"/>
<feBlend mode="normal" in="SourceGraphic" in2="effect1_dropShadow" result="shape"/>
</filter>
<linearGradient id="paint0_linear" x1="13" y1="18.6061" x2="34.2135" y2="28.8815" gradientUnits="userSpaceOnUse">
<stop offset="0.000997827" stop-color="#E32A23"/>
<stop offset="1" stop-color="#FF7100"/>
</linearGradient>
<linearGradient id="paint1_linear" x1="8" y1="18.4848" x2="36.2364" y2="32.5644" gradientUnits="userSpaceOnUse">
<stop offset="0.000997827" stop-color="#E32A23"/>
<stop offset="1" stop-color="#FF7100"/>
</linearGradient>
</defs>
</svg>
