<svg width="35" height="47" viewBox="0 0 35 47" fill="none" xmlns="http://www.w3.org/2000/svg">
<g clip-path="url(#clip0)" filter="url(#filter0_d)">
<circle cx="19.0814" cy="8.29781" r="0.5" transform="rotate(79.2238 19.0814 8.29781)" fill="url(#paint0_linear)" stroke="url(#paint1_linear)" stroke-width="0.19"/>
<circle cx="19.0109" cy="19.9405" r="0.5" transform="rotate(76.3188 19.0109 19.9405)" fill="url(#paint2_linear)" stroke="url(#paint3_linear)" stroke-width="0.19"/>
<circle cx="16.0355" cy="11.0151" r="0.5" transform="rotate(79.2238 16.0355 11.0151)" fill="url(#paint4_linear)" stroke="url(#paint5_linear)" stroke-width="0.19"/>
<circle cx="16.1066" cy="22.8087" r="0.5" transform="rotate(76.3188 16.1066 22.8087)" fill="url(#paint6_linear)" stroke="url(#paint7_linear)" stroke-width="0.19"/>
<mask id="path-5-inside-1" fill="white">
<rect x="22.7031" y="28.7856" width="4.9" height="10.5" rx="1" transform="rotate(90 22.7031 28.7856)"/>
</mask>
<rect x="22.7031" y="28.7856" width="4.9" height="10.5" rx="1" transform="rotate(90 22.7031 28.7856)" stroke="url(#paint8_linear)" stroke-width="2.4" mask="url(#path-5-inside-1)"/>
<mask id="path-6-inside-2" fill="white">
<rect width="4.9" height="3.5" rx="1" transform="matrix(0 1 1 0 12.2031 28.7856)"/>
</mask>
<rect width="4.9" height="3.5" rx="1" transform="matrix(0 1 1 0 12.2031 28.7856)" stroke="url(#paint9_linear)" stroke-width="2.4" mask="url(#path-6-inside-2)"/>
<mask id="path-7-inside-3" fill="white">
<rect width="4.9" height="2.8" rx="1" transform="matrix(0 1 1 0 15.0039 28.7856)"/>
</mask>
<rect width="4.9" height="2.8" rx="1" transform="matrix(0 1 1 0 15.0039 28.7856)" stroke="url(#paint10_linear)" stroke-width="2.4" mask="url(#path-7-inside-3)"/>
<rect x="25.6031" y="2.6" width="33.8" height="16.3" rx="2.4" transform="rotate(90 25.6031 2.6)" stroke="url(#paint11_linear)" stroke-width="1.2"/>
<circle cx="17.4531" cy="9.76123" r="4.65" transform="rotate(90 17.4531 9.76123)" stroke="url(#paint12_linear)" stroke-width="1.2"/>
<circle cx="17.4531" cy="21.48" r="4.65" transform="rotate(90 17.4531 21.48)" stroke="url(#paint13_linear)" stroke-width="1.2"/>
</g>
<defs>
<filter id="filter0_d" x="-8" y="0" width="47" height="47" filterUnits="userSpaceOnUse" color-interpolation-filters="sRGB">
<feFlood flood-opacity="0" result="BackgroundImageFix"/>
<feColorMatrix in="SourceAlpha" type="matrix" values="0 0 0 0 0 0 0 0 0 0 0 0 0 0 0 0 0 0 127 0"/>
<feOffset dx="-2" dy="4"/>
<feGaussianBlur stdDeviation="3"/>
<feColorMatrix type="matrix" values="0 0 0 0 1 0 0 0 0 0.442688 0 0 0 0 0 0 0 0 0.5 0"/>
<feBlend mode="normal" in2="BackgroundImageFix" result="effect1_dropShadow"/>
<feBlend mode="normal" in="SourceGraphic" in2="effect1_dropShadow" result="shape"/>
</filter>
<linearGradient id="paint0_linear" x1="18.4864" y1="8.27978" x2="19.4574" y2="8.75008" gradientUnits="userSpaceOnUse">
<stop offset="0.000997827" stop-color="#E32A23"/>
<stop offset="1" stop-color="#FF7100"/>
</linearGradient>
<linearGradient id="paint1_linear" x1="18.4864" y1="8.27978" x2="19.4574" y2="8.75008" gradientUnits="userSpaceOnUse">
<stop offset="0.000997827" stop-color="#E32A23"/>
<stop offset="1" stop-color="#FF7100"/>
</linearGradient>
<linearGradient id="paint2_linear" x1="18.4159" y1="19.9225" x2="19.3868" y2="20.3928" gradientUnits="userSpaceOnUse">
<stop offset="0.000997827" stop-color="#E32A23"/>
<stop offset="1" stop-color="#FF7100"/>
</linearGradient>
<linearGradient id="paint3_linear" x1="18.4159" y1="19.9225" x2="19.3868" y2="20.3928" gradientUnits="userSpaceOnUse">
<stop offset="0.000997827" stop-color="#E32A23"/>
<stop offset="1" stop-color="#FF7100"/>
</linearGradient>
<linearGradient id="paint4_linear" x1="15.4405" y1="10.9971" x2="16.4115" y2="11.4674" gradientUnits="userSpaceOnUse">
<stop offset="0.000997827" stop-color="#E32A23"/>
<stop offset="1" stop-color="#FF7100"/>
</linearGradient>
<linearGradient id="paint5_linear" x1="15.4405" y1="10.9971" x2="16.4115" y2="11.4674" gradientUnits="userSpaceOnUse">
<stop offset="0.000997827" stop-color="#E32A23"/>
<stop offset="1" stop-color="#FF7100"/>
</linearGradient>
<linearGradient id="paint6_linear" x1="15.5116" y1="22.7907" x2="16.4825" y2="23.261" gradientUnits="userSpaceOnUse">
<stop offset="0.000997827" stop-color="#E32A23"/>
<stop offset="1" stop-color="#FF7100"/>
</linearGradient>
<linearGradient id="paint7_linear" x1="15.5116" y1="22.7907" x2="16.4825" y2="23.261" gradientUnits="userSpaceOnUse">
<stop offset="0.000997827" stop-color="#E32A23"/>
<stop offset="1" stop-color="#FF7100"/>
</linearGradient>
<linearGradient id="paint8_linear" x1="22.7031" y1="33.8766" x2="27.3991" y2="34.9381" gradientUnits="userSpaceOnUse">
<stop offset="0.000997827" stop-color="#E32A23"/>
<stop offset="1" stop-color="#FF7100"/>
</linearGradient>
<linearGradient id="paint9_linear" x1="-3.96944e-08" y1="1.69697" x2="3.3811" y2="3.98982" gradientUnits="userSpaceOnUse">
<stop offset="0.000997827" stop-color="#E32A23"/>
<stop offset="1" stop-color="#FF7100"/>
</linearGradient>
<linearGradient id="paint10_linear" x1="-3.96944e-08" y1="1.35758" x2="2.87217" y2="3.79223" gradientUnits="userSpaceOnUse">
<stop offset="0.000997827" stop-color="#E32A23"/>
<stop offset="1" stop-color="#FF7100"/>
</linearGradient>
<linearGradient id="paint11_linear" x1="26.2031" y1="10.4848" x2="44.3908" y2="28.1044" gradientUnits="userSpaceOnUse">
<stop offset="0.000997827" stop-color="#E32A23"/>
<stop offset="1" stop-color="#FF7100"/>
</linearGradient>
<linearGradient id="paint12_linear" x1="12.2031" y1="9.60214" x2="20.7701" y2="13.7519" gradientUnits="userSpaceOnUse">
<stop offset="0.000997827" stop-color="#E32A23"/>
<stop offset="1" stop-color="#FF7100"/>
</linearGradient>
<linearGradient id="paint13_linear" x1="12.2031" y1="21.3209" x2="20.7701" y2="25.4706" gradientUnits="userSpaceOnUse">
<stop offset="0.000997827" stop-color="#E32A23"/>
<stop offset="1" stop-color="#FF7100"/>
</linearGradient>
<clipPath id="clip0">
<rect width="35" height="35" fill="white" transform="translate(0 2)"/>
</clipPath>
</defs>
</svg>
