<svg width="40" height="38" viewBox="0 0 40 38" fill="none" xmlns="http://www.w3.org/2000/svg">
<g filter="url(#filter0_d)">
<path d="M9.68148 16.0463L14 19.8423M9.68148 16.0463C13.0889 13.9538 17.1778 11.2154 23.3111 7.08629M9.68148 16.0463L9.1427 22M20.5 26L16.5 22M20.5 26L28.5 11.5M20.5 26L14 26.8032M14 19.8423C14.6815 18.9865 19.1076 13.1076 21 15C22.5 16.5 18.0037 20.4634 16.5 22M14 19.8423L16.5 22M23.3111 7.08629L28.5 11.5M23.3111 7.08629C24.5271 6.23629 25.686 5.42064 26.7185 4.69017M28.5 11.5L30.5 8M26.7185 4.69017C27.2031 4.34733 27.6598 4.02326 28.0815 3.72321C28.7629 3.2668 30.1259 2.35368 31.4889 3.72357C32.1704 4.40856 32.1704 5.09286 31.4889 6.46157L30.5 8M26.7185 4.69017L30.5 8M9.1427 22L9 23.5769L12.4074 27L14 26.8032M9.1427 22L14 26.8032" stroke="url(#paint0_linear)"/>
</g>
<defs>
<filter id="filter0_d" x="-3" y="-2" width="47" height="47" filterUnits="userSpaceOnUse" color-interpolation-filters="sRGB">
<feFlood flood-opacity="0" result="BackgroundImageFix"/>
<feColorMatrix in="SourceAlpha" type="matrix" values="0 0 0 0 0 0 0 0 0 0 0 0 0 0 0 0 0 0 127 0"/>
<feOffset dx="-2" dy="4"/>
<feGaussianBlur stdDeviation="3"/>
<feColorMatrix type="matrix" values="0 0 0 0 1 0 0 0 0 0.442688 0 0 0 0 0 0 0 0 0.5 0"/>
<feBlend mode="normal" in2="BackgroundImageFix" result="effect1_dropShadow"/>
<feBlend mode="normal" in="SourceGraphic" in2="effect1_dropShadow" result="shape"/>
</filter>
<linearGradient id="paint0_linear" x1="9" y1="14.6364" x2="28.0614" y2="23.4847" gradientUnits="userSpaceOnUse">
<stop offset="0.000997827" stop-color="#E32A23"/>
<stop offset="1" stop-color="#FF7100"/>
</linearGradient>
</defs>
</svg>
