<svg width="45" height="45" viewBox="0 0 45 45" fill="none" xmlns="http://www.w3.org/2000/svg">
<g filter="url(#filter0_d)">
<path d="M16.559 9.75L12.934 2.5H36.066L32.441 9.75H16.559Z" stroke="url(#paint0_linear)"/>
<path d="M33.25 10.559L40.5 6.93402V30.066L33.25 26.441V10.559Z" stroke="url(#paint1_linear)"/>
<path d="M15.75 10.559L8.5 6.93402V30.066L15.75 26.441V10.559Z" stroke="url(#paint2_linear)"/>
<path d="M16.559 27.25L12.934 34.5H36.066L32.441 27.25H16.559Z" stroke="url(#paint3_linear)"/>
<rect x="17.5" y="11.5" width="14" height="14" rx="7" stroke="url(#paint4_linear)"/>
<circle cx="20.5" cy="17.5" r="1" stroke="url(#paint5_linear)"/>
<circle cx="23.5" cy="14.5" r="1" stroke="url(#paint6_linear)"/>
<circle cx="27.5" cy="15.5" r="1" stroke="url(#paint7_linear)"/>
<circle cx="24.5" cy="18.5" r="1" stroke="url(#paint8_linear)"/>
<circle cx="25.5" cy="22.5" r="1" stroke="url(#paint9_linear)"/>
<circle cx="28.5" cy="19.5" r="1" stroke="url(#paint10_linear)"/>
<circle cx="21.5" cy="21.5" r="1" stroke="url(#paint11_linear)"/>
</g>
<defs>
<filter id="filter0_d" x="-1" y="-1" width="47" height="47" filterUnits="userSpaceOnUse" color-interpolation-filters="sRGB">
<feFlood flood-opacity="0" result="BackgroundImageFix"/>
<feColorMatrix in="SourceAlpha" type="matrix" values="0 0 0 0 0 0 0 0 0 0 0 0 0 0 0 0 0 0 127 0"/>
<feOffset dx="-2" dy="4"/>
<feGaussianBlur stdDeviation="3"/>
<feColorMatrix type="matrix" values="0 0 0 0 1 0 0 0 0 0.442688 0 0 0 0 0 0 0 0 0.5 0"/>
<feBlend mode="normal" in2="BackgroundImageFix" result="effect1_dropShadow"/>
<feBlend mode="normal" in="SourceGraphic" in2="effect1_dropShadow" result="shape"/>
</filter>
<linearGradient id="paint0_linear" x1="12.125" y1="6" x2="20.1374" y2="17.6432" gradientUnits="userSpaceOnUse">
<stop offset="0.000997827" stop-color="#E32A23"/>
<stop offset="1" stop-color="#FF7100"/>
</linearGradient>
<linearGradient id="paint1_linear" x1="37" y1="6.125" x2="25.3568" y2="14.1374" gradientUnits="userSpaceOnUse">
<stop offset="0.000997827" stop-color="#E32A23"/>
<stop offset="1" stop-color="#FF7100"/>
</linearGradient>
<linearGradient id="paint2_linear" x1="12" y1="6.125" x2="23.6432" y2="14.1374" gradientUnits="userSpaceOnUse">
<stop offset="0.000997827" stop-color="#E32A23"/>
<stop offset="1" stop-color="#FF7100"/>
</linearGradient>
<linearGradient id="paint3_linear" x1="12.125" y1="31" x2="20.1374" y2="19.3568" gradientUnits="userSpaceOnUse">
<stop offset="0.000997827" stop-color="#E32A23"/>
<stop offset="1" stop-color="#FF7100"/>
</linearGradient>
<linearGradient id="paint4_linear" x1="17" y1="18.2727" x2="29.2386" y2="24.2009" gradientUnits="userSpaceOnUse">
<stop offset="0.000997827" stop-color="#E32A23"/>
<stop offset="1" stop-color="#FF7100"/>
</linearGradient>
<linearGradient id="paint5_linear" x1="19" y1="17.4545" x2="21.4477" y2="18.6402" gradientUnits="userSpaceOnUse">
<stop offset="0.000997827" stop-color="#E32A23"/>
<stop offset="1" stop-color="#FF7100"/>
</linearGradient>
<linearGradient id="paint6_linear" x1="22" y1="14.4545" x2="24.4477" y2="15.6402" gradientUnits="userSpaceOnUse">
<stop offset="0.000997827" stop-color="#E32A23"/>
<stop offset="1" stop-color="#FF7100"/>
</linearGradient>
<linearGradient id="paint7_linear" x1="26" y1="15.4545" x2="28.4477" y2="16.6402" gradientUnits="userSpaceOnUse">
<stop offset="0.000997827" stop-color="#E32A23"/>
<stop offset="1" stop-color="#FF7100"/>
</linearGradient>
<linearGradient id="paint8_linear" x1="23" y1="18.4545" x2="25.4477" y2="19.6402" gradientUnits="userSpaceOnUse">
<stop offset="0.000997827" stop-color="#E32A23"/>
<stop offset="1" stop-color="#FF7100"/>
</linearGradient>
<linearGradient id="paint9_linear" x1="24" y1="22.4545" x2="26.4477" y2="23.6402" gradientUnits="userSpaceOnUse">
<stop offset="0.000997827" stop-color="#E32A23"/>
<stop offset="1" stop-color="#FF7100"/>
</linearGradient>
<linearGradient id="paint10_linear" x1="27" y1="19.4545" x2="29.4477" y2="20.6402" gradientUnits="userSpaceOnUse">
<stop offset="0.000997827" stop-color="#E32A23"/>
<stop offset="1" stop-color="#FF7100"/>
</linearGradient>
<linearGradient id="paint11_linear" x1="20" y1="21.4545" x2="22.4477" y2="22.6402" gradientUnits="userSpaceOnUse">
<stop offset="0.000997827" stop-color="#E32A23"/>
<stop offset="1" stop-color="#FF7100"/>
</linearGradient>
</defs>
</svg>
