<svg width="39" height="42" viewBox="0 0 39 42" fill="none" xmlns="http://www.w3.org/2000/svg">
<g clip-path="url(#clip0)" filter="url(#filter0_d)">
<path d="M8.77895 9.68146C8.50565 9.6419 8.25204 9.83138 8.21248 10.1047C8.17291 10.378 8.36239 10.6316 8.63569 10.6711L8.77895 9.68146ZM32.4723 27.3531C32.603 27.5963 32.9062 27.6875 33.1494 27.5567C33.3927 27.426 33.4838 27.1228 33.3531 26.8796L32.4723 27.3531ZM27.3736 22.1493L27.87 22.2092L27.3736 22.1493ZM27.0477 24.8513L26.5513 24.7914L27.0477 24.8513ZM19.5949 11.9797C19.5954 11.9791 19.5958 11.9784 19.5963 11.9778C19.5968 11.9771 19.5973 11.9764 19.5977 11.9757C19.5982 11.975 19.5987 11.9743 19.5992 11.9736C19.5997 11.9728 19.6003 11.9721 19.6008 11.9713C19.6013 11.9706 19.6019 11.9698 19.6024 11.969C19.603 11.9682 19.6035 11.9674 19.6041 11.9666C19.6047 11.9658 19.6052 11.965 19.6058 11.9641C19.6064 11.9633 19.607 11.9624 19.6076 11.9616C19.6083 11.9607 19.6089 11.9598 19.6095 11.9589C19.6101 11.958 19.6108 11.9571 19.6114 11.9561C19.6121 11.9552 19.6127 11.9543 19.6134 11.9533C19.6141 11.9524 19.6148 11.9514 19.6155 11.9504C19.6162 11.9494 19.6169 11.9484 19.6176 11.9474C19.6183 11.9464 19.619 11.9453 19.6197 11.9443C19.6205 11.9432 19.6212 11.9422 19.622 11.9411C19.6227 11.94 19.6235 11.9389 19.6243 11.9378C19.625 11.9367 19.6258 11.9356 19.6266 11.9345C19.6274 11.9333 19.6282 11.9322 19.629 11.931C19.6298 11.9299 19.6306 11.9287 19.6315 11.9275C19.6323 11.9263 19.6332 11.9251 19.634 11.9239C19.6349 11.9227 19.6357 11.9214 19.6366 11.9202C19.6375 11.919 19.6383 11.9177 19.6392 11.9164C19.6401 11.9151 19.641 11.9139 19.6419 11.9126C19.6429 11.9113 19.6438 11.9099 19.6447 11.9086C19.6456 11.9073 19.6466 11.9059 19.6475 11.9046C19.6485 11.9032 19.6494 11.9018 19.6504 11.9005C19.6514 11.8991 19.6524 11.8977 19.6533 11.8963C19.6543 11.8949 19.6553 11.8934 19.6563 11.892C19.6573 11.8905 19.6584 11.8891 19.6594 11.8876C19.6604 11.8862 19.6615 11.8847 19.6625 11.8832C19.6636 11.8817 19.6646 11.8802 19.6657 11.8786C19.6667 11.8771 19.6678 11.8756 19.6689 11.874C19.67 11.8725 19.6711 11.8709 19.6722 11.8693C19.6733 11.8678 19.6744 11.8662 19.6755 11.8646C19.6767 11.863 19.6778 11.8613 19.6789 11.8597C19.6801 11.8581 19.6812 11.8564 19.6824 11.8548C19.6835 11.8531 19.6847 11.8514 19.6859 11.8497C19.6871 11.8481 19.6883 11.8464 19.6895 11.8446C19.6907 11.8429 19.6919 11.8412 19.6931 11.8395C19.6943 11.8377 19.6955 11.836 19.6968 11.8342C19.698 11.8324 19.6993 11.8307 19.7005 11.8289C19.7018 11.8271 19.703 11.8253 19.7043 11.8234C19.7056 11.8216 19.7069 11.8198 19.7082 11.8179C19.7094 11.8161 19.7107 11.8142 19.7121 11.8124C19.7134 11.8105 19.7147 11.8086 19.716 11.8067C19.7173 11.8048 19.7187 11.8029 19.72 11.801C19.7214 11.799 19.7227 11.7971 19.7241 11.7951C19.7255 11.7932 19.7268 11.7912 19.7282 11.7893C19.7296 11.7873 19.731 11.7853 19.7324 11.7833C19.7338 11.7813 19.7352 11.7793 19.7366 11.7772C19.7381 11.7752 19.7395 11.7732 19.7409 11.7711C19.7424 11.769 19.7438 11.767 19.7453 11.7649C19.7467 11.7628 19.7482 11.7607 19.7497 11.7586C19.7512 11.7565 19.7526 11.7544 19.7541 11.7522C19.7556 11.7501 19.7571 11.748 19.7586 11.7458C19.7602 11.7436 19.7617 11.7415 19.7632 11.7393C19.7647 11.7371 19.7663 11.7349 19.7678 11.7327C19.7694 11.7305 19.7709 11.7283 19.7725 11.726C19.7741 11.7238 19.7756 11.7215 19.7772 11.7193C19.7788 11.717 19.7804 11.7147 19.782 11.7125C19.7836 11.7102 19.7852 11.7079 19.7868 11.7056C19.7884 11.7032 19.7901 11.7009 19.7917 11.6986C19.7933 11.6962 19.795 11.6939 19.7966 11.6915C19.7983 11.6892 19.7999 11.6868 19.8016 11.6844C19.8033 11.682 19.805 11.6796 19.8066 11.6772C19.8083 11.6748 19.81 11.6724 19.8117 11.6699C19.8134 11.6675 19.8152 11.6651 19.8169 11.6626C19.8186 11.6601 19.8203 11.6577 19.8221 11.6552C19.8238 11.6527 19.8256 11.6502 19.8273 11.6477C19.8291 11.6452 19.8308 11.6426 19.8326 11.6401C19.8344 11.6376 19.8362 11.635 19.838 11.6325C19.8397 11.6299 19.8415 11.6273 19.8434 11.6248C19.8452 11.6222 19.847 11.6196 19.8488 11.617C19.8506 11.6144 19.8525 11.6117 19.8543 11.6091C19.8561 11.6065 19.858 11.6038 19.8599 11.6012C19.8617 11.5985 19.8636 11.5959 19.8655 11.5932C19.8673 11.5905 19.8692 11.5878 19.8711 11.5851C19.873 11.5824 19.8749 11.5797 19.8768 11.5769C19.8787 11.5742 19.8806 11.5715 19.8826 11.5687C19.8845 11.566 19.8864 11.5632 19.8884 11.5604C19.8903 11.5577 19.8923 11.5549 19.8942 11.5521C19.8962 11.5493 19.8982 11.5465 19.9001 11.5436C19.9021 11.5408 19.9041 11.538 19.9061 11.5351C19.9081 11.5323 19.9101 11.5294 19.9121 11.5266C19.9141 11.5237 19.9161 11.5208 19.9181 11.5179C19.9202 11.515 19.9222 11.5121 19.9242 11.5092C19.9263 11.5063 19.9283 11.5033 19.9304 11.5004C19.9324 11.4975 19.9345 11.4945 19.9366 11.4916C19.9387 11.4886 19.9407 11.4856 19.9428 11.4826C19.9449 11.4796 19.947 11.4766 19.9491 11.4736C19.9512 11.4706 19.9533 11.4676 19.9555 11.4646C19.9576 11.4615 19.9597 11.4585 19.9619 11.4554C19.964 11.4524 19.9661 11.4493 19.9683 11.4462C19.9704 11.4432 19.9726 11.4401 19.9748 11.437C19.9769 11.4339 19.9791 11.4308 19.9813 11.4276C19.9835 11.4245 19.9857 11.4214 19.9879 11.4182C19.9901 11.4151 19.9923 11.4119 19.9945 11.4088C19.9967 11.4056 19.999 11.4024 20.0012 11.3992C20.0034 11.396 20.0057 11.3928 20.0079 11.3896C20.0102 11.3864 20.0124 11.3832 20.0147 11.3799C20.017 11.3767 20.0192 11.3735 20.0215 11.3702C20.0238 11.3669 20.0261 11.3637 20.0284 11.3604C20.0307 11.3571 20.033 11.3538 20.0353 11.3505C20.0376 11.3472 20.0399 11.3439 20.0422 11.3406C20.0446 11.3373 20.0469 11.3339 20.0492 11.3306C20.0516 11.3272 20.0539 11.3239 20.0563 11.3205C20.0586 11.3171 20.061 11.3138 20.0634 11.3104C20.0657 11.307 20.0681 11.3036 20.0705 11.3002C20.0729 11.2968 20.0753 11.2933 20.0777 11.2899C20.0801 11.2865 20.0825 11.283 20.0849 11.2796C20.0873 11.2761 20.0898 11.2727 20.0922 11.2692C20.0946 11.2657 20.0971 11.2622 20.0995 11.2587C20.102 11.2552 20.1044 11.2517 20.1069 11.2482C20.1093 11.2447 20.1118 11.2412 20.1143 11.2376C20.1168 11.2341 20.1192 11.2305 20.1217 11.227C20.1242 11.2234 20.1267 11.2198 20.1292 11.2163C20.1317 11.2127 20.1343 11.2091 20.1368 11.2055C20.1393 11.2019 20.1418 11.1983 20.1444 11.1947C20.1469 11.191 20.1494 11.1874 20.152 11.1838C20.1545 11.1801 20.1571 11.1765 20.1597 11.1728C20.1622 11.1691 20.1648 11.1654 20.1674 11.1618C20.17 11.1581 20.1725 11.1544 20.1751 11.1507C20.1777 11.147 20.1803 11.1433 20.1829 11.1395C20.1855 11.1358 20.1882 11.1321 20.1908 11.1283C20.1934 11.1246 20.196 11.1208 20.1987 11.117C20.2013 11.1133 20.204 11.1095 20.2066 11.1057C20.2093 11.1019 20.2119 11.0981 20.2146 11.0943C20.2172 11.0905 20.2199 11.0867 20.2226 11.0829C20.2253 11.079 20.228 11.0752 20.2307 11.0713C20.2333 11.0675 20.236 11.0636 20.2388 11.0598C20.2415 11.0559 20.2442 11.052 20.2469 11.0481C20.2496 11.0443 20.2523 11.0404 20.2551 11.0364C20.2578 11.0325 20.2606 11.0286 20.2633 11.0247C20.2661 11.0208 20.2688 11.0168 20.2716 11.0129C20.2743 11.0089 20.2771 11.005 20.2799 11.001C20.2827 10.997 20.2854 10.9931 20.2882 10.9891C20.291 10.9851 20.2938 10.9811 20.2966 10.9771C20.2994 10.9731 20.3022 10.9691 20.3051 10.965C20.3079 10.961 20.3107 10.957 20.3135 10.9529C20.3164 10.9489 20.3192 10.9448 20.322 10.9408C20.3249 10.9367 20.3277 10.9326 20.3306 10.9285C20.3335 10.9245 20.3363 10.9204 20.3392 10.9163C20.3421 10.9122 20.3449 10.9081 20.3478 10.9039C20.3507 10.8998 20.3536 10.8957 20.3565 10.8915C20.3594 10.8874 20.3623 10.8832 20.3652 10.8791C20.3681 10.8749 20.371 10.8708 20.374 10.8666C20.3769 10.8624 20.3798 10.8582 20.3828 10.854C20.3857 10.8498 20.3886 10.8456 20.3916 10.8414C20.3945 10.8372 20.3975 10.833 20.4005 10.8287C20.4034 10.8245 20.4064 10.8202 20.4094 10.816C20.4123 10.8117 20.4153 10.8075 20.4183 10.8032C20.4213 10.7989 20.4243 10.7947 20.4273 10.7904C20.4303 10.7861 20.4333 10.7818 20.4363 10.7775C20.4393 10.7732 20.4424 10.7688 20.4454 10.7645C20.4484 10.7602 20.4515 10.7559 20.4545 10.7515C20.4575 10.7472 20.4606 10.7428 20.4636 10.7385C20.4667 10.7341 20.4697 10.7297 20.4728 10.7253C20.4759 10.721 20.4789 10.7166 20.482 10.7122C20.4851 10.7078 20.4882 10.7034 20.4913 10.699C20.4944 10.6945 20.4975 10.6901 20.5006 10.6857C20.5037 10.6812 20.5068 10.6768 20.5099 10.6723C20.513 10.6679 20.5161 10.6634 20.5193 10.659C20.5224 10.6545 20.5255 10.65 20.5287 10.6455C20.5318 10.641 20.5349 10.6366 20.5381 10.632C20.5413 10.6275 20.5444 10.623 20.5476 10.6185C20.5507 10.614 20.5539 10.6095 20.5571 10.6049C20.5603 10.6004 20.5634 10.5958 20.5666 10.5913C20.5698 10.5867 20.573 10.5822 20.5762 10.5776C20.5794 10.573 20.5826 10.5684 20.5858 10.5638C20.589 10.5592 20.5923 10.5547 20.5955 10.55C20.5987 10.5454 20.6019 10.5408 20.6052 10.5362C20.6084 10.5316 20.6117 10.5269 20.6149 10.5223C20.6182 10.5177 20.6214 10.513 20.6247 10.5084C20.6279 10.5037 20.6312 10.499 20.6345 10.4944C20.6377 10.4897 20.641 10.485 20.6443 10.4803C20.6476 10.4756 20.6509 10.4709 20.6542 10.4662C20.6575 10.4615 20.6608 10.4568 20.6641 10.4521C20.6674 10.4473 20.6707 10.4426 20.674 10.4379C20.6773 10.4331 20.6806 10.4284 20.684 10.4236C20.6873 10.4189 20.6906 10.4141 20.694 10.4093C20.6973 10.4045 20.7007 10.3998 20.704 10.395C20.7074 10.3902 20.7107 10.3854 20.7141 10.3806C20.7175 10.3758 20.7208 10.371 20.7242 10.3661C20.7276 10.3613 20.7309 10.3565 20.7343 10.3517C20.7377 10.3468 20.7411 10.342 20.7445 10.3371C20.7479 10.3323 20.7513 10.3274 20.7547 10.3225C20.7581 10.3177 20.7615 10.3128 20.765 10.3079C20.7684 10.303 20.7718 10.2981 20.7752 10.2932C20.7787 10.2883 20.7821 10.2834 20.7855 10.2785C20.789 10.2736 20.7924 10.2687 20.7959 10.2637C20.7993 10.2588 20.8028 10.2539 20.8062 10.2489C20.8097 10.244 20.8132 10.239 20.8166 10.234C20.8201 10.2291 20.8236 10.2241 20.8271 10.2191C20.8306 10.2142 20.834 10.2092 20.8375 10.2042C20.841 10.1992 20.8445 10.1942 20.848 10.1892C20.8515 10.1842 20.8551 10.1792 20.8586 10.1741C20.8621 10.1691 20.8656 10.1641 20.8691 10.159C20.8727 10.154 20.8762 10.149 20.8797 10.1439C20.8833 10.1388 20.8868 10.1338 20.8904 10.1287C20.8939 10.1237 20.8975 10.1186 20.901 10.1135C20.9046 10.1084 20.9081 10.1033 20.9117 10.0982C20.9153 10.0931 20.9188 10.088 20.9224 10.0829C20.926 10.0778 20.9296 10.0727 20.9332 10.0676C20.9367 10.0624 20.9403 10.0573 20.9439 10.0522C20.9475 10.047 20.9511 10.0419 20.9547 10.0367C20.9584 10.0316 20.962 10.0264 20.9656 10.0212C20.9692 10.016 20.9728 10.0109 20.9765 10.0057C20.9801 10.0005 20.9837 9.99531 20.9874 9.99012C20.991 9.98492 20.9946 9.97971 20.9983 9.9745C21.0019 9.96929 21.0056 9.96407 21.0092 9.95884C21.0129 9.95362 21.0166 9.94838 21.0202 9.94314C21.0239 9.9379 21.0276 9.93266 21.0312 9.9274C21.0349 9.92215 21.0386 9.91689 21.0423 9.91162C21.046 9.90635 21.0497 9.90108 21.0534 9.8958C21.0571 9.89052 21.0608 9.88523 21.0645 9.87993C21.0682 9.87464 21.0719 9.86934 21.0756 9.86403C21.0793 9.85872 21.083 9.8534 21.0868 9.84808C21.0905 9.84276 21.0942 9.83743 21.0979 9.83209C21.1017 9.82676 21.1054 9.82142 21.1092 9.81607C21.1129 9.81072 21.1167 9.80536 21.1204 9.8C21.1242 9.79464 21.1279 9.78927 21.1317 9.7839C21.1354 9.77852 21.1392 9.77314 21.143 9.76775C21.1467 9.76236 21.1505 9.75697 21.1543 9.75156C21.1581 9.74616 21.1619 9.74076 21.1657 9.73534C21.1694 9.72993 21.1732 9.72451 21.177 9.71908C21.1808 9.71365 21.1846 9.70822 21.1884 9.70278C21.1923 9.69734 21.1961 9.69189 21.1999 9.68644C21.2037 9.68099 21.2075 9.67553 21.2113 9.67006C21.2152 9.6646 21.219 9.65912 21.2228 9.65365C21.2267 9.64817 21.2305 9.64268 21.2343 9.63719C21.2382 9.6317 21.242 9.6262 21.2459 9.6207C21.2497 9.6152 21.2536 9.60969 21.2575 9.60417C21.2613 9.59866 21.2652 9.59314 21.269 9.58761C21.2729 9.58208 21.2768 9.57655 21.2807 9.57101C21.2845 9.56547 21.2884 9.55992 21.2923 9.55437C21.2962 9.54882 21.3001 9.54326 21.304 9.5377C21.3079 9.53213 21.3118 9.52656 21.3157 9.52099C21.3196 9.51541 21.3235 9.50983 21.3274 9.50424C21.3313 9.49865 21.3352 9.49306 21.3391 9.48746C21.3431 9.48186 21.347 9.47625 21.3509 9.47064C21.3548 9.46503 21.3588 9.45941 21.3627 9.45379C21.3666 9.44817 21.3706 9.44254 21.3745 9.4369C21.3785 9.43127 21.3824 9.42563 21.3864 9.41998C21.3903 9.41433 21.3943 9.40868 21.3982 9.40302C21.4022 9.39737 21.4062 9.3917 21.4101 9.38603C21.4141 9.38036 21.4181 9.37469 21.422 9.36901C21.426 9.36333 21.43 9.35764 21.434 9.35195C21.438 9.34626 21.4419 9.34056 21.4459 9.33486C21.4499 9.32915 21.4539 9.32345 21.4579 9.31773C21.4619 9.31202 21.4659 9.3063 21.4699 9.30057C21.4739 9.29485 21.4779 9.28912 21.482 9.28338C21.486 9.27765 21.49 9.2719 21.494 9.26616C21.498 9.26041 21.5021 9.25466 21.5061 9.2489C21.5101 9.24314 21.5142 9.23738 21.5182 9.23161C21.5222 9.22584 21.5263 9.22007 21.5303 9.21429C21.5344 9.20851 21.5384 9.20273 21.5425 9.19694C21.5465 9.19115 21.5506 9.18535 21.5546 9.17955C21.5587 9.17375 21.5627 9.16795 21.5668 9.16214C21.5709 9.15633 21.5749 9.15051 21.579 9.14469C21.5831 9.13887 21.5872 9.13305 21.5913 9.12721C21.5953 9.12138 21.5994 9.11555 21.6035 9.10971C21.6076 9.10386 21.6117 9.09802 21.6158 9.09217C21.6199 9.08632 21.624 9.08046 21.6281 9.0746C21.6322 9.06874 21.6363 9.06287 21.6404 9.057C21.6445 9.05113 21.6486 9.04525 21.6527 9.03937C21.6568 9.03349 21.661 9.0276 21.6651 9.02171C21.6692 9.01582 21.6733 9.00993 21.6775 9.00402C21.6816 8.99812 21.6857 8.99222 21.6899 8.98631C21.694 8.9804 21.6981 8.97448 21.7023 8.96856C21.7064 8.96264 21.7106 8.95672 21.7147 8.95079C21.7189 8.94486 21.723 8.93892 21.7272 8.93299C21.7313 8.92705 21.7355 8.9211 21.7397 8.91515C21.7438 8.90921 21.748 8.90325 21.7522 8.8973C21.7563 8.89134 21.7605 8.88538 21.7647 8.87941C21.7689 8.87344 21.773 8.86747 21.7772 8.86149C21.7814 8.85552 21.7856 8.84954 21.7898 8.84355C21.794 8.83757 21.7982 8.83158 21.8023 8.82558C21.8065 8.81959 21.8107 8.81359 21.8149 8.80759C21.8191 8.80159 21.8233 8.79558 21.8276 8.78957C21.8318 8.78356 21.836 8.77754 21.8402 8.77152C21.8444 8.7655 21.8486 8.75947 21.8528 8.75345C21.8571 8.74742 21.8613 8.74138 21.8655 8.73534C21.8697 8.72931 21.874 8.72326 21.8782 8.71722C21.8824 8.71117 21.8867 8.70512 21.8909 8.69907C21.8951 8.69301 21.8994 8.68695 21.9036 8.68089C21.9079 8.67483 21.9121 8.66876 21.9164 8.66269C21.9206 8.65662 21.9249 8.65054 21.9291 8.64446C21.9334 8.63838 21.9376 8.6323 21.9419 8.62621C21.9461 8.62012 21.9504 8.61403 21.9547 8.60793C21.9589 8.60184 21.9632 8.59574 21.9675 8.58963C21.9717 8.58353 21.976 8.57742 21.9803 8.57131C21.9846 8.5652 21.9889 8.55908 21.9931 8.55296C21.9974 8.54684 22.0017 8.54072 22.006 8.53459C22.0103 8.52846 22.0146 8.52233 22.0189 8.5162C22.0232 8.51006 22.0275 8.50392 22.0318 8.49778C22.0361 8.49164 22.0404 8.48549 22.0447 8.47934C22.049 8.47319 22.0533 8.46704 22.0576 8.46088C22.0619 8.45472 22.0662 8.44856 22.0705 8.44239C22.0748 8.43623 22.0792 8.43006 22.0835 8.42389C22.0878 8.41771 22.0921 8.41154 22.0964 8.40536C22.1008 8.39918 22.1051 8.39299 22.1094 8.38681C22.1138 8.38062 22.1181 8.37443 22.1224 8.36823C22.1268 8.36204 22.1311 8.35584 22.1354 8.34964C22.1398 8.34344 22.1441 8.33724 22.1485 8.33103C22.1528 8.32482 22.1572 8.31861 22.1615 8.31239C22.1659 8.30618 22.1702 8.29996 22.1746 8.29374C22.1789 8.28751 22.1833 8.28129 22.1876 8.27506C22.192 8.26883 22.1964 8.2626 22.2007 8.25636C22.2051 8.25013 22.2094 8.24389 22.2138 8.23765C22.2182 8.23141 22.2226 8.22516 22.2269 8.21891C22.2313 8.21266 22.2357 8.20641 22.2401 8.20016C22.2444 8.1939 22.2488 8.18765 22.2532 8.18138C22.2576 8.17512 22.262 8.16886 22.2663 8.16259C22.2707 8.15632 22.2751 8.15005 22.2795 8.14378C22.2839 8.13751 22.2883 8.13123 22.2927 8.12495C22.2971 8.11867 22.3015 8.11239 22.3059 8.1061C22.3103 8.09981 22.3147 8.09353 22.3191 8.08723C22.3235 8.08094 22.3279 8.07465 22.3323 8.06835C22.3367 8.06205 22.3411 8.05575 22.3455 8.04945C22.3499 8.04314 22.3544 8.03684 22.3588 8.03053C22.3632 8.02422 22.3676 8.01791 22.372 8.01159C22.3764 8.00528 22.3809 7.99896 22.3853 7.99264C22.3897 7.98632 22.3941 7.97999 22.3986 7.97367C22.403 7.96734 22.4074 7.96101 22.4118 7.95468C22.4163 7.94835 22.4207 7.94201 22.4251 7.93568C22.4296 7.92934 22.434 7.923 22.4385 7.91666C22.4429 7.91032 22.4473 7.90397 22.4518 7.89762C22.4562 7.89128 22.4607 7.88493 22.4651 7.87857C22.4696 7.87222 22.474 7.86586 22.4785 7.85951C22.4829 7.85315 22.4874 7.84679 22.4918 7.84043C22.4963 7.83406 22.5007 7.8277 22.5052 7.82133C22.5096 7.81496 22.5141 7.80859 22.5185 7.80222C22.523 7.79585 22.5275 7.78947 22.5319 7.78309C22.5364 7.77672 22.5409 7.77034 22.5453 7.76395C22.5498 7.75757 22.5543 7.75119 22.5587 7.7448C22.5632 7.73841 22.5677 7.73202 22.5721 7.72563C22.5766 7.71924 22.5811 7.71285 22.5856 7.70645C22.59 7.70006 22.5945 7.69366 22.599 7.68726C22.6035 7.68086 22.608 7.67446 22.6124 7.66805C22.6169 7.66165 22.6214 7.65524 22.6259 7.64883C22.6304 7.64242 22.6349 7.63601 22.6394 7.6296C22.6438 7.62319 22.6483 7.61677 22.6528 7.61035C22.6573 7.60394 22.6618 7.59752 22.6663 7.5911C22.6708 7.58467 22.6753 7.57825 22.6798 7.57183C22.6843 7.5654 22.6888 7.55897 22.6933 7.55254C22.6978 7.54612 22.7023 7.53968 22.7068 7.53325C22.7113 7.52682 22.7158 7.52038 22.7203 7.51395C22.7248 7.50751 22.7293 7.50107 22.7338 7.49463C22.7383 7.48819 22.7428 7.48175 22.7473 7.47531C22.7518 7.46886 22.7564 7.46242 22.7609 7.45597C22.7654 7.44952 22.7699 7.44307 22.7744 7.43662C22.7789 7.43017 22.7834 7.42372 22.788 7.41727C22.7925 7.41081 22.797 7.40436 22.8015 7.3979C22.806 7.39144 22.8105 7.38498 22.8151 7.37852C22.8196 7.37206 22.8241 7.3656 22.8286 7.35913C22.8332 7.35267 22.8377 7.34621 22.8422 7.33974C22.8467 7.33327 22.8513 7.3268 22.8558 7.32033C22.8603 7.31386 22.8648 7.30739 22.8694 7.30092C22.8739 7.29445 22.8784 7.28797 22.883 7.2815C22.8875 7.27502 22.892 7.26854 22.8966 7.26207C22.9011 7.25559 22.9056 7.24911 22.9102 7.24263C22.9147 7.23615 22.9192 7.22966 22.9238 7.22318C22.9283 7.2167 22.9329 7.21021 22.9374 7.20373C22.9419 7.19724 22.9465 7.19075 22.951 7.18426C22.9556 7.17778 22.9601 7.17129 22.9646 7.16479C22.9692 7.1583 22.9737 7.15181 22.9783 7.14532C22.9828 7.13882 22.9874 7.13233 22.9919 7.12583C22.9965 7.11934 23.001 7.11284 23.0056 7.10635C23.0101 7.09985 23.0146 7.09335 23.0192 7.08685C23.0237 7.08035 23.0283 7.07385 23.0328 7.06735C23.0374 7.06084 23.0419 7.05434 23.0465 7.04784C23.051 7.04133 23.0556 7.03483 23.0602 7.02832C23.0647 7.02182 23.0693 7.01531 23.0738 7.0088C23.0784 7.0023 23.0829 6.99579 23.0875 6.98928C23.092 6.98277 23.0966 6.97626 23.1011 6.96975C23.1057 6.96324 23.1103 6.95673 23.1148 6.95022C23.1194 6.9437 23.1239 6.93719 23.1285 6.93068C23.1331 6.92416 23.1376 6.91765 23.1422 6.91113C23.1467 6.90462 23.1513 6.8981 23.1559 6.89159C23.1604 6.88507 23.165 6.87855 23.1695 6.87203C23.1741 6.86552 23.1787 6.859 23.1832 6.85248C23.1878 6.84596 23.1923 6.83944 23.1969 6.83292C23.2015 6.8264 23.206 6.81988 23.2106 6.81336C23.2152 6.80684 23.2197 6.80032 23.2243 6.79379C23.2289 6.78727 23.2334 6.78075 23.238 6.77423C23.2425 6.7677 23.2471 6.76118 23.2517 6.75466C23.2562 6.74813 23.2608 6.74161 23.2654 6.73508C23.2699 6.72856 23.2745 6.72204 23.2791 6.71551C23.2836 6.70899 23.2882 6.70246 23.2928 6.69593C23.2973 6.68941 23.3019 6.68288 23.3065 6.67636C23.311 6.66983 23.3156 6.6633 23.3202 6.65678C23.3247 6.65025 23.3293 6.64372 23.3339 6.6372C23.3385 6.63067 23.343 6.62414 23.3476 6.61761C23.3522 6.61109 23.3567 6.60456 23.3613 6.59803C23.3659 6.5915 23.3704 6.58498 23.375 6.57845C23.3796 6.57192 23.3841 6.56539 23.3887 6.55887C23.3933 6.55234 23.3978 6.54581 23.4024 6.53928C23.407 6.53275 23.4115 6.52623 23.4161 6.5197C23.4207 6.51317 23.4253 6.50664 23.4298 6.50012C23.4344 6.49359 23.439 6.48706 23.4435 6.48054C23.4481 6.47401 23.4527 6.46748 23.4572 6.46095C23.4618 6.45443 23.4664 6.4479 23.4709 6.44137C23.4755 6.43485 23.4801 6.42832 23.4846 6.42179C23.4892 6.41527 23.4938 6.40874 23.4983 6.40222C23.5029 6.39569 23.5075 6.38917 23.512 6.38264C23.5166 6.37612 23.5212 6.36959 23.5257 6.36307C23.5303 6.35654 23.5349 6.35002 23.5394 6.3435C23.544 6.33697 23.5486 6.33045 23.5531 6.32393C23.5577 6.3174 23.5623 6.31088 23.5668 6.30436C23.5714 6.29784 23.5759 6.29132 23.5805 6.2848C23.5851 6.27828 23.5896 6.27176 23.5942 6.26524C23.5988 6.25872 23.6033 6.2522 23.6079 6.24568C23.6124 6.23916 23.617 6.23264 23.6216 6.22613C23.6261 6.21961 23.6307 6.21309 23.6353 6.20658C23.6398 6.20006 23.6444 6.19355 23.6489 6.18703C23.6535 6.18052 23.658 6.174 23.6626 6.16749C23.6672 6.16098 23.6717 6.15446 23.6763 6.14795C23.6808 6.14144 23.6854 6.13493 23.69 6.12842C23.6945 6.12191 23.6991 6.1154 23.7036 6.10889C23.7082 6.10238 23.7127 6.09587 23.7173 6.08937C23.7218 6.08286 23.7264 6.07636 23.7309 6.06985C23.7355 6.06335 23.74 6.05684 23.7446 6.05034C23.7491 6.04384 23.7537 6.03733 23.7582 6.03083C23.7628 6.02433 23.7673 6.01783 23.7719 6.01133C23.7764 6.00483 23.781 5.99834 23.7855 5.99184C23.7901 5.98534 23.7946 5.97885 23.7992 5.97235C23.8037 5.96586 23.8083 5.95936 23.8128 5.95287C23.8174 5.94638 23.8219 5.93989 23.8264 5.9334C23.831 5.92691 23.8355 5.92042 23.8401 5.91393C23.8446 5.90744 23.8491 5.90096 23.8537 5.89447C23.8582 5.88799 23.8628 5.8815 23.8673 5.87502C23.8718 5.86854 23.8764 5.86206 23.8809 5.85558C23.8854 5.8491 23.89 5.84262 23.8945 5.83614C23.899 5.82966 23.9036 5.82319 23.9081 5.81671C23.9126 5.81024 23.9172 5.80377 23.9217 5.79729C23.9262 5.79082 23.9307 5.78435 23.9353 5.77788C23.9398 5.77142 23.9443 5.76495 23.9488 5.75848C23.9534 5.75202 23.9579 5.74555 23.9624 5.73909C23.9669 5.73263 23.9715 5.72617 23.976 5.71971C23.9805 5.71325 23.985 5.70679 23.9895 5.70033C23.9941 5.69388 23.9986 5.68742 24.0031 5.68097C24.0076 5.67452 24.0121 5.66807 24.0166 5.66162C24.0212 5.65517 24.0257 5.64872 24.0302 5.64227C24.0347 5.63583 24.0392 5.62938 24.0437 5.62294C24.0482 5.6165 24.0527 5.61006 24.0572 5.60362C24.0617 5.59718 24.0662 5.59074 24.0707 5.58431C24.0752 5.57787 24.0798 5.57144 24.0843 5.56501C24.0888 5.55858 24.0933 5.55215 24.0978 5.54572C24.1022 5.53929 24.1067 5.53287 24.1112 5.52644C24.1157 5.52002 24.1202 5.5136 24.1247 5.50718C24.1292 5.50076 24.1337 5.49434 24.1382 5.48793C24.1427 5.48151 24.1472 5.4751 24.1517 5.46869C24.1562 5.46227 24.1606 5.45586 24.1651 5.44946C24.1696 5.44305 24.1741 5.43665 24.1786 5.43024C24.183 5.42384 24.1875 5.41744 24.192 5.41104C24.1965 5.40464 24.201 5.39825 24.2054 5.39185C24.2099 5.38546 24.2144 5.37907 24.2189 5.37268C24.2233 5.36629 24.2278 5.3599 24.2323 5.35351C24.2367 5.34713 24.2412 5.34075 24.2457 5.33437C24.2501 5.32799 24.2546 5.32161 24.2591 5.31523C24.2635 5.30886 24.268 5.30248 24.2724 5.29611C24.2769 5.28974 24.2814 5.28337 24.2858 5.27701C24.2903 5.27064 24.2947 5.26428 24.2992 5.25792C24.3036 5.25156 24.3081 5.2452 24.3125 5.23884C24.317 5.23249 24.3214 5.22613 24.3259 5.21978C24.3303 5.21343 24.3347 5.20708 24.3392 5.20074C24.3436 5.19439 24.3481 5.18805 24.3525 5.18171C24.3569 5.17537 24.3614 5.16903 24.3658 5.1627C24.3702 5.15636 24.3747 5.15003 24.3791 5.1437C24.3835 5.13737 24.388 5.13104 24.3924 5.12472C24.3968 5.11839 24.4012 5.11207 24.4057 5.10575C24.4101 5.09944 24.4145 5.09312 24.4189 5.08681C24.4233 5.08049 24.4278 5.07418 24.4322 5.06788C24.4366 5.06157 24.441 5.05527 24.4454 5.04896C24.4498 5.04266 24.4542 5.03636 24.4586 5.03007C24.463 5.02377 24.4674 5.01748 24.4718 5.01119C24.4762 5.0049 24.4806 4.99862 24.485 4.99233C24.4894 4.98605 24.4938 4.97977 24.4982 4.97349C24.5026 4.96721 24.507 4.96094 24.5114 4.95467C24.5158 4.9484 24.5202 4.94213 24.5246 4.93586C24.5289 4.9296 24.5333 4.92334 24.5377 4.91708C24.5421 4.91082 24.5465 4.90456 24.5508 4.89831C24.5552 4.89206 24.5596 4.88581 24.564 4.87956C24.5683 4.87332 24.5727 4.86707 24.5771 4.86083C24.5814 4.8546 24.5858 4.84836 24.5902 4.84213C24.5945 4.83589 24.5989 4.82966 24.6032 4.82344C24.6076 4.81721 24.6119 4.81099 24.6163 4.80477C24.6207 4.79855 24.625 4.79234 24.6294 4.78612C24.6337 4.77991 24.638 4.7737 24.6424 4.7675C24.6467 4.76129 24.6511 4.75509 24.6554 4.74889C24.6597 4.74269 24.6641 4.7365 24.6684 4.7303C24.6727 4.72411 24.6771 4.71793 24.6814 4.71174C24.6857 4.70556 24.6901 4.69938 24.6944 4.6932C24.6987 4.68702 24.703 4.68085 24.7073 4.67468C24.7117 4.66851 24.716 4.66234 24.7203 4.65618C24.7246 4.65002 24.7289 4.64386 24.7332 4.6377C24.7375 4.63155 24.7418 4.6254 24.7461 4.61925C24.7504 4.6131 24.7547 4.60696 24.759 4.60082C24.7633 4.59468 24.7676 4.58854 24.7719 4.58241C24.7762 4.57628 24.7805 4.57015 24.7848 4.56403C24.7891 4.5579 24.7934 4.55178 24.7976 4.54566C24.8019 4.53955 24.8062 4.53343 24.8105 4.52733C24.8147 4.52122 24.819 4.51511 24.8233 4.50901C24.8276 4.50291 24.8318 4.49681 24.8361 4.49072C24.8404 4.48463 24.8446 4.47854 24.8489 4.47245C24.8531 4.46637 24.8574 4.46029 24.8616 4.45421C24.8659 4.44814 24.8701 4.44206 24.8744 4.43599C24.8786 4.42993 24.8829 4.42386 24.8871 4.4178C24.8914 4.41174 24.8956 4.40569 24.8998 4.39964C24.9041 4.39358 24.9083 4.38754 24.9125 4.38149C24.9168 4.37545 24.921 4.36941 24.9252 4.36338C24.9294 4.35734 24.9337 4.35131 24.9379 4.34529L24.1186 3.77191C24.1144 3.77794 24.1101 3.78397 24.1059 3.79C24.1017 3.79603 24.0975 3.80207 24.0932 3.80812C24.089 3.81416 24.0848 3.82021 24.0805 3.82626C24.0763 3.83231 24.0721 3.83836 24.0678 3.84442C24.0636 3.85048 24.0593 3.85655 24.0551 3.86262C24.0509 3.86869 24.0466 3.87476 24.0423 3.88083C24.0381 3.88691 24.0338 3.89299 24.0296 3.89908C24.0253 3.90516 24.0211 3.91125 24.0168 3.91734C24.0125 3.92343 24.0083 3.92953 24.004 3.93563C23.9997 3.94173 23.9955 3.94784 23.9912 3.95395C23.9869 3.96006 23.9826 3.96617 23.9783 3.97229C23.9741 3.9784 23.9698 3.98452 23.9655 3.99065C23.9612 3.99677 23.9569 4.0029 23.9526 4.00903C23.9483 4.01516 23.944 4.0213 23.9397 4.02744C23.9354 4.03358 23.9311 4.03972 23.9268 4.04587C23.9225 4.05202 23.9182 4.05817 23.9139 4.06433C23.9096 4.07048 23.9053 4.07664 23.901 4.0828C23.8967 4.08896 23.8924 4.09513 23.8881 4.1013C23.8837 4.10747 23.8794 4.11364 23.8751 4.11982C23.8708 4.126 23.8664 4.13218 23.8621 4.13836C23.8578 4.14455 23.8535 4.15074 23.8491 4.15693C23.8448 4.16312 23.8405 4.16931 23.8361 4.17551C23.8318 4.18171 23.8274 4.18791 23.8231 4.19412C23.8188 4.20032 23.8144 4.20653 23.8101 4.21274C23.8057 4.21896 23.8014 4.22517 23.797 4.23139C23.7927 4.23761 23.7883 4.24383 23.7839 4.25006C23.7796 4.25629 23.7752 4.26252 23.7709 4.26875C23.7665 4.27498 23.7621 4.28122 23.7578 4.28746C23.7534 4.2937 23.749 4.29994 23.7447 4.30618C23.7403 4.31243 23.7359 4.31868 23.7315 4.32493C23.7272 4.33118 23.7228 4.33744 23.7184 4.3437C23.714 4.34996 23.7097 4.35622 23.7053 4.36248C23.7009 4.36875 23.6965 4.37502 23.6921 4.38129C23.6877 4.38756 23.6833 4.39383 23.6789 4.40011C23.6745 4.40639 23.6701 4.41267 23.6657 4.41895C23.6613 4.42524 23.6569 4.43152 23.6525 4.43781C23.6481 4.4441 23.6437 4.4504 23.6393 4.45669C23.6349 4.46299 23.6305 4.46928 23.6261 4.47559C23.6217 4.48189 23.6173 4.48819 23.6129 4.4945C23.6085 4.50081 23.604 4.50712 23.5996 4.51343C23.5952 4.51974 23.5908 4.52606 23.5864 4.53238C23.5819 4.53869 23.5775 4.54502 23.5731 4.55134C23.5687 4.55766 23.5642 4.56399 23.5598 4.57032C23.5554 4.57665 23.551 4.58298 23.5465 4.58932C23.5421 4.59565 23.5376 4.60199 23.5332 4.60833C23.5288 4.61467 23.5243 4.62101 23.5199 4.62736C23.5155 4.6337 23.511 4.64005 23.5066 4.6464C23.5021 4.65275 23.4977 4.65911 23.4932 4.66546C23.4888 4.67182 23.4843 4.67818 23.4799 4.68454C23.4754 4.6909 23.471 4.69726 23.4665 4.70363C23.4621 4.70999 23.4576 4.71636 23.4531 4.72273C23.4487 4.7291 23.4442 4.73548 23.4398 4.74185C23.4353 4.74823 23.4308 4.75461 23.4264 4.76099C23.4219 4.76737 23.4174 4.77375 23.413 4.78014C23.4085 4.78652 23.404 4.79291 23.3996 4.7993C23.3951 4.80569 23.3906 4.81208 23.3861 4.81847C23.3817 4.82487 23.3772 4.83126 23.3727 4.83766C23.3682 4.84406 23.3638 4.85046 23.3593 4.85686C23.3548 4.86327 23.3503 4.86967 23.3458 4.87608C23.3413 4.88249 23.3369 4.8889 23.3324 4.89531C23.3279 4.90172 23.3234 4.90813 23.3189 4.91455C23.3144 4.92096 23.3099 4.92738 23.3054 4.9338C23.3009 4.94022 23.2964 4.94664 23.292 4.95307C23.2875 4.95949 23.283 4.96591 23.2785 4.97234C23.274 4.97877 23.2695 4.9852 23.265 4.99163C23.2605 4.99806 23.256 5.0045 23.2515 5.01093C23.247 5.01737 23.2424 5.0238 23.2379 5.03024C23.2334 5.03668 23.2289 5.04312 23.2244 5.04956C23.2199 5.05601 23.2154 5.06245 23.2109 5.0689C23.2064 5.07534 23.2019 5.08179 23.1973 5.08824C23.1928 5.09469 23.1883 5.10114 23.1838 5.10759C23.1793 5.11405 23.1748 5.1205 23.1703 5.12696C23.1657 5.13341 23.1612 5.13987 23.1567 5.14633C23.1522 5.15279 23.1477 5.15925 23.1431 5.16571C23.1386 5.17217 23.1341 5.17864 23.1296 5.1851C23.125 5.19157 23.1205 5.19804 23.116 5.20451C23.1115 5.21097 23.1069 5.21744 23.1024 5.22392C23.0979 5.23039 23.0933 5.23686 23.0888 5.24333C23.0843 5.24981 23.0797 5.25629 23.0752 5.26276C23.0707 5.26924 23.0661 5.27572 23.0616 5.2822C23.0571 5.28868 23.0525 5.29516 23.048 5.30164C23.0435 5.30812 23.0389 5.31461 23.0344 5.32109C23.0298 5.32758 23.0253 5.33407 23.0208 5.34055C23.0162 5.34704 23.0117 5.35353 23.0071 5.36002C23.0026 5.36651 22.9981 5.373 22.9935 5.37949C22.989 5.38599 22.9844 5.39248 22.9799 5.39897C22.9753 5.40547 22.9708 5.41196 22.9662 5.41846C22.9617 5.42496 22.9572 5.43146 22.9526 5.43795C22.9481 5.44445 22.9435 5.45095 22.939 5.45745C22.9344 5.46396 22.9299 5.47046 22.9253 5.47696C22.9208 5.48346 22.9162 5.48997 22.9116 5.49647C22.9071 5.50298 22.9025 5.50948 22.898 5.51599C22.8934 5.5225 22.8889 5.529 22.8843 5.53551C22.8798 5.54202 22.8752 5.54853 22.8707 5.55504C22.8661 5.56155 22.8615 5.56806 22.857 5.57457C22.8524 5.58108 22.8479 5.5876 22.8433 5.59411C22.8388 5.60062 22.8342 5.60714 22.8296 5.61365C22.8251 5.62017 22.8205 5.62668 22.816 5.6332C22.8114 5.63971 22.8068 5.64623 22.8023 5.65275C22.7977 5.65927 22.7932 5.66578 22.7886 5.6723C22.784 5.67882 22.7795 5.68534 22.7749 5.69186C22.7703 5.69838 22.7658 5.7049 22.7612 5.71142C22.7567 5.71794 22.7521 5.72446 22.7475 5.73098C22.743 5.7375 22.7384 5.74403 22.7338 5.75055C22.7293 5.75707 22.7247 5.76359 22.7201 5.77012C22.7156 5.77664 22.711 5.78317 22.7064 5.78969C22.7019 5.79621 22.6973 5.80274 22.6927 5.80926C22.6882 5.81579 22.6836 5.82231 22.679 5.82884C22.6745 5.83537 22.6699 5.84189 22.6653 5.84842C22.6608 5.85494 22.6562 5.86147 22.6516 5.868C22.6471 5.87452 22.6425 5.88105 22.6379 5.88758C22.6334 5.8941 22.6288 5.90063 22.6242 5.90716C22.6197 5.91368 22.6151 5.92021 22.6105 5.92674C22.606 5.93327 22.6014 5.93979 22.5968 5.94632C22.5923 5.95285 22.5877 5.95938 22.5831 5.9659C22.5785 5.97243 22.574 5.97896 22.5694 5.98549C22.5648 5.99202 22.5603 5.99854 22.5557 6.00507C22.5511 6.0116 22.5466 6.01813 22.542 6.02465C22.5374 6.03118 22.5329 6.03771 22.5283 6.04424C22.5237 6.05076 22.5192 6.05729 22.5146 6.06382C22.51 6.07034 22.5055 6.07687 22.5009 6.0834C22.4963 6.08992 22.4918 6.09645 22.4872 6.10298C22.4826 6.1095 22.4781 6.11603 22.4735 6.12256C22.4689 6.12908 22.4644 6.13561 22.4598 6.14213C22.4552 6.14866 22.4507 6.15518 22.4461 6.16171C22.4415 6.16823 22.437 6.17475 22.4324 6.18128C22.4278 6.1878 22.4233 6.19433 22.4187 6.20085C22.4141 6.20737 22.4096 6.21389 22.405 6.22042C22.4004 6.22694 22.3959 6.23346 22.3913 6.23998C22.3867 6.2465 22.3822 6.25302 22.3776 6.25954C22.3731 6.26606 22.3685 6.27258 22.3639 6.2791C22.3594 6.28562 22.3548 6.29214 22.3502 6.29866C22.3457 6.30517 22.3411 6.31169 22.3366 6.31821C22.332 6.32472 22.3274 6.33124 22.3229 6.33776C22.3183 6.34427 22.3138 6.35079 22.3092 6.3573C22.3046 6.36381 22.3001 6.37033 22.2955 6.37684C22.291 6.38335 22.2864 6.38986 22.2819 6.39637C22.2773 6.40288 22.2727 6.40939 22.2682 6.4159C22.2636 6.42241 22.2591 6.42892 22.2545 6.43543C22.25 6.44193 22.2454 6.44844 22.2409 6.45495C22.2363 6.46145 22.2318 6.46796 22.2272 6.47446C22.2227 6.48096 22.2181 6.48747 22.2136 6.49397C22.209 6.50047 22.2045 6.50697 22.1999 6.51347C22.1954 6.51997 22.1908 6.52647 22.1863 6.53297C22.1817 6.53946 22.1772 6.54596 22.1726 6.55246C22.1681 6.55895 22.1635 6.56545 22.159 6.57194C22.1544 6.57843 22.1499 6.58493 22.1454 6.59142C22.1408 6.59791 22.1363 6.6044 22.1317 6.61089C22.1272 6.61737 22.1226 6.62386 22.1181 6.63035C22.1136 6.63683 22.109 6.64332 22.1045 6.6498C22.1 6.65629 22.0954 6.66277 22.0909 6.66925C22.0863 6.67573 22.0818 6.68221 22.0773 6.68869C22.0727 6.69517 22.0682 6.70164 22.0637 6.70812C22.0591 6.71459 22.0546 6.72107 22.0501 6.72754C22.0456 6.73401 22.041 6.74049 22.0365 6.74696C22.032 6.75342 22.0274 6.75989 22.0229 6.76636C22.0184 6.77283 22.0139 6.77929 22.0093 6.78576C22.0048 6.79222 22.0003 6.79868 21.9958 6.80514C21.9913 6.8116 21.9867 6.81806 21.9822 6.82452C21.9777 6.83098 21.9732 6.83743 21.9687 6.84389C21.9641 6.85034 21.9596 6.85679 21.9551 6.86324C21.9506 6.86969 21.9461 6.87614 21.9416 6.88259C21.9371 6.88904 21.9326 6.89548 21.928 6.90193C21.9235 6.90837 21.919 6.91481 21.9145 6.92125C21.91 6.92769 21.9055 6.93413 21.901 6.94057C21.8965 6.94701 21.892 6.95344 21.8875 6.95987C21.883 6.96631 21.8785 6.97274 21.874 6.97917C21.8695 6.9856 21.865 6.99202 21.8605 6.99845C21.856 7.00487 21.8515 7.0113 21.847 7.01772C21.8425 7.02414 21.838 7.03056 21.8335 7.03697C21.829 7.04339 21.8246 7.04981 21.8201 7.05622C21.8156 7.06263 21.8111 7.06904 21.8066 7.07545C21.8021 7.08186 21.7976 7.08827 21.7932 7.09467C21.7887 7.10108 21.7842 7.10748 21.7797 7.11388C21.7752 7.12028 21.7708 7.12668 21.7663 7.13307C21.7618 7.13947 21.7573 7.14586 21.7529 7.15226C21.7484 7.15865 21.7439 7.16504 21.7394 7.17142C21.735 7.17781 21.7305 7.18419 21.726 7.19058C21.7216 7.19696 21.7171 7.20334 21.7126 7.20972C21.7082 7.21609 21.7037 7.22247 21.6993 7.22884C21.6948 7.23521 21.6903 7.24158 21.6859 7.24795C21.6814 7.25432 21.677 7.26068 21.6725 7.26705C21.6681 7.27341 21.6636 7.27977 21.6592 7.28613C21.6547 7.29249 21.6503 7.29884 21.6458 7.30519C21.6414 7.31155 21.6369 7.3179 21.6325 7.32424C21.628 7.33059 21.6236 7.33694 21.6192 7.34328C21.6147 7.34962 21.6103 7.35596 21.6059 7.3623C21.6014 7.36864 21.597 7.37497 21.5926 7.3813C21.5881 7.38763 21.5837 7.39396 21.5793 7.40029C21.5748 7.40662 21.5704 7.41294 21.566 7.41926C21.5616 7.42558 21.5571 7.4319 21.5527 7.43821C21.5483 7.44453 21.5439 7.45084 21.5395 7.45715C21.5351 7.46346 21.5306 7.46977 21.5262 7.47607C21.5218 7.48237 21.5174 7.48867 21.513 7.49497C21.5086 7.50127 21.5042 7.50756 21.4998 7.51386C21.4954 7.52015 21.491 7.52644 21.4866 7.53272C21.4822 7.53901 21.4778 7.54529 21.4734 7.55157C21.469 7.55785 21.4646 7.56413 21.4602 7.5704C21.4558 7.57668 21.4514 7.58295 21.4471 7.58921C21.4427 7.59548 21.4383 7.60175 21.4339 7.60801C21.4295 7.61427 21.4251 7.62053 21.4208 7.62678C21.4164 7.63304 21.412 7.63929 21.4076 7.64554C21.4033 7.65178 21.3989 7.65803 21.3945 7.66427C21.3902 7.67051 21.3858 7.67675 21.3814 7.68299C21.3771 7.68922 21.3727 7.69545 21.3683 7.70168C21.364 7.70791 21.3596 7.71414 21.3553 7.72036C21.3509 7.72658 21.3466 7.7328 21.3422 7.73901C21.3379 7.74523 21.3335 7.75144 21.3292 7.75765C21.3248 7.76386 21.3205 7.77006 21.3161 7.77626C21.3118 7.78246 21.3075 7.78866 21.3031 7.79486C21.2988 7.80105 21.2945 7.80724 21.2901 7.81343C21.2858 7.81962 21.2815 7.8258 21.2772 7.83198C21.2728 7.83816 21.2685 7.84434 21.2642 7.85051C21.2599 7.85668 21.2555 7.86285 21.2512 7.86902C21.2469 7.87518 21.2426 7.88134 21.2383 7.8875C21.234 7.89366 21.2297 7.89981 21.2254 7.90596C21.2211 7.91211 21.2168 7.91826 21.2125 7.9244C21.2082 7.93055 21.2039 7.93668 21.1996 7.94282C21.1953 7.94896 21.191 7.95509 21.1867 7.96121C21.1824 7.96734 21.1781 7.97347 21.1739 7.97959C21.1696 7.9857 21.1653 7.99182 21.161 7.99793C21.1567 8.00404 21.1525 8.01015 21.1482 8.01626C21.1439 8.02236 21.1396 8.02846 21.1354 8.03456C21.1311 8.04065 21.1268 8.04674 21.1226 8.05283C21.1183 8.05892 21.1141 8.065 21.1098 8.07108C21.1056 8.07716 21.1013 8.08324 21.0971 8.08931C21.0928 8.09538 21.0886 8.10145 21.0843 8.10751C21.0801 8.11357 21.0758 8.11963 21.0716 8.12569C21.0674 8.13174 21.0631 8.13779 21.0589 8.14384C21.0547 8.14989 21.0504 8.15593 21.0462 8.16197C21.042 8.168 21.0378 8.17404 21.0335 8.18007C21.0293 8.1861 21.0251 8.19212 21.0209 8.19814C21.0167 8.20416 21.0125 8.21018 21.0083 8.21619C21.0041 8.2222 20.9999 8.22821 20.9957 8.23421C20.9914 8.24021 20.9873 8.24621 20.9831 8.25221C20.9789 8.2582 20.9747 8.26419 20.9705 8.27018C20.9663 8.27616 20.9621 8.28214 20.9579 8.28812C20.9537 8.29409 20.9496 8.30006 20.9454 8.30603C20.9412 8.312 20.937 8.31796 20.9329 8.32392C20.9287 8.32987 20.9245 8.33583 20.9204 8.34178C20.9162 8.34772 20.912 8.35367 20.9079 8.35961C20.9037 8.36555 20.8996 8.37148 20.8954 8.37741C20.8913 8.38334 20.8871 8.38926 20.883 8.39518C20.8789 8.4011 20.8747 8.40702 20.8706 8.41293C20.8664 8.41884 20.8623 8.42475 20.8582 8.43065C20.854 8.43655 20.8499 8.44244 20.8458 8.44833C20.8417 8.45422 20.8376 8.46011 20.8334 8.46599C20.8293 8.47187 20.8252 8.47775 20.8211 8.48362C20.817 8.48949 20.8129 8.49536 20.8088 8.50122C20.8047 8.50708 20.8006 8.51294 20.7965 8.51879C20.7924 8.52464 20.7883 8.53049 20.7842 8.53633C20.7801 8.54217 20.776 8.54801 20.772 8.55384C20.7679 8.55967 20.7638 8.56549 20.7597 8.57131C20.7557 8.57713 20.7516 8.58295 20.7475 8.58876C20.7435 8.59457 20.7394 8.60038 20.7353 8.60618C20.7313 8.61198 20.7272 8.61777 20.7232 8.62356C20.7191 8.62935 20.7151 8.63513 20.711 8.64091C20.707 8.64669 20.7029 8.65247 20.6989 8.65823C20.6949 8.664 20.6908 8.66977 20.6868 8.67552C20.6828 8.68128 20.6787 8.68703 20.6747 8.69278C20.6707 8.69853 20.6667 8.70427 20.6627 8.71C20.6587 8.71574 20.6546 8.72147 20.6506 8.7272C20.6466 8.73292 20.6426 8.73864 20.6386 8.74435C20.6346 8.75007 20.6306 8.75578 20.6266 8.76148C20.6227 8.76718 20.6187 8.77288 20.6147 8.77857C20.6107 8.78426 20.6067 8.78995 20.6027 8.79563C20.5988 8.80131 20.5948 8.80699 20.5908 8.81265C20.5869 8.81832 20.5829 8.82399 20.5789 8.82965C20.575 8.8353 20.571 8.84096 20.5671 8.8466C20.5631 8.85225 20.5592 8.85789 20.5552 8.86352C20.5513 8.86916 20.5473 8.87479 20.5434 8.88041C20.5395 8.88603 20.5355 8.89165 20.5316 8.89726C20.5277 8.90287 20.5238 8.90848 20.5198 8.91408C20.5159 8.91968 20.512 8.92527 20.5081 8.93086C20.5042 8.93645 20.5003 8.94203 20.4964 8.94761C20.4925 8.95318 20.4886 8.95875 20.4847 8.96432C20.4808 8.96988 20.4769 8.97544 20.473 8.98099C20.4691 8.98654 20.4653 8.99209 20.4614 8.99763C20.4575 9.00317 20.4536 9.0087 20.4498 9.01423C20.4459 9.01976 20.442 9.02528 20.4382 9.0308C20.4343 9.03631 20.4304 9.04182 20.4266 9.04732C20.4227 9.05283 20.4189 9.05832 20.4151 9.06381C20.4112 9.0693 20.4074 9.07479 20.4035 9.08027C20.3997 9.08575 20.3959 9.09122 20.3921 9.09668C20.3882 9.10215 20.3844 9.10761 20.3806 9.11306C20.3768 9.11851 20.373 9.12396 20.3692 9.1294C20.3653 9.13484 20.3615 9.14027 20.3577 9.1457C20.3539 9.15113 20.3502 9.15655 20.3464 9.16196C20.3426 9.16738 20.3388 9.17279 20.335 9.17819C20.3312 9.18359 20.3275 9.18898 20.3237 9.19437C20.3199 9.19976 20.3161 9.20514 20.3124 9.21052C20.3086 9.21589 20.3049 9.22126 20.3011 9.22662C20.2974 9.23198 20.2936 9.23734 20.2899 9.24269C20.2861 9.24804 20.2824 9.25338 20.2787 9.25872C20.2749 9.26405 20.2712 9.26938 20.2675 9.2747C20.2637 9.28002 20.26 9.28534 20.2563 9.29065C20.2526 9.29596 20.2489 9.30126 20.2452 9.30655C20.2415 9.31185 20.2378 9.31714 20.2341 9.32242C20.2304 9.3277 20.2267 9.33297 20.223 9.33824C20.2193 9.34351 20.2156 9.34877 20.212 9.35402C20.2083 9.35928 20.2046 9.36453 20.2009 9.36977C20.1973 9.37501 20.1936 9.38024 20.1899 9.38547C20.1863 9.39069 20.1826 9.39591 20.179 9.40112C20.1753 9.40633 20.1717 9.41154 20.1681 9.41674C20.1644 9.42194 20.1608 9.42713 20.1572 9.43231C20.1535 9.43749 20.1499 9.44267 20.1463 9.44784C20.1427 9.45301 20.1391 9.45817 20.1355 9.46333C20.1318 9.46848 20.1282 9.47363 20.1246 9.47877C20.1211 9.48391 20.1175 9.48905 20.1139 9.49417C20.1103 9.4993 20.1067 9.50442 20.1031 9.50953C20.0995 9.51464 20.096 9.51975 20.0924 9.52485C20.0888 9.52994 20.0853 9.53503 20.0817 9.54012C20.0782 9.5452 20.0746 9.55027 20.0711 9.55534C20.0675 9.56041 20.064 9.56547 20.0604 9.57052C20.0569 9.57558 20.0534 9.58062 20.0498 9.58566C20.0463 9.5907 20.0428 9.59573 20.0393 9.60075C20.0358 9.60577 20.0323 9.61079 20.0288 9.6158C20.0252 9.62081 20.0217 9.62581 20.0183 9.6308C20.0148 9.63579 20.0113 9.64078 20.0078 9.64576C20.0043 9.65073 20.0008 9.6557 19.9974 9.66067C19.9939 9.66563 19.9904 9.67058 19.9869 9.67553C19.9835 9.68048 19.98 9.68542 19.9766 9.69035C19.9731 9.69528 19.9697 9.7002 19.9662 9.70512C19.9628 9.71004 19.9594 9.71495 19.9559 9.71985C19.9525 9.72475 19.9491 9.72964 19.9457 9.73452C19.9422 9.73941 19.9388 9.74429 19.9354 9.74916C19.932 9.75402 19.9286 9.75889 19.9252 9.76374C19.9218 9.76859 19.9184 9.77344 19.915 9.77828C19.9117 9.78311 19.9083 9.78794 19.9049 9.79276C19.9015 9.79759 19.8982 9.8024 19.8948 9.8072C19.8914 9.81201 19.8881 9.81681 19.8847 9.8216C19.8814 9.82639 19.878 9.83117 19.8747 9.83594C19.8713 9.84071 19.868 9.84548 19.8647 9.85024C19.8614 9.85499 19.858 9.85974 19.8547 9.86448C19.8514 9.86922 19.8481 9.87396 19.8448 9.87868C19.8415 9.8834 19.8382 9.88812 19.8349 9.89283C19.8316 9.89753 19.8283 9.90223 19.825 9.90693C19.8217 9.91162 19.8184 9.9163 19.8152 9.92097C19.8119 9.92565 19.8086 9.93031 19.8054 9.93497C19.8021 9.93963 19.7989 9.94428 19.7956 9.94892C19.7924 9.95356 19.7891 9.95819 19.7859 9.96282C19.7827 9.96744 19.7794 9.97206 19.7762 9.97667C19.773 9.98127 19.7698 9.98587 19.7665 9.99046C19.7633 9.99505 19.7601 9.99963 19.7569 10.0042C19.7537 10.0088 19.7505 10.0133 19.7473 10.0179C19.7442 10.0225 19.741 10.027 19.7378 10.0315C19.7346 10.0361 19.7314 10.0406 19.7283 10.0451C19.7251 10.0497 19.722 10.0542 19.7188 10.0587C19.7157 10.0632 19.7125 10.0677 19.7094 10.0722C19.7062 10.0766 19.7031 10.0811 19.7 10.0856C19.6968 10.0901 19.6937 10.0945 19.6906 10.099C19.6875 10.1034 19.6844 10.1079 19.6813 10.1123C19.6782 10.1167 19.6751 10.1212 19.672 10.1256C19.6689 10.13 19.6658 10.1344 19.6627 10.1388C19.6597 10.1432 19.6566 10.1476 19.6535 10.152C19.6505 10.1563 19.6474 10.1607 19.6443 10.1651C19.6413 10.1694 19.6382 10.1738 19.6352 10.1781C19.6322 10.1825 19.6291 10.1868 19.6261 10.1911C19.6231 10.1955 19.6201 10.1998 19.617 10.2041C19.614 10.2084 19.611 10.2127 19.608 10.217C19.605 10.2213 19.602 10.2256 19.599 10.2298C19.596 10.2341 19.5931 10.2384 19.5901 10.2426C19.5871 10.2469 19.5841 10.2511 19.5812 10.2553C19.5782 10.2596 19.5752 10.2638 19.5723 10.268C19.5693 10.2722 19.5664 10.2764 19.5635 10.2806C19.5605 10.2848 19.5576 10.289 19.5547 10.2932C19.5517 10.2974 19.5488 10.3015 19.5459 10.3057C19.543 10.3099 19.5401 10.314 19.5372 10.3182C19.5343 10.3223 19.5314 10.3264 19.5285 10.3306C19.5256 10.3347 19.5228 10.3388 19.5199 10.3429C19.517 10.347 19.5142 10.3511 19.5113 10.3552C19.5084 10.3593 19.5056 10.3633 19.5028 10.3674C19.4999 10.3715 19.4971 10.3755 19.4942 10.3796C19.4914 10.3836 19.4886 10.3876 19.4858 10.3917C19.483 10.3957 19.4801 10.3997 19.4773 10.4037C19.4745 10.4077 19.4717 10.4117 19.4689 10.4157C19.4662 10.4197 19.4634 10.4237 19.4606 10.4276C19.4578 10.4316 19.455 10.4356 19.4523 10.4395C19.4495 10.4434 19.4468 10.4474 19.444 10.4513C19.4413 10.4552 19.4385 10.4592 19.4358 10.4631C19.4331 10.467 19.4303 10.4709 19.4276 10.4748C19.4249 10.4786 19.4222 10.4825 19.4195 10.4864C19.4168 10.4903 19.4141 10.4941 19.4114 10.498C19.4087 10.5018 19.406 10.5057 19.4033 10.5095C19.4006 10.5133 19.398 10.5171 19.3953 10.5209C19.3926 10.5247 19.39 10.5285 19.3873 10.5323C19.3847 10.5361 19.382 10.5399 19.3794 10.5437C19.3767 10.5474 19.3741 10.5512 19.3715 10.5549C19.3689 10.5587 19.3663 10.5624 19.3637 10.5661C19.361 10.5699 19.3584 10.5736 19.3558 10.5773C19.3533 10.581 19.3507 10.5847 19.3481 10.5884C19.3455 10.5921 19.3429 10.5957 19.3404 10.5994C19.3378 10.6031 19.3353 10.6067 19.3327 10.6104C19.3301 10.614 19.3276 10.6177 19.3251 10.6213C19.3225 10.6249 19.32 10.6285 19.3175 10.6321C19.315 10.6357 19.3125 10.6393 19.3099 10.6429C19.3074 10.6465 19.3049 10.65 19.3024 10.6536C19.3 10.6572 19.2975 10.6607 19.295 10.6643C19.2925 10.6678 19.29 10.6713 19.2876 10.6748C19.2851 10.6784 19.2827 10.6819 19.2802 10.6854C19.2778 10.6889 19.2753 10.6923 19.2729 10.6958C19.2705 10.6993 19.268 10.7028 19.2656 10.7062C19.2632 10.7097 19.2608 10.7131 19.2584 10.7165C19.256 10.72 19.2536 10.7234 19.2512 10.7268C19.2488 10.7302 19.2465 10.7336 19.2441 10.737C19.2417 10.7404 19.2393 10.7438 19.237 10.7471C19.2346 10.7505 19.2323 10.7539 19.2299 10.7572C19.2276 10.7606 19.2253 10.7639 19.2229 10.7672C19.2206 10.7705 19.2183 10.7738 19.216 10.7771C19.2137 10.7805 19.2114 10.7837 19.2091 10.787C19.2068 10.7903 19.2045 10.7936 19.2022 10.7968C19.1999 10.8001 19.1977 10.8033 19.1954 10.8066C19.1931 10.8098 19.1909 10.813 19.1886 10.8162C19.1864 10.8195 19.1841 10.8227 19.1819 10.8258C19.1797 10.829 19.1774 10.8322 19.1752 10.8354C19.173 10.8386 19.1708 10.8417 19.1686 10.8449C19.1664 10.848 19.1642 10.8511 19.162 10.8543C19.1598 10.8574 19.1577 10.8605 19.1555 10.8636C19.1533 10.8667 19.1512 10.8698 19.149 10.8729C19.1468 10.8759 19.1447 10.879 19.1426 10.8821C19.1404 10.8851 19.1383 10.8882 19.1362 10.8912C19.134 10.8942 19.1319 10.8972 19.1298 10.9003C19.1277 10.9033 19.1256 10.9063 19.1235 10.9093C19.1214 10.9122 19.1194 10.9152 19.1173 10.9182C19.1152 10.9211 19.1131 10.9241 19.1111 10.927C19.109 10.93 19.107 10.9329 19.1049 10.9358C19.1029 10.9387 19.1009 10.9416 19.0988 10.9445C19.0968 10.9474 19.0948 10.9503 19.0928 10.9532C19.0908 10.956 19.0888 10.9589 19.0868 10.9618C19.0848 10.9646 19.0828 10.9674 19.0808 10.9703C19.0789 10.9731 19.0769 10.9759 19.0749 10.9787C19.073 10.9815 19.071 10.9843 19.0691 10.9871C19.0671 10.9898 19.0652 10.9926 19.0633 10.9953C19.0614 10.9981 19.0594 11.0008 19.0575 11.0036C19.0556 11.0063 19.0537 11.009 19.0518 11.0117C19.0499 11.0144 19.048 11.0171 19.0462 11.0198C19.0443 11.0225 19.0424 11.0251 19.0406 11.0278C19.0387 11.0305 19.0369 11.0331 19.035 11.0357C19.0332 11.0384 19.0313 11.041 19.0295 11.0436C19.0277 11.0462 19.0259 11.0488 19.0241 11.0514C19.0223 11.054 19.0205 11.0565 19.0187 11.0591C19.0169 11.0617 19.0151 11.0642 19.0133 11.0667C19.0115 11.0693 19.0098 11.0718 19.008 11.0743C19.0063 11.0768 19.0045 11.0793 19.0028 11.0818C19.001 11.0843 18.9993 11.0868 18.9976 11.0892C18.9959 11.0917 18.9941 11.0941 18.9924 11.0966C18.9907 11.099 18.989 11.1014 18.9874 11.1038C18.9857 11.1062 18.984 11.1086 18.9823 11.111C18.9806 11.1134 18.979 11.1158 18.9773 11.1182C18.9757 11.1205 18.974 11.1229 18.9724 11.1252C18.9708 11.1275 18.9691 11.1299 18.9675 11.1322C18.9659 11.1345 18.9643 11.1368 18.9627 11.1391C18.9611 11.1414 18.9595 11.1436 18.9579 11.1459C18.9563 11.1482 18.9548 11.1504 18.9532 11.1526C18.9516 11.1549 18.9501 11.1571 18.9485 11.1593C18.947 11.1615 18.9454 11.1637 18.9439 11.1659C18.9424 11.1681 18.9409 11.1703 18.9394 11.1724C18.9378 11.1746 18.9363 11.1767 18.9348 11.1789C18.9334 11.181 18.9319 11.1831 18.9304 11.1852C18.9289 11.1873 18.9275 11.1894 18.926 11.1915C18.9245 11.1936 18.9231 11.1957 18.9216 11.1977C18.9202 11.1998 18.9188 11.2018 18.9174 11.2038C18.9159 11.2059 18.9145 11.2079 18.9131 11.2099C18.9117 11.2119 18.9103 11.2139 18.9089 11.2159C18.9076 11.2179 18.9062 11.2198 18.9048 11.2218C18.9034 11.2237 18.9021 11.2257 18.9007 11.2276C18.8994 11.2295 18.8981 11.2314 18.8967 11.2333C18.8954 11.2352 18.8941 11.2371 18.8928 11.239C18.8915 11.2409 18.8902 11.2427 18.8889 11.2446C18.8876 11.2464 18.8863 11.2482 18.885 11.2501C18.8837 11.2519 18.8825 11.2537 18.8812 11.2555C18.88 11.2573 18.8787 11.2591 18.8775 11.2608C18.8762 11.2626 18.875 11.2644 18.8738 11.2661C18.8726 11.2678 18.8714 11.2696 18.8702 11.2713C18.869 11.273 18.8678 11.2747 18.8666 11.2764C18.8654 11.2781 18.8643 11.2797 18.8631 11.2814C18.8619 11.283 18.8608 11.2847 18.8596 11.2863C18.8585 11.288 18.8574 11.2896 18.8562 11.2912C18.8551 11.2928 18.854 11.2944 18.8529 11.296C18.8518 11.2975 18.8507 11.2991 18.8496 11.3007C18.8485 11.3022 18.8474 11.3037 18.8464 11.3053C18.8453 11.3068 18.8443 11.3083 18.8432 11.3098C18.8422 11.3113 18.8411 11.3128 18.8401 11.3142C18.8391 11.3157 18.8381 11.3172 18.837 11.3186C18.836 11.32 18.835 11.3215 18.8341 11.3229C18.8331 11.3243 18.8321 11.3257 18.8311 11.3271C18.8301 11.3285 18.8292 11.3298 18.8282 11.3312C18.8273 11.3326 18.8263 11.3339 18.8254 11.3352C18.8245 11.3366 18.8236 11.3379 18.8226 11.3392C18.8217 11.3405 18.8208 11.3418 18.8199 11.343C18.8191 11.3443 18.8182 11.3456 18.8173 11.3468C18.8164 11.3481 18.8156 11.3493 18.8147 11.3505C18.8139 11.3517 18.813 11.3529 18.8122 11.3541C18.8114 11.3553 18.8105 11.3565 18.8097 11.3577C18.8089 11.3588 18.8081 11.36 18.8073 11.3611C18.8065 11.3622 18.8057 11.3633 18.805 11.3644C18.8042 11.3656 18.8034 11.3666 18.8027 11.3677C18.8019 11.3688 18.8012 11.3699 18.8004 11.3709C18.7997 11.3719 18.799 11.373 18.7983 11.374C18.7976 11.375 18.7969 11.376 18.7962 11.377C18.7955 11.378 18.7948 11.379 18.7941 11.3799C18.7935 11.3809 18.7928 11.3818 18.7921 11.3828C18.7915 11.3837 18.7908 11.3846 18.7902 11.3855C18.7896 11.3864 18.789 11.3873 18.7884 11.3882C18.7877 11.3891 18.7871 11.3899 18.7865 11.3908C18.786 11.3916 18.7854 11.3924 18.7848 11.3933C18.7842 11.3941 18.7837 11.3949 18.7831 11.3957C18.7826 11.3964 18.782 11.3972 18.7815 11.398C18.781 11.3987 18.7805 11.3995 18.7799 11.4002C18.7794 11.4009 18.7789 11.4016 18.7785 11.4023C18.778 11.403 18.7775 11.4037 18.777 11.4044C18.7766 11.405 18.7761 11.4057 18.7756 11.4063L19.5949 11.9797ZM27.0263 3.97721L32.4631 7.78212L33.0365 6.96282L27.5997 3.15792L27.0263 3.97721ZM32.8319 9.87112L27.4896 17.5047L28.3089 18.0781L33.6512 10.4445L32.8319 9.87112ZM28.1859 17.3818L19.472 11.2834L18.8986 12.1027L27.6125 18.2011L28.1859 17.3818ZM19.2569 11.1982L8.77895 9.68146L8.63569 10.6711L19.1137 12.1879L19.2569 11.1982ZM18.9322 11.2618L12.9309 14.7846L13.4372 15.647L19.4384 12.1242L18.9322 11.2618ZM12.8302 17.3071L25.1949 25.9605L25.7683 25.1412L13.4036 16.4879L12.8302 17.3071ZM27.4588 18.0282L32.4723 27.3531L33.3531 26.8796L28.3396 17.5547L27.4588 18.0282ZM27.5442 24.9112L27.87 22.2092L26.8772 22.0894L26.5513 24.7914L27.5442 24.9112ZM27.87 22.2092L28.3956 17.8513L27.4028 17.7316L26.8772 22.0894L27.87 22.2092ZM12.9309 14.7846C11.9886 15.3378 11.935 16.6806 12.8302 17.3071L13.4036 16.4879C13.1052 16.279 13.1231 15.8314 13.4372 15.647L12.9309 14.7846ZM32.4631 7.78212C33.1418 8.25712 33.3069 9.1924 32.8319 9.87112L33.6512 10.4445C34.4429 9.31329 34.1677 7.75449 33.0365 6.96282L32.4631 7.78212ZM25.1949 25.9605C26.123 26.61 27.4085 26.0358 27.5442 24.9112L26.5513 24.7914C26.5061 25.1663 26.0776 25.3577 25.7683 25.1412L25.1949 25.9605ZM24.9379 4.34529C25.4127 3.66682 26.3473 3.50203 27.0263 3.97721L27.5997 3.15792C26.4687 2.36644 24.9104 2.64045 24.1186 3.77191L24.9379 4.34529Z" fill="url(#paint0_linear)"/>
<path d="M14.2799 20.6582L9.95096 22.8983M17.1797 23.8853L14.3811 28.9546M20.9067 26.0808L20.8446 28.5269L20.7826 30.9731" stroke="url(#paint1_linear)" stroke-linecap="round"/>
</g>
<defs>
<filter id="filter0_d" x="-5" y="-2" width="47" height="47" filterUnits="userSpaceOnUse" color-interpolation-filters="sRGB">
<feFlood flood-opacity="0" result="BackgroundImageFix"/>
<feColorMatrix in="SourceAlpha" type="matrix" values="0 0 0 0 0 0 0 0 0 0 0 0 0 0 0 0 0 0 127 0"/>
<feOffset dx="-2" dy="4"/>
<feGaussianBlur stdDeviation="3"/>
<feColorMatrix type="matrix" values="0 0 0 0 1 0 0 0 0 0.442688 0 0 0 0 0 0 0 0 0.5 0"/>
<feBlend mode="normal" in2="BackgroundImageFix" result="effect1_dropShadow"/>
<feBlend mode="normal" in="SourceGraphic" in2="effect1_dropShadow" result="shape"/>
</filter>
<linearGradient id="paint0_linear" x1="12.6298" y1="4.57157" x2="20.0297" y2="27.1917" gradientUnits="userSpaceOnUse">
<stop offset="0.000997827" stop-color="#E32A23"/>
<stop offset="1" stop-color="#FF7100"/>
</linearGradient>
<linearGradient id="paint1_linear" x1="10.1654" y1="26.1402" x2="19.174" y2="29.7908" gradientUnits="userSpaceOnUse">
<stop offset="0.000997827" stop-color="#E32A23"/>
<stop offset="1" stop-color="#FF7100"/>
</linearGradient>
<clipPath id="clip0">
<rect width="35" height="35" fill="white" transform="translate(3)"/>
</clipPath>
</defs>
</svg>
