<svg width="47" height="47" viewBox="0 0 47 47" fill="none" xmlns="http://www.w3.org/2000/svg">
<g filter="url(#filter0_d)">
<path d="M26.7988 2H11.7598C9.68663 2 8 3.68663 8 5.75977V33.2402C8 35.3134 9.68663 37 11.7598 37H26.7988C28.872 37 30.5586 35.3134 30.5586 33.2402V5.75977C30.5586 3.68663 28.872 2 26.7988 2ZM11.7598 3.74627H26.7988C27.7412 3.74627 29 4.81743 29 5.75977V15H9.5V5.75977C9.5 4.81743 10.8174 3.74627 11.7598 3.74627ZM26.5 35.5H11.7598C10.8174 35.5 9.5 34.1826 9.5 33.2402V16.3555H29V33.2402C29 34.1826 27.4423 35.5 26.5 35.5Z" fill="url(#paint0_linear)"/>
<path d="M19.2793 12.2539C20.9755 12.2539 22.3555 10.8739 22.3555 9.17773C22.3555 7.48153 20.9755 6.10156 19.2793 6.10156C17.5831 6.10156 16.2031 7.48153 16.2031 9.17773C16.2031 10.8739 17.5831 12.2539 19.2793 12.2539ZM19.2793 7.27113C20.2342 7.27113 21 8 21 9C21 10 20.5 11 19.2793 11C18.0586 11 17.5 10 17.5 9C17.5 8 18.3244 7.27113 19.2793 7.27113Z" fill="url(#paint1_linear)"/>
<path d="M25.4316 10.2031C25.9979 10.2031 26.457 9.74404 26.457 9.17773C26.457 8.61143 25.9979 8.15234 25.4316 8.15234C24.8653 8.15234 24.4062 8.61143 24.4062 9.17773C24.4062 9.74404 24.8653 10.2031 25.4316 10.2031Z" fill="url(#paint2_linear)"/>
<path d="M13.127 10.2031C13.6933 10.2031 14.1523 9.74404 14.1523 9.17773C14.1523 8.61143 13.6933 8.15234 13.127 8.15234C12.5606 8.15234 12.1016 8.61143 12.1016 9.17773C12.1016 9.74404 12.5606 10.2031 13.127 10.2031Z" fill="url(#paint3_linear)"/>
<path d="M23.3808 25.17V24.5586C23.3808 22.651 22.0717 21.0433 20.3047 20.5868V19.4316C20.3047 18.8654 19.8456 18.4062 19.2793 18.4062C18.713 18.4062 18.2539 18.8654 18.2539 19.4316V20.5868C16.4869 21.0433 15.1777 22.651 15.1777 24.5586V25.17C15.1777 26.5794 14.7645 27.9441 13.9827 29.1167C13.773 29.4314 13.7535 29.8359 13.9319 30.1693C14.1103 30.5028 14.4578 30.7109 14.8359 30.7109H18.2539V31.7363C18.2539 32.3026 18.713 32.7617 19.2793 32.7617C19.8456 32.7617 20.3047 32.3026 20.3047 31.7363V30.7109H23.7226C24.1008 30.7109 24.4483 30.5028 24.6267 30.1694C24.8051 29.836 24.7856 29.4314 24.5758 29.1168C23.7941 27.9441 23.3808 26.5794 23.3808 25.17ZM15.1777 29.288C15.6316 28.1873 16.5 26.3774 16.5 25.17V24C17 22 18.1485 21.618 19.2793 21.618C20.4101 21.618 22 22 22 25V25.5C22 27 22.9269 28.1873 23.3808 29.288H15.1777Z" fill="url(#paint4_linear)"/>
<path d="M33.7754 20.5254C34.3417 20.5254 34.8008 20.0663 34.8008 19.5C34.8008 18.9337 34.3417 18.4746 33.7754 18.4746C33.2091 18.4746 32.75 18.9337 32.75 19.5C32.75 20.0663 33.2091 20.5254 33.7754 20.5254Z" fill="url(#paint5_linear)"/>
<path d="M40.3013 12.9741C39.9009 12.5738 39.2516 12.5737 38.8512 12.9741C38.4507 13.3746 38.5999 13.5993 39.0003 13.9998C40.3536 15.353 41.5003 17.58 41.5003 19.4997C41.5003 21.4195 40.3537 23.6466 39.0005 24.9998C38.6 25.4002 38.4507 25.6248 38.8512 26.0252C39.0514 26.2255 39.3138 26.3256 39.5762 26.3256C39.8386 26.3256 40.1011 26.2255 40.3012 26.0253C42.0419 24.2847 43.0004 21.9673 43.0004 19.4997C43.0004 17.0322 42.0419 14.7147 40.3013 12.9741Z" fill="url(#paint6_linear)"/>
<path d="M37.4001 15.8745C36.9997 15.4741 36.3504 15.4741 35.95 15.8745C35.5495 16.275 36.099 16.5993 36.4994 16.9998C37.0804 17.5807 37.4 18.6781 37.4 19.4998C37.4 20.3214 37.0805 21.4188 36.4995 21.9998C36.0991 22.4002 35.5495 22.7246 35.95 23.125C36.1502 23.3252 36.4126 23.4254 36.675 23.4254C36.9374 23.4254 37.1999 23.3252 37.4 23.1251C38.3684 22.1567 38.9017 20.8692 38.9017 19.4998C38.9017 18.1303 38.3685 16.8428 37.4001 15.8745Z" fill="url(#paint7_linear)"/>
</g>
<defs>
<filter id="filter0_d" x="0" y="0" width="47.0004" height="47" filterUnits="userSpaceOnUse" color-interpolation-filters="sRGB">
<feFlood flood-opacity="0" result="BackgroundImageFix"/>
<feColorMatrix in="SourceAlpha" type="matrix" values="0 0 0 0 0 0 0 0 0 0 0 0 0 0 0 0 0 0 127 0"/>
<feOffset dx="-2" dy="4"/>
<feGaussianBlur stdDeviation="3"/>
<feColorMatrix type="matrix" values="0 0 0 0 1 0 0 0 0 0.442688 0 0 0 0 0 0 0 0 0.5 0"/>
<feBlend mode="normal" in2="BackgroundImageFix" result="effect1_dropShadow"/>
<feBlend mode="normal" in="SourceGraphic" in2="effect1_dropShadow" result="shape"/>
</filter>
<linearGradient id="paint0_linear" x1="8" y1="18.9697" x2="28.706" y2="25.4341" gradientUnits="userSpaceOnUse">
<stop offset="0.000997827" stop-color="#E32A23"/>
<stop offset="1" stop-color="#FF7100"/>
</linearGradient>
<linearGradient id="paint1_linear" x1="16.2031" y1="9.08452" x2="21.2229" y2="11.516" gradientUnits="userSpaceOnUse">
<stop offset="0.000997827" stop-color="#E32A23"/>
<stop offset="1" stop-color="#FF7100"/>
</linearGradient>
<linearGradient id="paint2_linear" x1="24.4062" y1="9.14666" x2="26.0795" y2="9.95715" gradientUnits="userSpaceOnUse">
<stop offset="0.000997827" stop-color="#E32A23"/>
<stop offset="1" stop-color="#FF7100"/>
</linearGradient>
<linearGradient id="paint3_linear" x1="12.1016" y1="9.14666" x2="13.7748" y2="9.95715" gradientUnits="userSpaceOnUse">
<stop offset="0.000997827" stop-color="#E32A23"/>
<stop offset="1" stop-color="#FF7100"/>
</linearGradient>
<linearGradient id="paint4_linear" x1="13.8105" y1="25.3665" x2="23.5076" y2="28.9452" gradientUnits="userSpaceOnUse">
<stop offset="0.000997827" stop-color="#E32A23"/>
<stop offset="1" stop-color="#FF7100"/>
</linearGradient>
<linearGradient id="paint5_linear" x1="32.75" y1="19.4689" x2="34.4232" y2="20.2794" gradientUnits="userSpaceOnUse">
<stop offset="0.000997827" stop-color="#E32A23"/>
<stop offset="1" stop-color="#FF7100"/>
</linearGradient>
<linearGradient id="paint6_linear" x1="38.6152" y1="19.2929" x2="42.9282" y2="19.9639" gradientUnits="userSpaceOnUse">
<stop offset="0.000997827" stop-color="#E32A23"/>
<stop offset="1" stop-color="#FF7100"/>
</linearGradient>
<linearGradient id="paint7_linear" x1="35.8105" y1="19.3808" x2="38.8151" y2="19.9538" gradientUnits="userSpaceOnUse">
<stop offset="0.000997827" stop-color="#E32A23"/>
<stop offset="1" stop-color="#FF7100"/>
</linearGradient>
</defs>
</svg>
