<svg width="47" height="41" viewBox="0 0 47 41" fill="none" xmlns="http://www.w3.org/2000/svg">
<g filter="url(#filter0_d)">
<path d="M22.5185 31H10.4815C10.3538 31 10.2313 30.9473 10.141 30.8536C10.0507 30.7598 10 30.6326 10 30.5V14.0001C9.99999 13.891 10.0343 13.7849 10.0978 13.6979C10.1612 13.611 10.2503 13.548 10.3515 13.5186L22.3885 10.0186C22.4601 9.99773 22.5353 9.99438 22.6084 10.0088C22.6814 10.0232 22.7502 10.0549 22.8094 10.1016C22.8687 10.1482 22.9167 10.2085 22.9497 10.2776C22.9828 10.3467 23 10.4229 23 10.5001V30.5C23 30.6326 22.9493 30.7598 22.859 30.8536C22.7687 30.9473 22.6462 31 22.5185 31ZM10.963 30H22.037V11.1581L10.963 14.3781V30Z" fill="url(#paint0_linear)"/>
<path d="M22.5185 31H10.4815C10.3538 31 10.2313 30.9473 10.141 30.8536C10.0507 30.7598 10 30.6326 10 30.5V14.0001C9.99999 13.891 10.0343 13.7849 10.0978 13.6979C10.1612 13.611 10.2503 13.548 10.3515 13.5186L22.3885 10.0186C22.4601 9.99773 22.5353 9.99438 22.6084 10.0088C22.6814 10.0232 22.7502 10.0549 22.8094 10.1016C22.8687 10.1482 22.9167 10.2085 22.9497 10.2776C22.9828 10.3467 23 10.4229 23 10.5001V30.5C23 30.6326 22.9493 30.7598 22.859 30.8536C22.7687 30.9473 22.6462 31 22.5185 31ZM10.963 30H22.037V11.1581L10.963 14.3781V30Z" fill="url(#paint1_linear)"/>
<path d="M8.5 15C8.36739 15 8.24021 14.9426 8.14645 14.8404C8.05268 14.7382 8 14.5996 8 14.4551V11.7309C8.00003 11.6115 8.036 11.4955 8.10239 11.4006C8.16878 11.3057 8.26192 11.2372 8.3675 11.2056L22.3675 7.01948C22.4417 6.99724 22.5197 6.994 22.5953 7.00998C22.6709 7.02597 22.742 7.06077 22.8033 7.11166C22.8645 7.16255 22.9141 7.22815 22.9482 7.30337C22.9823 7.37858 23.0001 7.46136 23 7.54527V10.2183C23 10.3373 22.9642 10.4531 22.8981 10.5478C22.832 10.6426 22.7392 10.7111 22.634 10.743L8.634 14.9804C8.59033 14.9934 8.54527 15 8.5 15ZM9 12.1466V13.7387L22 9.80424V8.25957L9 12.1466Z" fill="url(#paint2_linear)"/>
<path d="M40.4967 31H22.5033C22.3698 31 22.2418 30.9466 22.1474 30.8514C22.053 30.7563 22 30.6272 22 30.4927V5.50761C22 5.43068 22.0174 5.35477 22.0507 5.2856C22.0841 5.21643 22.1327 5.15582 22.1928 5.10836C22.2525 5.06066 22.3224 5.02744 22.3969 5.01126C22.4714 4.99507 22.5486 4.99636 22.6226 5.01501L40.616 9.45399C40.7255 9.48091 40.8228 9.54408 40.8924 9.6334C40.9621 9.72271 40.9999 9.83299 41 9.94658V30.4927C41 30.6272 40.947 30.7563 40.8526 30.8514C40.7582 30.9466 40.6302 31 40.4967 31ZM23.0066 29.9854H39.9934V10.3448L23.0066 6.15392V29.9854Z" fill="url(#paint3_linear)"/>
<path d="M40.4967 31H22.5033C22.3698 31 22.2418 30.9466 22.1474 30.8514C22.053 30.7563 22 30.6272 22 30.4927V5.50761C22 5.43068 22.0174 5.35477 22.0507 5.2856C22.0841 5.21643 22.1327 5.15582 22.1928 5.10836C22.2525 5.06066 22.3224 5.02744 22.3969 5.01126C22.4714 4.99507 22.5486 4.99636 22.6226 5.01501L40.616 9.45399C40.7255 9.48091 40.8228 9.54408 40.8924 9.6334C40.9621 9.72271 40.9999 9.83299 41 9.94658V30.4927C41 30.6272 40.947 30.7563 40.8526 30.8514C40.7582 30.9466 40.6302 31 40.4967 31ZM23.0066 29.9854H39.9934V10.3448L23.0066 6.15392V29.9854Z" fill="url(#paint4_linear)"/>
<path d="M29.591 5C29.5586 5.00003 29.5263 4.99654 29.4948 4.98962L28.3074 4.73002C28.2033 4.70576 28.1139 4.64537 28.0585 4.56189C28.0031 4.47842 27.9862 4.37856 28.0114 4.28388C28.0366 4.1892 28.102 4.10731 28.1933 4.0559C28.2846 4.00448 28.3946 3.98766 28.4995 4.00908L29.6868 4.26868C29.7841 4.28999 29.8694 4.34286 29.9266 4.41731C29.9838 4.49175 30.0089 4.58259 29.9972 4.67266C29.9854 4.76273 29.9376 4.84578 29.8629 4.9061C29.7881 4.96641 29.6915 4.99982 29.5914 5H29.591Z" fill="url(#paint5_linear)"/>
<path d="M42.5056 11C42.4656 10.9999 42.4258 10.9949 42.387 10.9852L21.3757 5.62486C21.2685 5.59748 21.1732 5.53377 21.1051 5.44392C21.037 5.35407 21 5.24325 21 5.12916V2.51025C21 2.43294 21.0171 2.35664 21.0498 2.28712C21.0826 2.2176 21.1302 2.15668 21.1891 2.10894C21.248 2.0612 21.3166 2.0279 21.3898 2.01155C21.463 1.9952 21.5388 1.99622 21.6116 2.01454L25.3491 2.95898C25.4137 2.97337 25.4748 3.00097 25.5289 3.04017C25.5829 3.07936 25.6289 3.12935 25.6639 3.18717C25.699 3.245 25.7224 3.30949 25.7329 3.37685C25.7434 3.4442 25.7408 3.51304 25.7251 3.57931C25.7094 3.64557 25.681 3.70792 25.6415 3.76266C25.6021 3.8174 25.5525 3.86343 25.4955 3.89802C25.4386 3.93262 25.3755 3.95507 25.31 3.96407C25.2445 3.97306 25.178 3.96841 25.1142 3.95039L21.9888 3.16064V4.72943L42.0112 9.83451V8.21007L38.3983 7.29882C38.2708 7.26666 38.161 7.18354 38.0929 7.06774C38.0248 6.95195 38.004 6.81296 38.0352 6.68136C38.0663 6.54975 38.1468 6.43631 38.2589 6.36599C38.3711 6.29567 38.5057 6.27423 38.6331 6.30639L42.6228 7.31209C42.7304 7.3392 42.8261 7.40285 42.8945 7.49283C42.9629 7.58281 43.0001 7.69391 43 7.8083V10.4885C43 10.6239 42.9479 10.7537 42.8552 10.8495C42.7625 10.9452 42.6367 11 42.5056 11Z" fill="url(#paint6_linear)"/>
<path d="M34.6001 6C34.5677 6.00006 34.5354 5.9965 34.5039 5.9894L33.3142 5.72253C33.2621 5.71201 33.2128 5.69209 33.1692 5.66395C33.1256 5.63581 33.0886 5.6 33.0604 5.55864C33.0322 5.51728 33.0134 5.4712 33.005 5.4231C32.9966 5.375 32.9988 5.32585 33.0115 5.27855C33.0242 5.23124 33.0472 5.18673 33.079 5.14762C33.1108 5.10852 33.1509 5.07561 33.1969 5.05084C33.2428 5.02606 33.2938 5.00991 33.3467 5.00334C33.3996 4.99677 33.4534 4.99991 33.5049 5.01258L34.6951 5.27945C34.7901 5.30079 34.8733 5.35311 34.9289 5.42654C34.9845 5.49997 35.0088 5.58944 34.9971 5.67807C34.9855 5.7667 34.9386 5.84836 34.8655 5.90767C34.7924 5.96697 34.698 5.99981 34.6001 6Z" fill="url(#paint7_linear)"/>
<path d="M19.6111 31H13.3889C13.2857 31 13.1868 30.9457 13.1139 30.849C13.041 30.7523 13 30.6211 13 30.4844V20.5156C13 20.3789 13.041 20.2477 13.1139 20.151C13.1868 20.0543 13.2857 20 13.3889 20H19.6111C19.7143 20 19.8132 20.0543 19.8861 20.151C19.959 20.2477 20 20.3789 20 20.5156V30.4844C20 30.6211 19.959 30.7523 19.8861 30.849C19.8132 30.9457 19.7143 31 19.6111 31ZM13.7778 29.9688H19.2222V21.0312H13.7778V29.9688Z" fill="url(#paint8_linear)"/>
<g clip-path="url(#clip0)">
<path d="M31.4995 14.4888C29.2281 14.4888 27.5873 16.1816 27.3271 18C27.1648 19.2122 27.5567 20.3939 28.3709 21.2877C29.0873 22.0531 29.4791 23.0755 29.4791 24.1286L29.4761 25.7877C29.4761 26.4582 30.0301 27 30.7158 27H32.3138C32.9995 27 33.5536 26.4582 33.5536 25.7877L33.5567 24.1286C33.5567 23.0449 33.9148 22.0531 34.6005 21.352C35.3505 20.5867 35.7424 19.598 35.7424 18.5755C35.7393 16.3071 33.8138 14.4888 31.4995 14.4888ZM32.9322 25.7877C32.9322 26.1061 32.672 26.3633 32.3444 26.3633H30.7465C30.4189 26.3633 30.1587 26.1092 30.1587 25.7877V25.0531H32.9291V25.7877H32.9322ZM34.1444 20.9051C33.3301 21.7347 32.9046 22.8826 32.9046 24.1286V24.4163H30.1342V24.1286C30.1342 22.9469 29.6444 21.7684 28.8301 20.8745C28.1138 20.1092 27.8199 19.1204 27.9485 18.098C28.1781 16.5673 29.6016 15.1286 31.5026 15.1286C33.4924 15.1286 35.0903 16.6929 35.0903 18.5755C35.0903 19.4357 34.7628 20.2653 34.1444 20.9051Z" fill="url(#paint9_linear)"/>
<path d="M35.4521 14.951L35.9083 15.4071L37.0256 14.3326L36.5664 13.8765L35.4521 14.951Z" fill="url(#paint10_linear)"/>
<path d="M39.0003 18.894H37.4023V19.5338H39.0003V18.894Z" fill="url(#paint11_linear)"/>
<path d="M25.598 18.894H24V19.5338H25.598V18.894Z" fill="url(#paint12_linear)"/>
<path d="M26.4211 13.8735L25.9619 14.3297L27.0793 15.4041L27.5354 14.948L26.4211 13.8735Z" fill="url(#paint13_linear)"/>
</g>
</g>
<defs>
<filter id="filter0_d" x="0" y="-1" width="47" height="47" filterUnits="userSpaceOnUse" color-interpolation-filters="sRGB">
<feFlood flood-opacity="0" result="BackgroundImageFix"/>
<feColorMatrix in="SourceAlpha" type="matrix" values="0 0 0 0 0 0 0 0 0 0 0 0 0 0 0 0 0 0 127 0"/>
<feOffset dx="-2" dy="4"/>
<feGaussianBlur stdDeviation="3"/>
<feColorMatrix type="matrix" values="0 0 0 0 1 0 0 0 0 0.442688 0 0 0 0 0 0 0 0 0.5 0"/>
<feBlend mode="normal" in2="BackgroundImageFix" result="effect1_dropShadow"/>
<feBlend mode="normal" in="SourceGraphic" in2="effect1_dropShadow" result="shape"/>
</filter>
<linearGradient id="paint0_linear" x1="10" y1="20.1818" x2="22.0151" y2="23.7846" gradientUnits="userSpaceOnUse">
<stop offset="0.000997827" stop-color="#E32A23"/>
<stop offset="1" stop-color="#FF7100"/>
</linearGradient>
<linearGradient id="paint1_linear" x1="10" y1="20.1818" x2="22.0151" y2="23.7846" gradientUnits="userSpaceOnUse">
<stop offset="0.000997827" stop-color="#E32A23"/>
<stop offset="1" stop-color="#FF7100"/>
</linearGradient>
<linearGradient id="paint2_linear" x1="8" y1="10.8788" x2="16.2801" y2="18.399" gradientUnits="userSpaceOnUse">
<stop offset="0.000997827" stop-color="#E32A23"/>
<stop offset="1" stop-color="#FF7100"/>
</linearGradient>
<linearGradient id="paint3_linear" x1="22" y1="17.6061" x2="39.0084" y2="23.6265" gradientUnits="userSpaceOnUse">
<stop offset="0.000997827" stop-color="#E32A23"/>
<stop offset="1" stop-color="#FF7100"/>
</linearGradient>
<linearGradient id="paint4_linear" x1="22" y1="17.6061" x2="39.0084" y2="23.6265" gradientUnits="userSpaceOnUse">
<stop offset="0.000997827" stop-color="#E32A23"/>
<stop offset="1" stop-color="#FF7100"/>
</linearGradient>
<linearGradient id="paint5_linear" x1="28" y1="4.48485" x2="29.0393" y2="5.49168" gradientUnits="userSpaceOnUse">
<stop offset="0.000997827" stop-color="#E32A23"/>
<stop offset="1" stop-color="#FF7100"/>
</linearGradient>
<linearGradient id="paint6_linear" x1="21" y1="6.36364" x2="30.2264" y2="17.2881" gradientUnits="userSpaceOnUse">
<stop offset="0.000997827" stop-color="#E32A23"/>
<stop offset="1" stop-color="#FF7100"/>
</linearGradient>
<linearGradient id="paint7_linear" x1="33" y1="5.48485" x2="34.0393" y2="6.49168" gradientUnits="userSpaceOnUse">
<stop offset="0.000997827" stop-color="#E32A23"/>
<stop offset="1" stop-color="#FF7100"/>
</linearGradient>
<linearGradient id="paint8_linear" x1="13" y1="25.3333" x2="19.4395" y2="27.3183" gradientUnits="userSpaceOnUse">
<stop offset="0.000997827" stop-color="#E32A23"/>
<stop offset="1" stop-color="#FF7100"/>
</linearGradient>
<linearGradient id="paint9_linear" x1="27.291" y1="20.5548" x2="34.9811" y2="23.071" gradientUnits="userSpaceOnUse">
<stop offset="0.000997827" stop-color="#E32A23"/>
<stop offset="1" stop-color="#FF7100"/>
</linearGradient>
<linearGradient id="paint10_linear" x1="35.4521" y1="14.6186" x2="36.7222" y2="15.251" gradientUnits="userSpaceOnUse">
<stop offset="0.000997827" stop-color="#E32A23"/>
<stop offset="1" stop-color="#FF7100"/>
</linearGradient>
<linearGradient id="paint11_linear" x1="37.4023" y1="19.2042" x2="38.0557" y2="19.9947" gradientUnits="userSpaceOnUse">
<stop offset="0.000997827" stop-color="#E32A23"/>
<stop offset="1" stop-color="#FF7100"/>
</linearGradient>
<linearGradient id="paint12_linear" x1="24" y1="19.2042" x2="24.6534" y2="19.9947" gradientUnits="userSpaceOnUse">
<stop offset="0.000997827" stop-color="#E32A23"/>
<stop offset="1" stop-color="#FF7100"/>
</linearGradient>
<linearGradient id="paint13_linear" x1="25.9619" y1="14.6157" x2="27.232" y2="15.2481" gradientUnits="userSpaceOnUse">
<stop offset="0.000997827" stop-color="#E32A23"/>
<stop offset="1" stop-color="#FF7100"/>
</linearGradient>
<clipPath id="clip0">
<rect width="15" height="15" fill="white" transform="translate(24 14)"/>
</clipPath>
</defs>
</svg>
