<svg width="39" height="47" viewBox="0 0 39 47" fill="none" xmlns="http://www.w3.org/2000/svg">
<g filter="url(#filter0_d)">
<path d="M29.9759 17.75C29.9759 17.75 26.0542 12.3409 24.3283 12.3851V10.7942C24.3283 10.4407 24.1957 10.0871 23.9306 9.86616C23.6654 9.6452 23.3561 9.46843 23.0025 9.46843H22.2955L22.2513 2.66288C22.2513 2.26515 21.9419 2 21.5884 2C21.1907 2 20.9255 2.30934 20.9255 2.66288L20.9697 9.46843H20.2626C19.9091 9.46843 19.5556 9.60101 19.3346 9.86616C19.1136 10.1313 18.9369 10.4407 18.9369 10.7942V12.3409C17.5783 12.5 14.1141 16.0088 12.8554 17.75C9.9036 21.8333 8.72288 23.5833 8.19824 25.4659C8.19824 25.8636 8.50759 26.1288 8.86112 26.1288H15.9318C16.1086 27.4104 16.6389 28.5593 17.5227 29.4432C18.5392 30.4596 19.9533 31.0783 21.5 31.0783C23.0467 31.0783 24.4609 30.4596 25.4773 29.4432C26.3611 28.5593 26.8914 27.4104 27.0682 26.1288H34.1389C34.5366 26.1288 34.8018 25.8194 34.8018 25.4659L29.9759 17.75ZM20.2184 10.8384H22.9583V12.1641C22.9142 12.1641 22.9142 12.1641 22.87 12.1641C22.7816 12.1641 22.7374 12.1641 22.649 12.1641C22.2955 12.1199 21.8977 12.1199 21.5442 12.1199C21.1907 12.0758 20.8371 12.1199 20.4836 12.1199C20.3952 12.1199 20.3068 12.1199 20.2184 12.1641V10.8384ZM24.5493 28.471C23.7538 29.2664 22.6932 29.7083 21.5442 29.7083C20.351 29.7083 19.2904 29.2222 18.5392 28.471C17.9205 27.8523 17.4785 27.0568 17.346 26.1288H21.5442H25.7866C25.6099 27.0126 25.2121 27.8523 24.5493 28.471ZM26.4937 24.7588H21.5442H16.5947H9.56819C9.56819 24.7588 12.265 20.6667 14.0361 18.3333C17.0418 14.3735 18.8854 13.6225 20.0344 13.5341C20.1228 13.5341 20.4417 13.5341 20.5301 13.5341C21.1369 13.5341 21.402 13.5341 21.7815 13.5341C22.1792 13.5341 22.2591 13.5341 22.649 13.5341C22.7374 13.5341 22.87 13.5341 22.9583 13.5341C25.0732 13.5341 25.1963 14.25 28.2048 17.75L30.5663 21.25L32.9277 24.75L26.4937 24.7588Z" fill="url(#paint0_linear)"/>
<path d="M21.1206 32.3335C20.7664 32.3335 20.5303 32.5706 20.5303 32.8415V35.6525C20.5303 35.9573 20.8058 36.1605 21.1206 36.1605C21.4749 36.1605 21.711 35.9234 21.711 35.6525V32.8415C21.711 32.5367 21.4749 32.3335 21.1206 32.3335Z" fill="url(#paint1_linear)"/>
<path d="M26.3754 34.3396L25.009 31.883C24.8788 31.6442 24.5535 31.5418 24.3258 31.6783C24.098 31.8148 24.0004 32.156 24.1306 32.3948L25.497 34.8514C25.6271 35.0902 25.9525 35.1925 26.1802 35.0561C26.408 34.9196 26.5056 34.5784 26.3754 34.3396Z" fill="url(#paint2_linear)"/>
<path d="M29.7535 30.5115L27.7517 28.9098C27.5571 28.7572 27.2791 28.8335 27.1679 29.1386C27.0567 29.4055 27.1123 29.7869 27.3347 29.9394L29.3365 31.5412C29.5311 31.6937 29.8091 31.6174 29.9203 31.3123C30.0315 31.0454 29.9759 30.664 29.7535 30.5115Z" fill="url(#paint3_linear)"/>
<path d="M15.9017 29.4179C15.7574 29.1653 15.3965 29.057 15.1439 29.2014L12.5458 30.7169C12.2932 30.8613 12.185 31.2221 12.3293 31.4747C12.4736 31.7273 12.8345 31.8356 13.0871 31.6912L15.6852 30.1757C15.9378 29.9952 16.046 29.6705 15.9017 29.4179Z" fill="url(#paint4_linear)"/>
<path d="M18.032 31.5136C17.7823 31.3709 17.4255 31.478 17.2828 31.7277L15.7842 34.2966C15.6415 34.5463 15.7129 34.9031 15.9983 35.0458C16.2481 35.1885 16.6049 35.1172 16.7476 34.8318L18.2461 32.2629C18.3888 32.0131 18.3174 31.6563 18.032 31.5136Z" fill="url(#paint5_linear)"/>
</g>
<defs>
<filter id="filter0_d" x="-4" y="0" width="47" height="47" filterUnits="userSpaceOnUse" color-interpolation-filters="sRGB">
<feFlood flood-opacity="0" result="BackgroundImageFix"/>
<feColorMatrix in="SourceAlpha" type="matrix" values="0 0 0 0 0 0 0 0 0 0 0 0 0 0 0 0 0 0 127 0"/>
<feOffset dx="-2" dy="4"/>
<feGaussianBlur stdDeviation="3"/>
<feColorMatrix type="matrix" values="0 0 0 0 1 0 0 0 0 0.442688 0 0 0 0 0 0 0 0 0.5 0"/>
<feBlend mode="normal" in2="BackgroundImageFix" result="effect1_dropShadow"/>
<feBlend mode="normal" in="SourceGraphic" in2="effect1_dropShadow" result="shape"/>
</filter>
<linearGradient id="paint0_linear" x1="8.19824" y1="16.0986" x2="30.5979" y2="26.0252" gradientUnits="userSpaceOnUse">
<stop offset="0.000997827" stop-color="#E32A23"/>
<stop offset="1" stop-color="#FF7100"/>
</linearGradient>
<linearGradient id="paint1_linear" x1="20.5303" y1="34.189" x2="21.6937" y2="34.3629" gradientUnits="userSpaceOnUse">
<stop offset="0.000997827" stop-color="#E32A23"/>
<stop offset="1" stop-color="#FF7100"/>
</linearGradient>
<linearGradient id="paint2_linear" x1="24.0723" y1="33.3142" x2="26.2215" y2="34.0166" gradientUnits="userSpaceOnUse">
<stop offset="0.000997827" stop-color="#E32A23"/>
<stop offset="1" stop-color="#FF7100"/>
</linearGradient>
<linearGradient id="paint3_linear" x1="27.1123" y1="30.1833" x2="29.4232" y2="31.3347" gradientUnits="userSpaceOnUse">
<stop offset="0.000997827" stop-color="#E32A23"/>
<stop offset="1" stop-color="#FF7100"/>
</linearGradient>
<linearGradient id="paint4_linear" x1="12.2646" y1="30.4066" x2="14.8036" y2="32.1448" gradientUnits="userSpaceOnUse">
<stop offset="0.000997827" stop-color="#E32A23"/>
<stop offset="1" stop-color="#FF7100"/>
</linearGradient>
<linearGradient id="paint5_linear" x1="15.7129" y1="33.2279" x2="18.0589" y2="34.0349" gradientUnits="userSpaceOnUse">
<stop offset="0.000997827" stop-color="#E32A23"/>
<stop offset="1" stop-color="#FF7100"/>
</linearGradient>
</defs>
</svg>
