<svg width="38" height="46" viewBox="0 0 38 46" fill="none" xmlns="http://www.w3.org/2000/svg">
<g filter="url(#filter0_d)">
<path d="M31.9844 20.1407H31.324L26.9167 2.75C26.9167 2.75 26.4566 2.75019 26.3333 2.75022L14.6667 2.75C14.5434 2.74997 14.0833 2.75 14.0833 2.75L9.67598 20.1407H9.01562C8.87058 20.1407 8.73149 20.1984 8.62893 20.3009C8.52637 20.4035 8.46875 20.5426 8.46875 20.6876V22.8751C8.46875 23.0202 8.52637 23.1593 8.62893 23.2618C8.73149 23.3644 8.87058 23.422 9.01562 23.422H18.3125V27.058L14.2219 32.172H12.3652C12.2461 32.172 12.1301 32.2109 12.0351 32.2829C11.9401 32.3548 11.8712 32.4558 11.8389 32.5705L11.2236 34.758C11.2007 34.8393 11.197 34.9249 11.2126 35.0079C11.2283 35.0909 11.263 35.1691 11.314 35.2365C11.365 35.3038 11.4309 35.3584 11.5065 35.3961C11.5822 35.4337 11.6655 35.4532 11.75 35.4532H29.25C29.3331 35.4532 29.4151 35.4343 29.4898 35.3978C29.5645 35.3614 29.6299 35.3084 29.681 35.2429C29.7321 35.1774 29.7677 35.1011 29.7849 35.0198C29.8021 34.9385 29.8006 34.8544 29.7805 34.7737L29.2336 32.5862C29.204 32.4679 29.1357 32.3629 29.0396 32.2878C28.9435 32.2128 28.8251 32.172 28.7031 32.172H26.7781L22.6875 27.058V23.422H28.7031V25.6095C28.7034 25.6402 28.7062 25.6708 28.7113 25.7011C28.3451 25.8284 28.0357 26.0813 27.8382 26.415C27.6407 26.7487 27.5677 27.1416 27.6323 27.5239C27.6968 27.9063 27.8947 28.2534 28.1909 28.5037C28.487 28.754 28.8622 28.8914 29.25 28.8914C29.6378 28.8914 30.013 28.754 30.3091 28.5037C30.6053 28.2534 30.8032 27.9063 30.8677 27.5239C30.9323 27.1416 30.8593 26.7487 30.6618 26.415C30.4643 26.0813 30.1549 25.8284 29.7887 25.7011C29.7938 25.6708 29.7966 25.6402 29.7969 25.6095V23.422H31.9844C32.1294 23.422 32.2685 23.3644 32.3711 23.2618C32.4736 23.1593 32.5312 23.0202 32.5312 22.8751V20.6876C32.5312 20.5426 32.4736 20.4035 32.3711 20.3009C32.2685 20.1984 32.1294 20.1407 31.9844 20.1407ZM14.6667 3.91667H26.3333L30.2002 20.1407H10.7998L14.6667 3.91667ZM28.2759 33.2657L28.5493 34.3595H12.4719L12.7795 33.2657H28.2759ZM25.3774 32.172H15.6226L19.2866 27.5919C19.364 27.4948 19.4062 27.3743 19.4062 27.2501V23.422H21.5938V27.2501C21.5938 27.3743 21.636 27.4948 21.7134 27.5919L25.3774 32.172ZM29.7969 27.2501C29.7969 27.3583 29.7648 27.464 29.7047 27.5539C29.6446 27.6439 29.5592 27.714 29.4593 27.7554C29.3594 27.7967 29.2494 27.8076 29.1433 27.7865C29.0372 27.7654 28.9398 27.7133 28.8633 27.6368C28.7868 27.5603 28.7347 27.4629 28.7136 27.3568C28.6925 27.2507 28.7034 27.1408 28.7448 27.0408C28.7861 26.9409 28.8562 26.8555 28.9462 26.7954C29.0361 26.7353 29.1418 26.7032 29.25 26.7032C29.395 26.7034 29.534 26.7611 29.6365 26.8636C29.739 26.9662 29.7967 27.1051 29.7969 27.2501ZM31.4375 22.3282H9.5625V21.2345H31.4375V22.3282Z" fill="url(#paint0_linear)"/>
</g>
<defs>
<filter id="filter0_d" x="-5" y="-1" width="47" height="47" filterUnits="userSpaceOnUse" color-interpolation-filters="sRGB">
<feFlood flood-opacity="0" result="BackgroundImageFix"/>
<feColorMatrix in="SourceAlpha" type="matrix" values="0 0 0 0 0 0 0 0 0 0 0 0 0 0 0 0 0 0 127 0"/>
<feOffset dx="-2" dy="4"/>
<feGaussianBlur stdDeviation="3"/>
<feColorMatrix type="matrix" values="0 0 0 0 1 0 0 0 0 0.442688 0 0 0 0 0 0 0 0 0.5 0"/>
<feBlend mode="normal" in2="BackgroundImageFix" result="effect1_dropShadow"/>
<feBlend mode="normal" in="SourceGraphic" in2="effect1_dropShadow" result="shape"/>
</filter>
<linearGradient id="paint0_linear" x1="8.46875" y1="18.6061" x2="29.976" y2="26.2713" gradientUnits="userSpaceOnUse">
<stop offset="0.000997827" stop-color="#E32A23"/>
<stop offset="1" stop-color="#FF7100"/>
</linearGradient>
</defs>
</svg>
