<svg width="39" height="47" viewBox="0 0 39 47" fill="none" xmlns="http://www.w3.org/2000/svg">
<g filter="url(#filter0_d)">
<path d="M34.0596 12.5887L25.0004 6.92683V6.08333C25.0004 5.11682 24.2169 4.33333 23.2504 4.33333V3.75C23.2504 2.78349 22.4669 2 21.5004 2C20.5339 2 19.7504 2.78349 19.7504 3.75V4.33333C18.7839 4.33333 18.0004 5.11682 18.0004 6.08333V6.92683L8.94125 12.5887C8.66803 12.7594 8.58498 13.1193 8.75575 13.3925C8.86236 13.5631 9.04932 13.6667 9.25042 13.6667H11.7074L15.0838 27.7349V30C15.0838 30.3221 15.3449 30.5833 15.6671 30.5833H18.0004V31.75C18.0004 32.7165 18.7839 33.5 19.7504 33.5V37H23.2504V33.5C24.2169 33.5 25.0004 32.7165 25.0004 31.75V30.5833H27.3338C27.6559 30.5833 27.9171 30.3221 27.9171 30V27.7349L31.2934 13.6667H33.7504C34.0726 13.6667 34.3338 13.4055 34.3338 13.0833C34.3338 12.8822 34.2301 12.6953 34.0596 12.5887ZM20.9171 3.75C20.9171 3.42785 21.1783 3.16667 21.5004 3.16667C21.8226 3.16667 22.0838 3.42785 22.0838 3.75V4.33333H20.9171V3.75ZM19.1671 6.08333C19.1671 5.76119 19.4283 5.5 19.7504 5.5H23.2504C23.5726 5.5 23.8338 5.76119 23.8338 6.08333V6.66667H19.1671V6.08333ZM12.9073 13.6667H20.9171V27.0833H16.1273L12.9073 13.6667ZM22.0838 35.8333H20.9171V33.5H22.0838V35.8333ZM23.8338 31.75C23.8338 32.0721 23.5726 32.3333 23.2504 32.3333H19.7504C19.4283 32.3333 19.1671 32.0721 19.1671 31.75V30.5833H23.8338V31.75ZM26.7504 29.4167H16.2504V28.25H26.7504V29.4167ZM26.8735 27.0833H22.0838V13.6667H30.0935L26.8735 27.0833ZM30.8338 12.5H11.2845L18.7512 7.83333H24.2497L31.7163 12.5H30.8338Z" fill="url(#paint0_linear)"/>
<path d="M25.3574 25.901C25.3574 25.901 25.3574 25.901 25.3575 25.9011C25.4023 25.9114 25.4481 25.9168 25.494 25.9168C25.7635 25.9165 25.9976 25.7315 26.0604 25.4694L28.4404 15.5527C28.5155 15.2394 28.3224 14.9246 28.0091 14.8495C27.9646 14.8389 27.9191 14.8335 27.8734 14.8335H26.1666C25.8444 14.8335 25.5833 15.0947 25.5833 15.4168C25.5833 15.739 25.8444 16.0002 26.1666 16.0002H27.1338L24.9264 25.1976C24.8512 25.5108 25.0441 25.8258 25.3574 25.901Z" fill="url(#paint1_linear)"/>
<path d="M18.074 25.1976L15.8667 16.0002H16.8338C17.156 16.0002 17.4172 15.739 17.4172 15.4168C17.4172 15.0947 17.156 14.8335 16.8338 14.8335H15.127C14.8048 14.8336 14.5438 15.095 14.5439 15.4171C14.5439 15.4628 14.5493 15.5083 14.56 15.5527L16.94 25.4694C17.0028 25.7315 17.2369 25.9164 17.5064 25.9168C17.5523 25.9168 17.5981 25.9114 17.6429 25.9011C17.9562 25.8259 18.1492 25.511 18.0741 25.1977C18.074 25.1976 18.074 25.1976 18.074 25.1976Z" fill="url(#paint2_linear)"/>
</g>
<defs>
<filter id="filter0_d" x="-4" y="0" width="47" height="47" filterUnits="userSpaceOnUse" color-interpolation-filters="sRGB">
<feFlood flood-opacity="0" result="BackgroundImageFix"/>
<feColorMatrix in="SourceAlpha" type="matrix" values="0 0 0 0 0 0 0 0 0 0 0 0 0 0 0 0 0 0 127 0"/>
<feOffset dx="-2" dy="4"/>
<feGaussianBlur stdDeviation="3"/>
<feColorMatrix type="matrix" values="0 0 0 0 1 0 0 0 0 0.442688 0 0 0 0 0 0 0 0 0.5 0"/>
<feBlend mode="normal" in2="BackgroundImageFix" result="effect1_dropShadow"/>
<feBlend mode="normal" in="SourceGraphic" in2="effect1_dropShadow" result="shape"/>
</filter>
<linearGradient id="paint0_linear" x1="8.66699" y1="18.9697" x2="31.6253" y2="27.1248" gradientUnits="userSpaceOnUse">
<stop offset="0.000997827" stop-color="#E32A23"/>
<stop offset="1" stop-color="#FF7100"/>
</linearGradient>
<linearGradient id="paint1_linear" x1="24.9102" y1="20.2072" x2="28.3988" y2="20.748" gradientUnits="userSpaceOnUse">
<stop offset="0.000997827" stop-color="#E32A23"/>
<stop offset="1" stop-color="#FF7100"/>
</linearGradient>
<linearGradient id="paint2_linear" x1="14.5439" y1="20.2072" x2="18.0325" y2="20.7479" gradientUnits="userSpaceOnUse">
<stop offset="0.000997827" stop-color="#E32A23"/>
<stop offset="1" stop-color="#FF7100"/>
</linearGradient>
</defs>
</svg>
