<svg width="47" height="47" viewBox="0 0 47 47" fill="none" xmlns="http://www.w3.org/2000/svg">
<g filter="url(#filter0_d)">
<path d="M42.4167 2H8.58333C8.26119 2 8 2.26119 8 2.58333C8 2.90548 8.26119 3.16667 8.58333 3.16667H10.9167V4.91667C10.9167 5.23881 11.1779 5.5 11.5 5.5H15V11.9167H13.8333C13.5112 11.9167 13.25 12.1779 13.25 12.5V17.4735C13.2453 17.6741 13.1409 17.8592 12.9717 17.967C11.6397 18.8596 10.8627 20.3766 10.9167 21.9792C11.0198 24.4481 13.0097 26.4197 15.4795 26.5H15.5833C18.1606 26.4979 20.2483 24.4069 20.2461 21.8295C20.2449 20.2778 19.4723 18.8281 18.185 17.9618C18.0199 17.8543 17.9192 17.6716 17.9167 17.4747V12.5C17.9167 12.1779 17.6555 11.9167 17.3333 11.9167H16.1667V5.5H24.9167V22.4167H23.75C23.4279 22.4167 23.1667 22.6779 23.1667 23V27.9735C23.1619 28.1741 23.0576 28.3592 22.8884 28.467C21.5564 29.3596 20.7794 30.8766 20.8333 32.4792C20.9364 34.9481 22.9263 36.9197 25.3962 37H25.5C28.0773 36.9979 30.165 34.9069 30.1629 32.3295C30.1616 30.7778 29.3891 29.3281 28.1017 28.4617C27.9366 28.3543 27.8359 28.1716 27.8333 27.9747V23C27.8333 22.6779 27.5721 22.4167 27.25 22.4167H26.0833V5.5H34.8333V15.4167H33.6667C33.3445 15.4167 33.0833 15.6779 33.0833 16V20.9735C33.0786 21.1741 32.9742 21.3592 32.8051 21.467C31.473 22.3596 30.696 23.8766 30.75 25.4792C30.8531 27.9481 32.843 29.9197 35.3128 30H35.4167C37.994 29.9979 40.0817 27.9069 40.0795 25.3295C40.0783 23.7778 39.3057 22.3281 38.0183 21.4617C37.8532 21.3543 37.7526 21.1716 37.75 20.9747V16C37.75 15.6779 37.4888 15.4167 37.1667 15.4167H36V5.5H39.5C39.8221 5.5 40.0833 5.23881 40.0833 4.91667V3.16667H42.4167C42.7388 3.16667 43 2.90548 43 2.58333C43 2.26119 42.7388 2 42.4167 2ZM17.5375 18.9307C18.5052 19.5794 19.0851 20.6683 19.0833 21.8333C19.087 22.7753 18.7081 23.6785 18.0333 24.3358C17.3661 25.0059 16.4496 25.3674 15.5046 25.3333C13.6525 25.2735 12.1603 23.795 12.0833 21.9436C12.042 20.7423 12.6236 19.6047 13.6216 18.9347C14.0279 18.6619 14.303 18.233 14.3817 17.75H16.7844C16.8608 18.231 17.1335 18.6586 17.5375 18.9307ZM16.75 13.0833V16.5833H14.4167V13.0833H16.75ZM27.4542 29.4307C28.4218 30.0794 29.0017 31.1683 29 32.3333C29.0036 33.2753 28.6248 34.1785 27.95 34.8358C27.2817 35.5043 26.366 35.8656 25.4212 35.8333C23.5692 35.7735 22.0769 34.295 22 32.4436C21.9587 31.2423 22.5402 30.1047 23.5382 29.4347C23.9445 29.1619 24.2197 28.733 24.2983 28.25H26.7011C26.7774 28.731 27.0502 29.1586 27.4542 29.4307ZM26.6667 23.5833V27.0833H24.3333V23.5833H26.6667ZM37.3708 22.4307C38.3385 23.0794 38.9184 24.1683 38.9167 25.3333C38.9203 26.2753 38.5414 27.1785 37.8667 27.8358C37.1974 28.5029 36.2823 28.8639 35.3379 28.8333C33.4858 28.7735 31.9936 27.295 31.9167 25.4436C31.8753 24.2423 32.4569 23.1047 33.4549 22.4347C33.8612 22.1619 34.1363 21.733 34.215 21.25H36.6177C36.6941 21.731 36.9669 22.1586 37.3708 22.4307ZM36.5833 16.5833V20.0833H34.25V16.5833H36.5833ZM38.9167 4.33333H12.0833V3.16667H38.9167V4.33333Z" fill="url(#paint0_linear)"/>
</g>
<defs>
<filter id="filter0_d" x="0" y="0" width="47" height="47" filterUnits="userSpaceOnUse" color-interpolation-filters="sRGB">
<feFlood flood-opacity="0" result="BackgroundImageFix"/>
<feColorMatrix in="SourceAlpha" type="matrix" values="0 0 0 0 0 0 0 0 0 0 0 0 0 0 0 0 0 0 127 0"/>
<feOffset dx="-2" dy="4"/>
<feGaussianBlur stdDeviation="3"/>
<feColorMatrix type="matrix" values="0 0 0 0 1 0 0 0 0 0.442688 0 0 0 0 0 0 0 0 0.5 0"/>
<feBlend mode="normal" in2="BackgroundImageFix" result="effect1_dropShadow"/>
<feBlend mode="normal" in="SourceGraphic" in2="effect1_dropShadow" result="shape"/>
</filter>
<linearGradient id="paint0_linear" x1="8" y1="18.9697" x2="36.5567" y2="32.8021" gradientUnits="userSpaceOnUse">
<stop offset="0.000997827" stop-color="#E32A23"/>
<stop offset="1" stop-color="#FF7100"/>
</linearGradient>
</defs>
</svg>
