<svg width="47" height="42" viewBox="0 0 47 42" fill="none" xmlns="http://www.w3.org/2000/svg">
<g clip-path="url(#clip0)" filter="url(#filter0_d)">
<path d="M25.2872 6.30734C25.3835 6.40231 25.5058 6.46659 25.6386 6.49206C25.7714 6.51754 25.9088 6.50305 26.0334 6.45044C26.158 6.39783 26.2642 6.30945 26.3385 6.19649C26.4129 6.08353 26.4521 5.95105 26.4512 5.81582C26.4502 5.68058 26.4092 5.54866 26.3333 5.43673C26.2574 5.3248 26.15 5.23789 26.0247 5.18699C25.8994 5.1361 25.7618 5.1235 25.6294 5.1508C25.4969 5.17809 25.3755 5.24405 25.2806 5.34034C25.1532 5.46945 25.0824 5.64387 25.0836 5.82521C25.0849 6.00656 25.1581 6.17999 25.2872 6.30734ZM25.9274 5.65824C25.9595 5.6899 25.9815 5.73036 25.9906 5.77451C25.9997 5.81867 25.9955 5.86452 25.9786 5.90629C25.9616 5.94806 25.9326 5.98385 25.8953 6.00916C25.858 6.03446 25.814 6.04813 25.769 6.04844C25.7239 6.04875 25.6797 6.03568 25.6421 6.0109C25.6044 5.98611 25.5749 5.95071 25.5574 5.90918C25.5399 5.86766 25.535 5.82186 25.5435 5.77759C25.552 5.73331 25.5735 5.69255 25.6051 5.66046C25.6476 5.61742 25.7054 5.59301 25.7658 5.59259C25.8263 5.59218 25.8844 5.61579 25.9274 5.65824Z" fill="url(#paint0_linear)"/>
<path d="M22.4968 9.13647C22.6015 9.23974 22.7345 9.30964 22.8789 9.33734C23.0233 9.36503 23.1727 9.34928 23.3082 9.29208C23.4437 9.23487 23.5591 9.13877 23.64 9.01595C23.7208 8.89312 23.7634 8.74907 23.7624 8.60202C23.7614 8.45497 23.7168 8.31152 23.6343 8.18982C23.5518 8.06811 23.435 7.97361 23.2987 7.91827C23.1625 7.86293 23.0129 7.84923 22.8689 7.87891C22.7249 7.90859 22.5929 7.98031 22.4896 8.08501C22.3511 8.2254 22.2741 8.41505 22.2754 8.61224C22.2768 8.80942 22.3564 8.998 22.4968 9.13647ZM23.193 8.43068C23.2279 8.4651 23.2518 8.5091 23.2617 8.55711C23.2716 8.60512 23.267 8.65498 23.2486 8.7004C23.2301 8.74581 23.1986 8.78474 23.158 8.81225C23.1175 8.83976 23.0697 8.85462 23.0206 8.85496C22.9716 8.8553 22.9236 8.84109 22.8827 8.81414C22.8417 8.78719 22.8097 8.7487 22.7906 8.70354C22.7716 8.65839 22.7663 8.60859 22.7755 8.56045C22.7848 8.51231 22.8081 8.46799 22.8425 8.43309C22.8887 8.38629 22.9515 8.35975 23.0172 8.3593C23.083 8.35884 23.1462 8.38452 23.193 8.43068Z" fill="url(#paint1_linear)"/>
<path d="M17.0642 14.6438C17.156 14.7343 17.2726 14.7956 17.3992 14.8199C17.5258 14.8442 17.6568 14.8303 17.7755 14.7802C17.8943 14.73 17.9956 14.6458 18.0664 14.5381C18.1373 14.4304 18.1747 14.3041 18.1738 14.1752C18.1729 14.0463 18.1338 13.9205 18.0615 13.8138C17.9891 13.7071 17.8867 13.6242 17.7673 13.5757C17.6478 13.5272 17.5167 13.5152 17.3904 13.5412C17.2641 13.5672 17.1484 13.6301 17.0579 13.7219C16.9365 13.845 16.8689 14.0113 16.8701 14.1842C16.8713 14.357 16.9411 14.5224 17.0642 14.6438ZM17.6745 14.025C17.7051 14.0552 17.7261 14.0937 17.7348 14.1358C17.7434 14.1779 17.7394 14.2216 17.7233 14.2614C17.7071 14.3013 17.6795 14.3354 17.6439 14.3595C17.6083 14.3836 17.5664 14.3967 17.5234 14.397C17.4805 14.3973 17.4384 14.3848 17.4025 14.3612C17.3666 14.3375 17.3385 14.3038 17.3218 14.2642C17.3051 14.2246 17.3005 14.181 17.3086 14.1387C17.3167 14.0965 17.3371 14.0577 17.3673 14.0271C17.4077 13.9861 17.4628 13.9628 17.5205 13.9624C17.5781 13.962 17.6335 13.9845 17.6745 14.025Z" fill="url(#paint2_linear)"/>
<path d="M14.3111 17.435C14.4039 17.5266 14.5218 17.5885 14.6498 17.6131C14.7779 17.6376 14.9103 17.6237 15.0304 17.573C15.1505 17.5223 15.2528 17.4371 15.3245 17.3282C15.3962 17.2193 15.434 17.0916 15.4331 16.9613C15.4322 16.8309 15.3926 16.7037 15.3195 16.5958C15.2463 16.488 15.1428 16.4042 15.022 16.3551C14.9012 16.3061 14.7686 16.2939 14.641 16.3202C14.5133 16.3466 14.3963 16.4101 14.3047 16.5029C14.182 16.6274 14.1137 16.7955 14.1149 16.9703C14.1161 17.1451 14.1867 17.3123 14.3111 17.435ZM14.9283 16.8094C14.9592 16.8399 14.9804 16.8789 14.9892 16.9214C14.9979 16.964 14.9939 17.0082 14.9775 17.0485C14.9612 17.0887 14.9333 17.1232 14.8973 17.1476C14.8613 17.172 14.8189 17.1852 14.7755 17.1855C14.732 17.1858 14.6895 17.1732 14.6532 17.1493C14.6169 17.1254 14.5885 17.0913 14.5716 17.0513C14.5547 17.0112 14.55 16.9671 14.5582 16.9244C14.5664 16.8817 14.5871 16.8424 14.6176 16.8115C14.6585 16.77 14.7142 16.7465 14.7725 16.7461C14.8307 16.7457 14.8868 16.7684 14.9283 16.8094Z" fill="url(#paint3_linear)"/>
<path d="M11.5569 20.2284C11.651 20.3212 11.7704 20.384 11.9002 20.4089C12.03 20.4337 12.1642 20.4196 12.2859 20.3682C12.4076 20.3168 12.5113 20.2305 12.584 20.1201C12.6566 20.0097 12.6949 19.8803 12.694 19.7482C12.6931 19.6161 12.653 19.4872 12.5789 19.3779C12.5047 19.2685 12.3998 19.1836 12.2774 19.1339C12.155 19.0842 12.0206 19.0719 11.8912 19.0985C11.7618 19.1252 11.6432 19.1896 11.5504 19.2837C11.426 19.4098 11.3568 19.5802 11.358 19.7574C11.3592 19.9346 11.4308 20.104 11.5569 20.2284ZM12.1824 19.5943C12.2137 19.6252 12.2352 19.6647 12.2441 19.7079C12.253 19.751 12.2489 19.7958 12.2323 19.8366C12.2157 19.8774 12.1874 19.9124 12.151 19.9371C12.1146 19.9618 12.0716 19.9752 12.0276 19.9755C11.9835 19.9758 11.9404 19.963 11.9036 19.9388C11.8668 19.9146 11.838 19.88 11.8209 19.8394C11.8038 19.7989 11.799 19.7541 11.8073 19.7109C11.8156 19.6676 11.8366 19.6278 11.8675 19.5964C11.909 19.5544 11.9654 19.5305 12.0245 19.5301C12.0835 19.5297 12.1403 19.5528 12.1824 19.5943Z" fill="url(#paint4_linear)"/>
<path d="M19.7799 11.8905C19.8783 11.9875 20.0032 12.0532 20.1389 12.0792C20.2746 12.1052 20.4149 12.0904 20.5422 12.0367C20.6695 11.9829 20.778 11.8926 20.8539 11.7772C20.9299 11.6618 20.9699 11.5265 20.969 11.3883C20.968 11.2502 20.9261 11.1154 20.8486 11.0011C20.771 10.8867 20.6613 10.7979 20.5333 10.7459C20.4053 10.694 20.2648 10.6811 20.1295 10.709C19.9942 10.7369 19.8702 10.8042 19.7731 10.9026C19.643 11.0345 19.5707 11.2127 19.5719 11.3979C19.5732 11.5832 19.648 11.7604 19.7799 11.8905ZM20.434 11.2274C20.4668 11.2597 20.4892 11.301 20.4985 11.3461C20.5078 11.3912 20.5035 11.4381 20.4862 11.4808C20.4689 11.5234 20.4393 11.56 20.4011 11.5858C20.363 11.6117 20.3181 11.6257 20.2721 11.626C20.226 11.6263 20.1809 11.6129 20.1424 11.5876C20.104 11.5623 20.0739 11.5261 20.056 11.4837C20.038 11.4413 20.0331 11.3945 20.0418 11.3493C20.0505 11.3041 20.0723 11.2624 20.1047 11.2296C20.148 11.1857 20.2071 11.1607 20.2689 11.1603C20.3306 11.1599 20.39 11.184 20.434 11.2274Z" fill="url(#paint5_linear)"/>
<path d="M8.22798 20.8164L11.0143 23.5648C11.1067 23.6559 11.2315 23.7066 11.3612 23.7057C11.491 23.7048 11.6151 23.6524 11.7062 23.56L28.5397 6.49356L30.6295 8.55481L16.5443 22.8349C16.4532 22.9273 16.4025 23.0521 16.4034 23.1818L16.4415 28.7165C16.4423 28.8462 16.4947 28.9703 16.5871 29.0614L19.3734 31.8098C19.4658 31.9009 19.5906 31.9515 19.7203 31.9506L25.255 31.9126C25.3847 31.9117 25.5088 31.8593 25.5999 31.767L42.777 14.3522C42.8681 14.2599 42.9188 14.1351 42.9179 14.0053C42.9171 13.8756 42.8647 13.7515 42.7723 13.6604L39.9859 10.9121C39.8935 10.821 39.7688 10.7703 39.639 10.7712C39.5093 10.7721 39.3852 10.8245 39.2941 10.9168L22.4605 27.9833L20.3708 25.922L37.2043 8.85558C37.2954 8.7632 37.3461 8.63842 37.3452 8.50867C37.3443 8.37893 37.2919 8.25485 37.1996 8.16374L31.6268 2.66707C31.5345 2.57599 31.4097 2.52533 31.2799 2.52624L25.7452 2.56426C25.6155 2.56513 25.4914 2.6175 25.4003 2.70985L8.22322 20.1246C8.13211 20.217 8.08143 20.3418 8.08232 20.4715C8.08321 20.6012 8.1356 20.7253 8.22798 20.8164ZM24.1878 27.6255L39.6471 11.9522L41.7369 14.0135L25.0456 30.9357L20.8946 30.9642L24.1878 27.6255ZM19.6837 26.6186L21.7735 28.6799L19.7122 30.7696L17.6224 28.7084L19.6837 26.6186ZM18.615 22.1288L34.0744 6.45554L36.1642 8.51679L17.4116 27.5288L17.3831 23.3778L18.615 22.1288ZM31.2881 3.7072L33.3778 5.76845L31.3166 7.85822L29.2268 5.79697L31.2881 3.7072ZM10.9811 18.7219L25.9547 3.54113L30.1057 3.51261L11.3531 22.5246L9.26336 20.4634L10.9811 18.7219Z" fill="url(#paint6_linear)"/>
<path d="M24.7615 29.1334C24.8558 29.2265 24.9757 29.2895 25.1059 29.3144C25.236 29.3394 25.3707 29.3252 25.4928 29.2736C25.6149 29.2221 25.719 29.1355 25.7919 29.0247C25.8648 28.914 25.9032 28.7842 25.9023 28.6516C25.9013 28.5191 25.8612 28.3898 25.7868 28.2801C25.7124 28.1704 25.6071 28.0852 25.4843 28.0353C25.3615 27.9855 25.2267 27.9731 25.0968 27.9999C24.967 28.0266 24.848 28.0913 24.755 28.1856C24.6301 28.3122 24.5607 28.4831 24.5619 28.6609C24.5632 28.8386 24.6349 29.0086 24.7615 29.1334ZM25.389 28.4972C25.4204 28.5282 25.442 28.5679 25.4509 28.6112C25.4598 28.6544 25.4557 28.6994 25.4391 28.7403C25.4224 28.7813 25.394 28.8163 25.3575 28.8411C25.3209 28.8659 25.2778 28.8793 25.2336 28.8796C25.1895 28.8799 25.1462 28.8671 25.1093 28.8428C25.0724 28.8185 25.0435 28.7839 25.0263 28.7432C25.0091 28.7024 25.0044 28.6576 25.0127 28.6142C25.021 28.5708 25.042 28.5308 25.0731 28.4994C25.1147 28.4572 25.1713 28.4333 25.2306 28.4329C25.2898 28.4325 25.3468 28.4556 25.389 28.4972Z" fill="url(#paint7_linear)"/>
<path d="M27.5192 26.3381C27.6118 26.4294 27.7294 26.4912 27.8571 26.5157C27.9849 26.5402 28.117 26.5263 28.2368 26.4757C28.3566 26.4251 28.4588 26.3401 28.5303 26.2315C28.6018 26.1228 28.6395 25.9954 28.6386 25.8654C28.6377 25.7353 28.5982 25.6085 28.5252 25.5008C28.4522 25.3932 28.349 25.3096 28.2285 25.2606C28.108 25.2117 27.9757 25.1996 27.8483 25.2258C27.7209 25.2521 27.6042 25.3155 27.5128 25.4081C27.3904 25.5323 27.3222 25.7 27.3234 25.8744C27.3246 26.0488 27.395 26.2156 27.5192 26.3381ZM28.1349 25.7138C28.1658 25.7443 28.1869 25.7832 28.1957 25.8257C28.2044 25.8681 28.2004 25.9122 28.1841 25.9524C28.1678 25.9926 28.1399 26.027 28.104 26.0513C28.0681 26.0756 28.0259 26.0888 27.9825 26.0891C27.9392 26.0894 27.8967 26.0768 27.8605 26.053C27.8243 26.0291 27.7959 25.9951 27.7791 25.9552C27.7622 25.9152 27.7576 25.8712 27.7657 25.8286C27.7739 25.786 27.7945 25.7468 27.8249 25.716C27.8658 25.6746 27.9214 25.6511 27.9795 25.6507C28.0376 25.6503 28.0935 25.673 28.1349 25.7138Z" fill="url(#paint8_linear)"/>
<path d="M33.0538 20.7268C33.1388 20.8106 33.2467 20.8674 33.3639 20.8898C33.4811 20.9123 33.6023 20.8995 33.7123 20.8531C33.8222 20.8067 33.9159 20.7287 33.9816 20.629C34.0472 20.5293 34.0818 20.4124 34.081 20.2931C34.0801 20.1737 34.0439 20.0573 33.977 19.9585C33.91 19.8597 33.8152 19.7831 33.7046 19.7381C33.5941 19.6932 33.4726 19.6821 33.3558 19.7062C33.2389 19.7303 33.1317 19.7885 33.0479 19.8735C32.9355 19.9874 32.873 20.1413 32.8741 20.3014C32.8752 20.4614 32.9399 20.6144 33.0538 20.7268ZM33.6188 20.154C33.6471 20.1819 33.6665 20.2176 33.6745 20.2566C33.6826 20.2956 33.6789 20.336 33.6639 20.3729C33.6489 20.4098 33.6234 20.4414 33.5904 20.4637C33.5575 20.486 33.5187 20.4981 33.4789 20.4983C33.4391 20.4986 33.4002 20.4871 33.3669 20.4652C33.3337 20.4433 33.3077 20.4121 33.2922 20.3755C33.2768 20.3388 33.2725 20.2984 33.28 20.2593C33.2875 20.2203 33.3064 20.1843 33.3343 20.156C33.3718 20.118 33.4228 20.0964 33.4762 20.0961C33.5295 20.0957 33.5808 20.1165 33.6188 20.154Z" fill="url(#paint9_linear)"/>
<path d="M35.7675 17.9757C35.8595 18.0664 35.9763 18.1277 36.1031 18.1521C36.2299 18.1764 36.3611 18.1626 36.4801 18.1123C36.5991 18.0621 36.7005 17.9777 36.7715 17.8698C36.8425 17.762 36.8799 17.6355 36.879 17.5063C36.8781 17.3772 36.839 17.2512 36.7665 17.1443C36.694 17.0374 36.5914 16.9544 36.4718 16.9058C36.3521 16.8572 36.2208 16.8452 36.0943 16.8713C35.9678 16.8973 35.8519 16.9603 35.7612 17.0523C35.6396 17.1756 35.5719 17.3421 35.5731 17.5153C35.5743 17.6885 35.6443 17.8541 35.7675 17.9757ZM36.3789 17.3558C36.4096 17.3861 36.4306 17.4247 36.4392 17.4669C36.4479 17.509 36.4439 17.5528 36.4277 17.5927C36.4115 17.6326 36.3839 17.6668 36.3482 17.6909C36.3126 17.7151 36.2706 17.7282 36.2276 17.7285C36.1845 17.7287 36.1424 17.7163 36.1064 17.6926C36.0704 17.6689 36.0423 17.6351 36.0256 17.5955C36.0088 17.5558 36.0042 17.5121 36.0123 17.4698C36.0204 17.4275 36.0409 17.3886 36.0711 17.358C36.1116 17.3169 36.1669 17.2936 36.2246 17.2932C36.2823 17.2928 36.3378 17.3153 36.3789 17.3558Z" fill="url(#paint10_linear)"/>
<path d="M38.4606 15.2446C38.5635 15.3461 38.6942 15.4149 38.8362 15.4421C38.9782 15.4693 39.1251 15.4538 39.2583 15.3976C39.3915 15.3413 39.505 15.2469 39.5845 15.1261C39.664 15.0054 39.7059 14.8637 39.7049 14.7192C39.7039 14.5746 39.66 14.4336 39.5789 14.3139C39.4977 14.1942 39.3829 14.1013 39.249 14.0469C39.115 13.9925 38.968 13.9791 38.8264 14.0082C38.6848 14.0374 38.555 14.1079 38.4535 14.2109C38.3173 14.3489 38.2416 14.5353 38.2429 14.7292C38.2443 14.9231 38.3226 15.1085 38.4606 15.2446ZM39.145 14.5507C39.1793 14.5845 39.2028 14.6278 39.2125 14.675C39.2223 14.7222 39.2178 14.7712 39.1996 14.8159C39.1815 14.8605 39.1505 14.8988 39.1107 14.9258C39.0708 14.9529 39.0238 14.9675 38.9756 14.9678C38.9274 14.9682 38.8802 14.9542 38.8399 14.9277C38.7997 14.9012 38.7682 14.8634 38.7494 14.819C38.7307 14.7746 38.7255 14.7256 38.7346 14.6783C38.7437 14.631 38.7666 14.5874 38.8004 14.5531C38.8458 14.5071 38.9076 14.481 38.9722 14.4805C39.0368 14.4801 39.099 14.5053 39.145 14.5507Z" fill="url(#paint11_linear)"/>
<path d="M30.2961 23.522C30.3828 23.6076 30.493 23.6655 30.6126 23.6884C30.7323 23.7114 30.856 23.6983 30.9683 23.6509C31.0805 23.6036 31.1762 23.5239 31.2431 23.4222C31.3101 23.3204 31.3454 23.2011 31.3446 23.0793C31.3438 22.9574 31.3068 22.8386 31.2384 22.7378C31.1701 22.6369 31.0733 22.5587 30.9604 22.5128C30.8476 22.467 30.7236 22.4556 30.6043 22.4802C30.485 22.5048 30.3757 22.5642 30.2901 22.6509C30.1754 22.7673 30.1116 22.9244 30.1127 23.0877C30.1138 23.2511 30.1798 23.4073 30.2961 23.522ZM30.8728 22.9373C30.9017 22.9658 30.9215 23.0023 30.9297 23.0421C30.9379 23.0818 30.9342 23.1231 30.9189 23.1608C30.9036 23.1984 30.8775 23.2306 30.8439 23.2534C30.8103 23.2762 30.7707 23.2885 30.7301 23.2888C30.6894 23.2891 30.6497 23.2773 30.6157 23.255C30.5818 23.2327 30.5553 23.2008 30.5395 23.1634C30.5237 23.126 30.5193 23.0847 30.527 23.0448C30.5346 23.0049 30.5539 22.9682 30.5825 22.9393C30.6207 22.9005 30.6728 22.8786 30.7272 22.8782C30.7817 22.8778 30.8341 22.8991 30.8728 22.9373Z" fill="url(#paint12_linear)"/>
<path d="M19.1005 23.7269C19.2127 23.8376 19.3552 23.9125 19.51 23.9422C19.6648 23.9719 19.8249 23.955 19.9701 23.8937C20.1153 23.8324 20.239 23.7294 20.3257 23.5978C20.4123 23.4661 20.458 23.3117 20.4569 23.1541C20.4558 22.9965 20.408 22.8428 20.3196 22.7124C20.2311 22.5819 20.106 22.4806 19.96 22.4213C19.8139 22.362 19.6536 22.3473 19.4993 22.3792C19.3449 22.411 19.2034 22.4878 19.0928 22.6C18.9444 22.7505 18.8618 22.9537 18.8633 23.1651C18.8647 23.3764 18.95 23.5785 19.1005 23.7269ZM19.8466 22.9705C19.884 23.0074 19.9096 23.0545 19.9202 23.106C19.9308 23.1575 19.9259 23.2109 19.9062 23.2596C19.8864 23.3082 19.8526 23.35 19.8092 23.3794C19.7657 23.4089 19.7144 23.4249 19.6619 23.4252C19.6094 23.4256 19.5579 23.4104 19.514 23.3815C19.4702 23.3526 19.4358 23.3113 19.4154 23.2629C19.395 23.2145 19.3893 23.1612 19.3992 23.1096C19.4091 23.058 19.4341 23.0105 19.471 22.9731C19.5204 22.9229 19.5878 22.8945 19.6583 22.894C19.7287 22.8935 19.7965 22.921 19.8466 22.9705Z" fill="url(#paint13_linear)"/>
<path d="M21.8156 20.9734C21.9343 21.0905 22.0851 21.1697 22.2488 21.2011C22.4126 21.2325 22.5819 21.2147 22.7355 21.1498C22.8891 21.085 23.02 20.976 23.1117 20.8368C23.2034 20.6975 23.2517 20.5342 23.2506 20.3675C23.2494 20.2008 23.1989 20.0381 23.1053 19.9001C23.0117 19.7621 22.8793 19.655 22.7248 19.5923C22.5704 19.5295 22.4008 19.514 22.2375 19.5476C22.0742 19.5813 21.9245 19.6626 21.8075 19.7813C21.6505 19.9405 21.5631 20.1555 21.5647 20.3791C21.5662 20.6026 21.6565 20.8164 21.8156 20.9734ZM22.6049 20.1732C22.6445 20.2122 22.6716 20.2621 22.6828 20.3166C22.694 20.371 22.6889 20.4275 22.6679 20.479C22.647 20.5305 22.6113 20.5746 22.5653 20.6058C22.5193 20.637 22.4651 20.6539 22.4095 20.6542C22.354 20.6546 22.2995 20.6385 22.2531 20.608C22.2067 20.5774 22.1704 20.5338 22.1487 20.4826C22.1271 20.4314 22.1212 20.3749 22.1316 20.3203C22.1421 20.2658 22.1685 20.2155 22.2076 20.1759C22.2599 20.1229 22.3312 20.0928 22.4057 20.0923C22.4802 20.0918 22.5519 20.1209 22.6049 20.1732Z" fill="url(#paint14_linear)"/>
<path d="M27.3094 15.404C27.4288 15.5217 27.5804 15.6014 27.7451 15.633C27.9097 15.6646 28.0801 15.6466 28.2345 15.5814C28.389 15.5161 28.5206 15.4066 28.6128 15.2665C28.705 15.1265 28.7536 14.9623 28.7524 14.7946C28.7513 14.6269 28.7004 14.4634 28.6063 14.3246C28.5122 14.1858 28.3791 14.0781 28.2237 14.015C28.0684 13.9519 27.8978 13.9363 27.7336 13.9701C27.5694 14.004 27.4189 14.0857 27.3012 14.2051C27.1433 14.3652 27.0555 14.5814 27.057 14.8062C27.0586 15.0311 27.1493 15.2461 27.3094 15.404ZM28.1032 14.5992C28.1429 14.6385 28.1702 14.6886 28.1815 14.7434C28.1928 14.7981 28.1876 14.855 28.1665 14.9068C28.1455 14.9585 28.1096 15.0029 28.0633 15.0343C28.0171 15.0657 27.9626 15.0826 27.9067 15.083C27.8508 15.0834 27.796 15.0672 27.7493 15.0364C27.7027 15.0057 27.6661 14.9618 27.6444 14.9103C27.6227 14.8589 27.6167 14.8021 27.6272 14.7472C27.6377 14.6923 27.6643 14.6418 27.7035 14.602C27.7562 14.5486 27.8278 14.5184 27.9028 14.5178C27.9777 14.5173 28.0498 14.5466 28.1032 14.5992Z" fill="url(#paint15_linear)"/>
<path d="M30.1187 12.5553C30.2258 12.6609 30.3619 12.7324 30.5096 12.7608C30.6574 12.7891 30.8102 12.773 30.9488 12.7145C31.0874 12.6559 31.2055 12.5576 31.2883 12.432C31.371 12.3063 31.4146 12.1589 31.4135 12.0085C31.4125 11.858 31.3669 11.7113 31.2825 11.5868C31.198 11.4623 31.0785 11.3656 30.9392 11.309C30.7998 11.2523 30.6467 11.2383 30.4994 11.2687C30.352 11.2991 30.217 11.3724 30.1113 11.4795C29.9697 11.6232 29.8909 11.8172 29.8922 12.0189C29.8936 12.2207 29.9751 12.4136 30.1187 12.5553ZM30.831 11.8332C30.8667 11.8684 30.8911 11.9134 30.9012 11.9625C30.9114 12.0117 30.9067 12.0627 30.8878 12.1091C30.8689 12.1556 30.8367 12.1954 30.7952 12.2236C30.7537 12.2517 30.7048 12.2669 30.6546 12.2673C30.6045 12.2676 30.5554 12.2531 30.5135 12.2255C30.4716 12.1979 30.4388 12.1585 30.4193 12.1123C30.3998 12.0662 30.3944 12.0152 30.4039 11.966C30.4133 11.9167 30.4372 11.8714 30.4724 11.8357C30.5196 11.7878 30.5839 11.7606 30.6512 11.7602C30.7184 11.7597 30.7831 11.786 30.831 11.8332Z" fill="url(#paint16_linear)"/>
<path d="M32.9594 9.67578C33.0481 9.76324 33.1607 9.82245 33.283 9.8459C33.4053 9.86936 33.5319 9.85602 33.6466 9.80757C33.7613 9.75912 33.8591 9.67773 33.9276 9.5737C33.9961 9.46967 34.0322 9.34767 34.0313 9.22313C34.0305 9.09858 33.9927 8.97709 33.9228 8.87401C33.8529 8.77093 33.754 8.6909 33.6386 8.64403C33.5232 8.59715 33.3965 8.58555 33.2745 8.61069C33.1525 8.63583 33.0408 8.69657 32.9533 8.78524C32.836 8.90415 32.7708 9.06477 32.7719 9.23178C32.7731 9.39879 32.8405 9.5585 32.9594 9.67578ZM33.549 9.07801C33.5786 9.10716 33.5988 9.14443 33.6072 9.18509C33.6156 9.22575 33.6117 9.26798 33.5961 9.30645C33.5805 9.34491 33.5538 9.37788 33.5194 9.40118C33.4851 9.42448 33.4446 9.43707 33.4031 9.43736C33.3616 9.43764 33.3209 9.42561 33.2862 9.40278C33.2515 9.37995 33.2244 9.34736 33.2083 9.30911C33.1921 9.27087 33.1877 9.22869 33.1955 9.18792C33.2033 9.14714 33.223 9.10961 33.2522 9.08005C33.2913 9.04041 33.3445 9.01793 33.4002 9.01755C33.4559 9.01717 33.5094 9.03892 33.549 9.07801Z" fill="url(#paint17_linear)"/>
<path d="M24.5532 18.1696C24.6713 18.2861 24.8212 18.3649 24.984 18.3961C25.1469 18.4274 25.3153 18.4096 25.4681 18.3451C25.6208 18.2806 25.751 18.1722 25.8422 18.0337C25.9334 17.8953 25.9814 17.7328 25.9803 17.567C25.9791 17.4012 25.9288 17.2395 25.8358 17.1022C25.7427 16.965 25.611 16.8585 25.4574 16.7961C25.3038 16.7337 25.1351 16.7182 24.9727 16.7517C24.8103 16.7852 24.6615 16.866 24.5451 16.9841C24.3889 17.1424 24.3021 17.3562 24.3036 17.5785C24.3051 17.8009 24.3949 18.0135 24.5532 18.1696ZM25.3382 17.3738C25.3775 17.4126 25.4045 17.4623 25.4156 17.5164C25.4268 17.5705 25.4216 17.6267 25.4008 17.678C25.38 17.7292 25.3445 17.773 25.2988 17.8041C25.253 17.8351 25.1991 17.8519 25.1439 17.8522C25.0886 17.8526 25.0344 17.8366 24.9883 17.8062C24.9421 17.7758 24.906 17.7324 24.8845 17.6815C24.863 17.6306 24.8571 17.5744 24.8675 17.5202C24.8779 17.4659 24.9042 17.4159 24.943 17.3765C24.995 17.3238 25.0659 17.2939 25.14 17.2933C25.2141 17.2928 25.2854 17.3218 25.3382 17.3738Z" fill="url(#paint18_linear)"/>
<path d="M31.2969 5.09082L31.9935 5.7779L31.3064 6.47449L30.6098 5.78741L31.2969 5.09082Z" fill="url(#paint19_linear)"/>
<path d="M19.6934 28.0024L20.3899 28.6895L19.7029 29.3861L19.0063 28.699L19.6934 28.0024Z" fill="url(#paint20_linear)"/>
<path d="M14.0442 6.18179C14.2339 5.98943 14.5436 5.98731 14.736 6.17704L15.7809 7.20766C15.9732 7.3974 15.9754 7.70714 15.7856 7.8995C15.5959 8.09186 15.2861 8.09399 15.0938 7.90425L14.0489 6.87363C13.8565 6.6839 13.8544 6.37415 14.0442 6.18179Z" fill="url(#paint21_linear)"/>
<path d="M16.4465 5.29533C16.4065 5.02813 16.5906 4.77906 16.8578 4.73901C17.125 4.69897 17.3741 4.88311 17.4142 5.15031L17.6317 6.60174C17.6717 6.86894 17.4876 7.11802 17.2204 7.15806C16.9532 7.19811 16.7041 7.01396 16.6641 6.74676L16.4465 5.29533Z" fill="url(#paint22_linear)"/>
<path d="M12.732 8.91884C12.7684 8.65112 13.0149 8.46357 13.2826 8.49994L14.7369 8.69751C15.0046 8.73388 15.1922 8.9804 15.1558 9.24813C15.1194 9.51585 14.8729 9.7034 14.6052 9.66703L13.1509 9.46946C12.8832 9.43309 12.6956 9.18657 12.732 8.91884Z" fill="url(#paint23_linear)"/>
<path d="M34.4474 26.5647C34.6032 26.344 34.9084 26.2913 35.1292 26.4472L36.3282 27.2935C36.5489 27.4493 36.6016 27.7546 36.4457 27.9753C36.2899 28.196 35.9847 28.2487 35.764 28.0929L34.5649 27.2465C34.3442 27.0907 34.2916 26.7854 34.4474 26.5647Z" fill="url(#paint24_linear)"/>
<path d="M34.8666 25.0598C34.8589 24.7897 35.0715 24.5645 35.3415 24.5567L36.8086 24.5144C37.0786 24.5066 37.3039 24.7192 37.3117 24.9893C37.3195 25.2593 37.1069 25.4846 36.8368 25.4924L35.3698 25.5347C35.0997 25.5425 34.8744 25.3299 34.8666 25.0598Z" fill="url(#paint25_linear)"/>
<path d="M32.6505 27.5978C32.5674 27.3407 32.7084 27.065 32.9655 26.9819C33.2226 26.8988 33.4984 27.0398 33.5815 27.2969L34.0329 28.6934C34.116 28.9505 33.9749 29.2263 33.7178 29.3094C33.4607 29.3925 33.185 29.2514 33.1019 28.9943L32.6505 27.5978Z" fill="url(#paint26_linear)"/>
</g>
<defs>
<filter id="filter0_d" x="0" y="-2" width="47" height="47" filterUnits="userSpaceOnUse" color-interpolation-filters="sRGB">
<feFlood flood-opacity="0" result="BackgroundImageFix"/>
<feColorMatrix in="SourceAlpha" type="matrix" values="0 0 0 0 0 0 0 0 0 0 0 0 0 0 0 0 0 0 127 0"/>
<feOffset dx="-2" dy="4"/>
<feGaussianBlur stdDeviation="3"/>
<feColorMatrix type="matrix" values="0 0 0 0 1 0 0 0 0 0.442688 0 0 0 0 0 0 0 0 0.5 0"/>
<feBlend mode="normal" in2="BackgroundImageFix" result="effect1_dropShadow"/>
<feBlend mode="normal" in="SourceGraphic" in2="effect1_dropShadow" result="shape"/>
</filter>
<linearGradient id="paint0_linear" x1="25.2951" y1="5.32559" x2="25.71" y2="6.49394" gradientUnits="userSpaceOnUse">
<stop offset="0.000997827" stop-color="#E32A23"/>
<stop offset="1" stop-color="#FF7100"/>
</linearGradient>
<linearGradient id="paint1_linear" x1="22.5054" y1="8.06897" x2="22.9565" y2="9.33937" gradientUnits="userSpaceOnUse">
<stop offset="0.000997827" stop-color="#E32A23"/>
<stop offset="1" stop-color="#FF7100"/>
</linearGradient>
<linearGradient id="paint2_linear" x1="17.0717" y1="13.7078" x2="17.4672" y2="14.8217" gradientUnits="userSpaceOnUse">
<stop offset="0.000997827" stop-color="#E32A23"/>
<stop offset="1" stop-color="#FF7100"/>
</linearGradient>
<linearGradient id="paint3_linear" x1="14.3188" y1="16.4887" x2="14.7186" y2="17.6149" gradientUnits="userSpaceOnUse">
<stop offset="0.000997827" stop-color="#E32A23"/>
<stop offset="1" stop-color="#FF7100"/>
</linearGradient>
<linearGradient id="paint4_linear" x1="11.5646" y1="19.2693" x2="11.9699" y2="20.4107" gradientUnits="userSpaceOnUse">
<stop offset="0.000997827" stop-color="#E32A23"/>
<stop offset="1" stop-color="#FF7100"/>
</linearGradient>
<linearGradient id="paint5_linear" x1="19.788" y1="10.8875" x2="20.2118" y2="12.0811" gradientUnits="userSpaceOnUse">
<stop offset="0.000997827" stop-color="#E32A23"/>
<stop offset="1" stop-color="#FF7100"/>
</linearGradient>
<linearGradient id="paint6_linear" x1="18.4982" y1="9.70741" x2="27.2945" y2="27.2246" gradientUnits="userSpaceOnUse">
<stop offset="0.000997827" stop-color="#E32A23"/>
<stop offset="1" stop-color="#FF7100"/>
</linearGradient>
<linearGradient id="paint7_linear" x1="24.7692" y1="28.1712" x2="25.1758" y2="29.3163" gradientUnits="userSpaceOnUse">
<stop offset="0.000997827" stop-color="#E32A23"/>
<stop offset="1" stop-color="#FF7100"/>
</linearGradient>
<linearGradient id="paint8_linear" x1="27.5268" y1="25.3939" x2="27.9258" y2="26.5175" gradientUnits="userSpaceOnUse">
<stop offset="0.000997827" stop-color="#E32A23"/>
<stop offset="1" stop-color="#FF7100"/>
</linearGradient>
<linearGradient id="paint9_linear" x1="33.0608" y1="19.8604" x2="33.4269" y2="20.8915" gradientUnits="userSpaceOnUse">
<stop offset="0.000997827" stop-color="#E32A23"/>
<stop offset="1" stop-color="#FF7100"/>
</linearGradient>
<linearGradient id="paint10_linear" x1="35.7751" y1="17.0382" x2="36.1712" y2="18.1539" gradientUnits="userSpaceOnUse">
<stop offset="0.000997827" stop-color="#E32A23"/>
<stop offset="1" stop-color="#FF7100"/>
</linearGradient>
<linearGradient id="paint11_linear" x1="38.469" y1="14.1951" x2="38.9125" y2="15.4441" gradientUnits="userSpaceOnUse">
<stop offset="0.000997827" stop-color="#E32A23"/>
<stop offset="1" stop-color="#FF7100"/>
</linearGradient>
<linearGradient id="paint12_linear" x1="30.3032" y1="22.6377" x2="30.6769" y2="23.6901" gradientUnits="userSpaceOnUse">
<stop offset="0.000997827" stop-color="#E32A23"/>
<stop offset="1" stop-color="#FF7100"/>
</linearGradient>
<linearGradient id="paint13_linear" x1="19.1097" y1="22.5828" x2="19.5932" y2="23.9444" gradientUnits="userSpaceOnUse">
<stop offset="0.000997827" stop-color="#E32A23"/>
<stop offset="1" stop-color="#FF7100"/>
</linearGradient>
<linearGradient id="paint14_linear" x1="21.8254" y1="19.7631" x2="22.3368" y2="21.2035" gradientUnits="userSpaceOnUse">
<stop offset="0.000997827" stop-color="#E32A23"/>
<stop offset="1" stop-color="#FF7100"/>
</linearGradient>
<linearGradient id="paint15_linear" x1="27.3192" y1="14.1868" x2="27.8335" y2="15.6353" gradientUnits="userSpaceOnUse">
<stop offset="0.000997827" stop-color="#E32A23"/>
<stop offset="1" stop-color="#FF7100"/>
</linearGradient>
<linearGradient id="paint16_linear" x1="30.1275" y1="11.4631" x2="30.589" y2="12.7629" gradientUnits="userSpaceOnUse">
<stop offset="0.000997827" stop-color="#E32A23"/>
<stop offset="1" stop-color="#FF7100"/>
</linearGradient>
<linearGradient id="paint17_linear" x1="32.9667" y1="8.77166" x2="33.3488" y2="9.84763" gradientUnits="userSpaceOnUse">
<stop offset="0.000997827" stop-color="#E32A23"/>
<stop offset="1" stop-color="#FF7100"/>
</linearGradient>
<linearGradient id="paint18_linear" x1="24.5629" y1="16.966" x2="25.0715" y2="18.3984" gradientUnits="userSpaceOnUse">
<stop offset="0.000997827" stop-color="#E32A23"/>
<stop offset="1" stop-color="#FF7100"/>
</linearGradient>
<linearGradient id="paint19_linear" x1="30.9637" y1="5.42856" x2="31.2606" y2="6.26446" gradientUnits="userSpaceOnUse">
<stop offset="0.000997827" stop-color="#E32A23"/>
<stop offset="1" stop-color="#FF7100"/>
</linearGradient>
<linearGradient id="paint20_linear" x1="19.3602" y1="28.3402" x2="19.657" y2="29.1761" gradientUnits="userSpaceOnUse">
<stop offset="0.000997827" stop-color="#E32A23"/>
<stop offset="1" stop-color="#FF7100"/>
</linearGradient>
<linearGradient id="paint21_linear" x1="14.0546" y1="6.17124" x2="13.9163" y2="7.73409" gradientUnits="userSpaceOnUse">
<stop offset="0.000997827" stop-color="#E32A23"/>
<stop offset="1" stop-color="#FF7100"/>
</linearGradient>
<linearGradient id="paint22_linear" x1="16.5498" y1="5.9844" x2="17.5165" y2="6.02562" gradientUnits="userSpaceOnUse">
<stop offset="0.000997827" stop-color="#E32A23"/>
<stop offset="1" stop-color="#FF7100"/>
</linearGradient>
<linearGradient id="paint23_linear" x1="12.734" y1="8.90415" x2="13.5611" y2="10.2374" gradientUnits="userSpaceOnUse">
<stop offset="0.000997827" stop-color="#E32A23"/>
<stop offset="1" stop-color="#FF7100"/>
</linearGradient>
<linearGradient id="paint24_linear" x1="34.4559" y1="26.5526" x2="34.5744" y2="28.1171" gradientUnits="userSpaceOnUse">
<stop offset="0.000997827" stop-color="#E32A23"/>
<stop offset="1" stop-color="#FF7100"/>
</linearGradient>
<linearGradient id="paint25_linear" x1="34.8662" y1="25.045" x2="35.8997" y2="26.2255" gradientUnits="userSpaceOnUse">
<stop offset="0.000997827" stop-color="#E32A23"/>
<stop offset="1" stop-color="#FF7100"/>
</linearGradient>
<linearGradient id="paint26_linear" x1="32.8648" y1="28.2608" x2="33.8253" y2="28.1438" gradientUnits="userSpaceOnUse">
<stop offset="0.000997827" stop-color="#E32A23"/>
<stop offset="1" stop-color="#FF7100"/>
</linearGradient>
<clipPath id="clip0">
<rect width="35" height="35" fill="white" transform="translate(8)"/>
</clipPath>
</defs>
</svg>
