<svg width="47" height="43" viewBox="0 0 47 43" fill="none" xmlns="http://www.w3.org/2000/svg">
<g filter="url(#filter0_d)">
<path fill-rule="evenodd" clip-rule="evenodd" d="M24.386 6.06951C23.7438 5.68791 23.3125 4.98706 23.3125 4.1875C23.3125 2.98146 24.2939 2 25.5 2C26.706 2 27.6875 2.98146 27.6875 4.1875C27.6875 4.98744 27.2557 5.68857 26.613 6.07005L33.6069 17.5153C34.2646 16.8357 35.3569 15.9869 36.7846 15.8849C38.2862 15.7846 39.7611 16.5145 41.1688 18.0708C42.206 18.2415 43 19.1445 43 20.2293C43 21.4353 42.0185 22.4168 40.8124 22.4168C39.6064 22.4168 38.6249 21.4353 38.6249 20.2293C38.6249 19.5097 38.9743 18.8701 39.5123 18.4712C38.6184 17.658 37.7373 17.2752 36.8867 17.3403C35.5673 17.4343 34.5759 18.5765 34.2499 19.0036V20.9584C34.2499 25.1052 31.3521 28.5864 27.4747 29.4838C27.6111 29.7689 27.6875 30.0879 27.6875 30.4244C27.6875 31.6305 26.706 32.6119 25.5 32.6119C24.2939 32.6119 23.3125 31.6305 23.3125 30.4244C23.3125 30.0879 23.3889 29.7689 23.5252 29.4839C19.6478 28.5864 16.7499 25.1052 16.7499 20.9584V19.021C16.3755 18.5678 15.2564 17.3714 13.8598 17.3345H13.7971C13.0127 17.3345 12.2293 17.7088 11.4579 18.4494C12.0127 18.8466 12.375 19.4965 12.375 20.2293C12.375 21.4353 11.3935 22.4168 10.1875 22.4168C8.98146 22.4168 8 21.4353 8 20.2293C8 19.15 8.786 18.2505 9.81557 18.0734C11.0814 16.5744 12.4742 15.8457 13.9064 15.8762C15.4377 15.92 16.6583 16.8387 17.3729 17.5445L24.386 6.06951ZM25.7116 28.2471C25.6419 28.2404 25.5713 28.2369 25.5 28.2369C25.4286 28.2369 25.358 28.2404 25.2884 28.2471C21.3652 28.1347 18.2082 24.9083 18.2082 20.9584V19.5001H25.4893L25.5002 19.5002L25.5111 19.5001H32.7916V20.9584C32.7916 24.9083 29.6347 28.1347 25.7116 28.2471ZM25.367 29.7075C25.0289 29.7702 24.7708 30.0675 24.7708 30.4244C24.7708 30.8269 25.0989 31.1536 25.5 31.1536C25.901 31.1536 26.2291 30.8269 26.2291 30.4244C26.2291 30.0675 25.9711 29.7702 25.633 29.7074C25.5887 29.7081 25.5443 29.7084 25.4999 29.7084C25.4555 29.7084 25.4112 29.7081 25.367 29.7075ZM10.1799 19.5001C9.78232 19.5042 9.45834 19.8293 9.45834 20.2293C9.45834 20.6318 9.78646 20.9584 10.1875 20.9584C10.5885 20.9584 10.9167 20.6318 10.9167 20.2293C10.9167 19.8294 10.5928 19.5043 10.1952 19.5001L10.1877 19.5002L10.1799 19.5001ZM26.2294 18.0418V8.24142L32.2185 18.0418H26.2294ZM25.5338 4.91589C25.511 4.9148 25.4882 4.9148 25.4655 4.91587C25.0803 4.89779 24.7708 4.57841 24.7708 4.1875C24.7708 3.785 25.0989 3.45834 25.5 3.45834C25.901 3.45834 26.2291 3.785 26.2291 4.1875C26.2291 4.57862 25.9193 4.89813 25.5338 4.91589ZM18.7802 18.0418H24.771V8.23744L18.7802 18.0418ZM40.8124 19.5001C40.4114 19.5001 40.0833 19.8268 40.0833 20.2293C40.0833 20.6318 40.4114 20.9584 40.8124 20.9584C41.2135 20.9584 41.5416 20.6318 41.5416 20.2293C41.5416 19.8268 41.2135 19.5001 40.8124 19.5001Z" fill="url(#paint0_linear)"/>
</g>
<defs>
<filter id="filter0_d" x="0" y="-2" width="47" height="47" filterUnits="userSpaceOnUse" color-interpolation-filters="sRGB">
<feFlood flood-opacity="0" result="BackgroundImageFix"/>
<feColorMatrix in="SourceAlpha" type="matrix" values="0 0 0 0 0 0 0 0 0 0 0 0 0 0 0 0 0 0 127 0"/>
<feOffset dx="-2" dy="4"/>
<feGaussianBlur stdDeviation="3"/>
<feColorMatrix type="matrix" values="0 0 0 0 1 0 0 0 0 0.442688 0 0 0 0 0 0 0 0 0.5 0"/>
<feBlend mode="normal" in2="BackgroundImageFix" result="effect1_dropShadow"/>
<feBlend mode="normal" in="SourceGraphic" in2="effect1_dropShadow" result="shape"/>
</filter>
<linearGradient id="paint0_linear" x1="8" y1="16.8422" x2="34.9813" y2="31.7848" gradientUnits="userSpaceOnUse">
<stop offset="0.000997827" stop-color="#E32A23"/>
<stop offset="1" stop-color="#FF7100"/>
</linearGradient>
</defs>
</svg>
