<svg width="47" height="47" viewBox="0 0 47 47" fill="none" xmlns="http://www.w3.org/2000/svg">
<g clip-path="url(#clip0)" filter="url(#filter0_d)">
<path d="M17.2692 13.4712C17.0291 13.321 16.7128 13.3938 16.5626 13.6338L14.6441 16.6996C14.4308 17.0405 14.6764 17.4843 15.0787 17.4843H16.0771L14.6427 19.8028C14.4938 20.0436 14.5682 20.3596 14.809 20.5085C15.0496 20.6575 15.3658 20.5831 15.5147 20.3423L17.4332 17.2414C17.6441 16.9005 17.3986 16.4589 16.9972 16.4589H16.0043L17.4318 14.1778C17.582 13.9378 17.5092 13.6214 17.2692 13.4712Z" fill="url(#paint0_linear)"/>
<path d="M40.9918 9.40134H35.5788C32.1036 9.40134 29.2763 12.2286 29.2763 15.7039V30.6974C29.2763 32.5116 27.8004 33.9875 25.9862 33.9875H20.8341C19.0199 33.9875 17.5441 32.5115 17.5441 30.6974V25.4935C18.2021 25.09 18.642 24.3641 18.642 23.5373V22.4384C20.841 21.4431 22.3746 19.2281 22.3746 16.6617V12.1885C23.0845 11.835 23.5737 11.102 23.5737 10.2565C23.5737 9.06706 22.606 8.09937 21.4165 8.09937H20.8801V6.698C20.8801 6.41485 20.6506 6.1853 20.3674 6.1853C20.0843 6.1853 19.8547 6.41485 19.8547 6.698V8.09937H18.8246V3.54048C18.8246 3.25645 19.0556 3.02539 19.3396 3.02539C19.6237 3.02539 19.8547 3.25645 19.8547 3.54048V7C19.8547 7.28314 20.0843 7.5 20.3674 7.5C20.6506 7.5 20.8801 6.98114 20.8801 6.698V3.54048C20.8801 2.69104 20.1891 2 19.3396 2C18.4902 2 17.7992 2.69104 17.7992 3.54048V8.0995H14.2764V3.54048C14.2764 2.69104 13.5854 2 12.7359 2C11.8865 2 11.1955 2.69104 11.1955 3.54048V8.0995H10.6591C9.46965 8.0995 8.50195 9.0672 8.50195 10.2566C8.50195 11.1021 8.99113 11.8351 9.70104 12.1886C9.70104 17.047 9.96307 18.2621 10.1224 18.6819C10.1404 18.9645 9.97428 17.5665 10.2581 17.5486C10.5407 17.5306 11.3313 19.3741 11.3134 19.0916C10.5765 17.0695 10.7264 17.04 10.7264 12.4139H21.3492V16.6619C21.3492 19.6787 18.8268 22.0932 15.8154 21.9682C13.9132 21.8903 12.198 20.8079 11.3134 19.0916C11.1837 18.8399 10.2518 15.3703 10 15.5C9.7483 15.6297 9.5 17 10.4019 19.5614C11.0741 20.8655 12.1503 21.8652 13.4336 22.4419V23.5375C13.4336 24.3643 13.8736 25.0902 14.5316 25.4937V30.6976C14.5316 34.1728 17.3589 37.0001 20.8341 37.0001H25.9862C29.4615 37.0001 32.2888 34.1729 32.2888 30.6976V15.7039C32.2888 13.8897 33.7646 12.4139 35.5788 12.4139H40.9918C41.8224 12.4139 42.498 11.7382 42.498 10.9076C42.498 10.0771 41.8224 9.40134 40.9918 9.40134ZM12.2209 3.54048C12.2209 3.25645 12.452 3.02539 12.736 3.02539C13.02 3.02539 13.2511 3.25645 13.2511 3.54048V8.0995H12.2209V3.54048ZM10.4483 11.368C10.4397 11.3663 10.4311 11.365 10.4226 11.3631C9.91173 11.254 9.52734 10.7996 9.52734 10.2566C9.52734 9.6326 10.035 9.12489 10.6591 9.12489H21.4165C22.0406 9.12489 22.5483 9.6326 22.5483 10.2566C22.5483 10.8083 22.1519 11.2685 21.6274 11.368C21.4498 11.4017 10.6171 11.4 10.4483 11.368ZM14.459 22.8002C15.5151 23.0699 16.6091 23.0588 17.6166 22.7994V23.5374C17.6166 24.2452 17.0358 24.805 16.349 24.805C15.6793 24.805 15.5696 24.8214 15.3215 24.7374C14.8208 24.5678 14.4591 24.0945 14.4591 23.5374L14.459 22.8002ZM40.9918 11.3884H35.5788C33.1992 11.3884 31.2634 13.3243 31.2634 15.7039V30.6974C31.2634 33.6072 28.8961 35.9745 25.9862 35.9745H20.8341C17.9243 35.9745 15.557 33.6073 15.557 30.6974V25.8242C15.6969 25.8344 16.3793 25.8344 16.5187 25.8242V30.6974C16.5187 33.077 18.4546 35.0129 20.8341 35.0129H25.9862C28.3658 35.0129 30.3017 33.0769 30.3017 30.6974V15.7039C30.3017 12.7941 32.669 10.4268 35.5788 10.4268H40.9918C41.257 10.4268 41.4726 10.6425 41.4726 10.9076C41.4726 11.1727 41.257 11.3884 40.9918 11.3884Z" fill="url(#paint1_linear)"/>
</g>
<defs>
<filter id="filter0_d" x="0" y="0" width="47" height="47" filterUnits="userSpaceOnUse" color-interpolation-filters="sRGB">
<feFlood flood-opacity="0" result="BackgroundImageFix"/>
<feColorMatrix in="SourceAlpha" type="matrix" values="0 0 0 0 0 0 0 0 0 0 0 0 0 0 0 0 0 0 127 0"/>
<feOffset dx="-2" dy="4"/>
<feGaussianBlur stdDeviation="3"/>
<feColorMatrix type="matrix" values="0 0 0 0 1 0 0 0 0 0.442688 0 0 0 0 0 0 0 0 0.5 0"/>
<feBlend mode="normal" in2="BackgroundImageFix" result="effect1_dropShadow"/>
<feBlend mode="normal" in="SourceGraphic" in2="effect1_dropShadow" result="shape"/>
</filter>
<linearGradient id="paint0_linear" x1="14.5654" y1="16.8802" x2="17.4198" y2="17.4464" gradientUnits="userSpaceOnUse">
<stop offset="0.000997827" stop-color="#E32A23"/>
<stop offset="1" stop-color="#FF7100"/>
</linearGradient>
<linearGradient id="paint1_linear" x1="8.50195" y1="18.9698" x2="36.5409" y2="32.1617" gradientUnits="userSpaceOnUse">
<stop offset="0.000997827" stop-color="#E32A23"/>
<stop offset="1" stop-color="#FF7100"/>
</linearGradient>
<clipPath id="clip0">
<rect width="35" height="35" fill="white" transform="translate(8 2)"/>
</clipPath>
</defs>
</svg>
