<svg width="47" height="47" viewBox="0 0 47 47" fill="none" xmlns="http://www.w3.org/2000/svg">
<g clip-path="url(#clip0)" filter="url(#filter0_d)">
<path d="M42.9083 15.5256C42.7196 15.1987 42.3016 15.0866 41.9745 15.2754L31.8336 21.1303C31.9591 19.0058 31.1743 16.8797 29.6473 15.3527C28.1203 13.8257 25.9945 13.0401 23.8698 13.1665L29.7246 3.02547C29.9134 2.69852 29.8013 2.28049 29.4744 2.0917C29.1473 1.9029 28.7293 2.01501 28.5406 2.3419L22.39 12.9949C22.0545 12.7935 21.6464 12.7211 21.2425 12.8007C20.6895 12.9095 20.2303 13.2825 20.0142 13.7983L18.9178 16.4146L12.7292 22.6033C10.0638 25.2686 10.0638 29.6055 12.7292 32.2708C13.3829 32.9245 14.2443 33.4169 14.8285 33.6886V35.6327H8.68357C8.30612 35.6327 8 35.9388 8 36.3162C8 36.6937 8.30612 36.9998 8.68357 36.9998H26.4421C26.8195 36.9998 27.1256 36.6937 27.1256 36.3162C27.1256 35.9388 26.8195 35.6327 26.4421 35.6327H20.2972V33.6994C21.0812 33.3601 21.786 32.8812 22.3966 32.2706L28.5852 26.082L31.2017 24.9856C31.7175 24.7695 32.0905 24.3103 32.1992 23.7572C32.2787 23.3532 32.2063 22.9453 32.005 22.6097L42.658 16.4592C42.9851 16.2706 43.0971 15.8525 42.9083 15.5256ZM28.6805 16.3195C29.9211 17.56 30.5623 19.284 30.4706 21.01L23.9899 14.5292C25.716 14.4376 27.4399 15.0788 28.6805 16.3195ZM16.1958 35.6327V28.1206C16.1958 27.3667 16.8091 26.7534 17.5629 26.7534C18.3167 26.7534 18.9301 27.3668 18.9301 28.1206V35.6327L16.1958 35.6327ZM21.4299 31.304C21.088 31.6458 20.7086 31.9349 20.2973 32.1713V28.1206C20.2973 26.6129 19.0707 25.3862 17.5629 25.3862C16.0552 25.3862 14.8286 26.6129 14.8286 28.1206V32.1467C14.4391 31.9195 14.0207 31.6287 13.696 31.304C12.6679 30.2759 12.1017 28.9027 12.1017 27.4371C12.1017 25.9715 12.6679 24.5982 13.696 23.5702L16.5961 20.6701L24.33 28.404L21.4299 31.304ZM30.8579 23.4934C30.8479 23.5439 30.8101 23.6675 30.6734 23.7248L28.3561 24.6958L26.5051 22.8449C26.2381 22.578 25.8055 22.578 25.5384 22.8449C25 22.5 25.2714 23.5447 25.5384 23.8117L27.2303 25.5036L25.2968 27.4372L17.5629 19.7032L19.4964 17.7697L25.4648 23.7248C25.5983 23.8583 25.3634 22.8449 25.5384 22.8449C25.4049 22.9784 25.7133 22.8449 25.5384 22.8449C25.5384 22.8449 26.7721 23.1119 26.5051 22.8449L20.3042 16.6438L21.2752 14.3265C21.3325 14.1898 21.456 14.1519 21.5065 14.142C21.5474 14.134 21.6501 14.1227 21.7198 14.1925L30.8073 23.28C30.8771 23.3499 30.8659 23.4525 30.8579 23.4934Z" fill="url(#paint0_linear)"/>
<path d="M32.6836 12.7011C32.8586 12.7011 33.0335 12.6344 33.167 12.5009L36.501 9.16692C36.7679 8.89998 36.7679 8.46716 36.501 8.20015C36.234 7.93328 35.8013 7.93328 35.5342 8.20015L32.2002 11.5342C31.9333 11.8011 31.9333 12.2339 32.2002 12.5009C32.3337 12.6344 32.5085 12.7011 32.6836 12.7011Z" fill="url(#paint1_linear)"/>
</g>
<defs>
<filter id="filter0_d" x="0" y="0" width="47" height="47" filterUnits="userSpaceOnUse" color-interpolation-filters="sRGB">
<feFlood flood-opacity="0" result="BackgroundImageFix"/>
<feColorMatrix in="SourceAlpha" type="matrix" values="0 0 0 0 0 0 0 0 0 0 0 0 0 0 0 0 0 0 127 0"/>
<feOffset dx="-2" dy="4"/>
<feGaussianBlur stdDeviation="3"/>
<feColorMatrix type="matrix" values="0 0 0 0 1 0 0 0 0 0.442688 0 0 0 0 0 0 0 0 0.5 0"/>
<feBlend mode="normal" in2="BackgroundImageFix" result="effect1_dropShadow"/>
<feBlend mode="normal" in="SourceGraphic" in2="effect1_dropShadow" result="shape"/>
</filter>
<linearGradient id="paint0_linear" x1="8" y1="18.9696" x2="36.5566" y2="32.802" gradientUnits="userSpaceOnUse">
<stop offset="0.000997827" stop-color="#E32A23"/>
<stop offset="1" stop-color="#FF7100"/>
</linearGradient>
<linearGradient id="paint1_linear" x1="32" y1="10.2793" x2="35.8357" y2="12.1373" gradientUnits="userSpaceOnUse">
<stop offset="0.000997827" stop-color="#E32A23"/>
<stop offset="1" stop-color="#FF7100"/>
</linearGradient>
<clipPath id="clip0">
<rect width="35" height="35" fill="white" transform="translate(8 2)"/>
</clipPath>
</defs>
</svg>
