<svg width="47" height="45" viewBox="0 0 47 45" fill="none" xmlns="http://www.w3.org/2000/svg">
<g clip-path="url(#clip0)" filter="url(#filter0_d)">
<path d="M16.9382 6.07115C16.8953 5.79122 16.6332 5.59845 16.3533 5.64206L13.9467 6.01175C13.8739 6.02289 13.8044 6.04962 13.7429 6.09002L13.6965 6.12051L12.0691 3.64317C11.8225 3.26774 11.4444 3.01078 11.0044 2.91965C10.5647 2.8288 10.1155 2.91425 9.73997 3.16089L8.75785 3.80607C7.98293 4.31514 7.76651 5.35994 8.27565 6.13514L9.90301 8.61247L9.87197 8.63285C9.81045 8.67325 9.75836 8.72643 9.71926 8.78871L8.41353 10.8678C8.26286 11.1077 8.33519 11.4243 8.57506 11.575C8.65989 11.6283 8.75416 11.6536 8.8474 11.6536C9.01796 11.6536 9.18482 11.5685 9.28223 11.4135L9.93226 10.3784L10.0721 10.9586C10.0721 10.9586 10.0721 10.9587 10.0721 10.9588C10.1265 11.1839 10.2875 11.3693 10.503 11.4544C10.5874 11.4877 10.6762 11.5042 10.7647 11.5042C10.9021 11.5042 11.0385 11.4646 11.1563 11.3872L15.7454 8.3726C15.9391 8.24545 16.0592 8.03122 16.0665 7.79968C16.0739 7.56808 15.9678 7.34667 15.7826 7.20735L15.297 6.84218L16.5091 6.65603C16.7891 6.61303 16.9813 6.35115 16.9382 6.07115ZM9.13308 5.57192C8.93449 5.26957 9.01885 4.86201 9.3212 4.6635L10.3033 4.01832C10.4116 3.94716 10.5355 3.91038 10.6621 3.91038C10.7068 3.91038 10.7518 3.91496 10.7965 3.92419C10.9681 3.95974 11.1156 4.05995 11.2117 4.20645L12.8358 6.67866L10.7572 8.04414L9.13308 5.57192ZM10.9652 10.2855L10.7273 9.29846L13.9987 7.14945L14.8102 7.75976L10.9652 10.2855Z" fill="url(#paint0_linear)"/>
<path d="M42.2416 3.8061L41.2595 3.16092C40.8839 2.91428 40.4349 2.82876 39.9951 2.91968C39.5551 3.0108 39.1771 3.26777 38.9304 3.6432L37.3064 6.11548L37.2677 6.09005C37.2061 6.04965 37.1366 6.02292 37.0639 6.01178L34.6573 5.64209C34.3776 5.59909 34.1154 5.79125 34.0724 6.07118C34.0294 6.35118 34.2216 6.61306 34.5015 6.65606L35.7044 6.84084L35.2168 7.20745C35.0317 7.3467 34.9255 7.56811 34.9329 7.79971C34.9403 8.03125 35.0604 8.24548 35.254 8.3727L39.8432 11.3873C39.961 11.4647 40.0975 11.5043 40.2347 11.5043C40.3233 11.5043 40.4121 11.4879 40.4965 11.4545C40.712 11.3694 40.8729 11.184 40.9274 10.9589C40.9274 10.9588 40.9274 10.9587 40.9274 10.9587L41.0703 10.3658L41.7284 11.4135C41.8258 11.5687 41.9927 11.6537 42.1632 11.6537C42.2565 11.6537 42.3508 11.6283 42.4356 11.5751C42.6754 11.4244 42.7478 11.1078 42.5971 10.8678L41.2912 8.78867C41.2521 8.72632 41.2 8.67321 41.1385 8.63281L41.0998 8.60738L42.7239 6.1351C43.233 5.36004 43.0166 4.31524 42.2416 3.8061ZM40.0344 10.2856L36.1893 7.75979L37.0059 7.14558L37.1718 7.25455L37.1852 7.2633L40.2738 9.2922L40.0344 10.2856ZM41.8665 5.57195L40.2425 8.04423L38.1638 6.67876L39.7878 4.20648C39.884 4.05998 40.0314 3.95977 40.203 3.92422C40.3746 3.88874 40.5497 3.92217 40.6962 4.01835L41.6783 4.66353C41.9807 4.86211 42.065 5.26967 41.8665 5.57195Z" fill="url(#paint1_linear)"/>
<path d="M39.395 12.7805C39.115 12.7349 38.8519 12.9247 38.8064 13.2043L36.1254 29.6754C36.1141 29.6675 36.102 29.6598 36.0905 29.652C36.0691 29.6375 36.0477 29.6229 36.0256 29.6085C36.0085 29.5974 35.991 29.5865 35.9735 29.5755C35.951 29.5614 35.9286 29.5474 35.9054 29.5335C35.887 29.5225 35.8682 29.5116 35.8493 29.5006C35.8258 29.487 35.8021 29.4734 35.7778 29.4598C35.7582 29.4489 35.7382 29.438 35.7181 29.4271C35.6934 29.4138 35.6684 29.4006 35.643 29.3874C35.6319 29.3816 35.6212 29.3757 35.61 29.3701L26.2137 19.6594L35.0036 10.5751C35.2007 10.3715 35.1953 10.0468 34.9917 9.84987C34.7881 9.65286 34.4633 9.65826 34.2665 9.86184L25.5 18.9218L16.7392 9.86758C16.5423 9.66401 16.2175 9.65861 16.0139 9.85562C15.8103 10.0526 15.805 10.3773 16.002 10.5808L24.7863 19.6594L15.3902 29.3701C15.3789 29.3758 15.3682 29.3816 15.3571 29.3874C15.3317 29.4006 15.3068 29.4138 15.2821 29.4271C15.262 29.438 15.242 29.4489 15.2223 29.4598C15.1981 29.4734 15.1743 29.487 15.1508 29.5006C15.1319 29.5116 15.1131 29.5225 15.0947 29.5335C15.0715 29.5474 15.049 29.5615 15.0266 29.5755C15.0091 29.5864 14.9916 29.5974 14.9745 29.6085C14.9524 29.6229 14.9309 29.6374 14.9096 29.652C14.8981 29.6598 14.8859 29.6675 14.8747 29.6754L12.194 13.2069C12.1486 12.9272 11.8853 12.7376 11.6054 12.783C11.3258 12.8285 11.136 13.0921 11.1815 13.3717L14.0534 31.0153C14.0967 31.9841 15.3046 32.7618 17.6468 33.3277C19.7506 33.8358 22.5395 34.1157 25.5 34.1157C28.4605 34.1157 31.2494 33.8358 33.3533 33.3277C35.6954 32.7618 36.9033 31.984 36.9466 31.0153L39.8189 13.3691C39.8645 13.0896 39.6746 12.826 39.395 12.7805ZM25.5 20.397L33.4564 28.6198C33.4291 28.613 33.401 28.6064 33.3734 28.5997C33.3666 28.598 33.3601 28.5963 33.3532 28.5947C33.3468 28.5932 33.3403 28.5917 33.3339 28.5901C33.2797 28.577 33.225 28.5642 33.1698 28.5514C33.1599 28.5491 33.15 28.5468 33.14 28.5446C33.0824 28.5314 33.0243 28.5183 32.9657 28.5054C32.9562 28.5033 32.9466 28.5012 32.937 28.4991C32.8795 28.4865 32.8215 28.4741 32.763 28.4619C32.7504 28.4592 32.7377 28.4566 32.7251 28.454C32.6708 28.4427 32.6161 28.4316 32.5611 28.4206C32.5423 28.4169 32.5234 28.4131 32.5045 28.4093C32.456 28.3998 32.4072 28.3903 32.3581 28.381C32.3312 28.3758 32.3043 28.3707 32.2771 28.3657C32.2361 28.358 32.1948 28.3504 32.1533 28.3428C32.1166 28.3361 32.0798 28.3296 32.0428 28.323C32.0107 28.3173 31.9787 28.3117 31.9465 28.3061C31.899 28.2979 31.8513 28.2898 31.8033 28.2817C31.7811 28.278 31.7587 28.2743 31.7363 28.2706C31.6769 28.2608 31.6171 28.2512 31.557 28.2417C31.546 28.2399 31.535 28.2382 31.524 28.2365C30.2745 28.0403 28.8812 27.9078 27.4127 27.8462C27.1555 27.8354 26.896 27.8269 26.6346 27.8205C26.6336 27.8205 26.6327 27.8204 26.6318 27.8204C26.5464 27.8183 26.4608 27.8165 26.375 27.8149C26.366 27.8148 26.3572 27.8145 26.3482 27.8143C26.271 27.8129 26.1935 27.8118 26.116 27.8108C26.0988 27.8106 26.0817 27.8102 26.0645 27.81C25.991 27.8091 25.9173 27.8085 25.8436 27.808C25.823 27.8078 25.8026 27.8076 25.782 27.8074C25.6881 27.8069 25.5941 27.8066 25.4999 27.8066C25.4057 27.8066 25.3117 27.8068 25.2179 27.8074C25.1973 27.8076 25.1769 27.8078 25.1563 27.808C25.0825 27.8085 25.0088 27.8091 24.9354 27.81C24.9181 27.8102 24.901 27.8106 24.8839 27.8108C24.8064 27.8118 24.7289 27.8129 24.6517 27.8143C24.6427 27.8145 24.6338 27.8148 24.6249 27.8149C24.5391 27.8165 24.4535 27.8183 24.3681 27.8204C24.3672 27.8204 24.3663 27.8205 24.3653 27.8205C23.9222 27.8314 23.4845 27.8485 23.0542 27.8718C21.7814 27.9409 20.5732 28.0642 19.4759 28.2365C19.4648 28.2382 19.4538 28.2399 19.4427 28.2417C19.3826 28.2512 19.3229 28.2609 19.2635 28.2706C19.2412 28.2743 19.2189 28.278 19.1966 28.2818C19.1486 28.2899 19.1008 28.298 19.0533 28.3062C19.0211 28.3118 18.989 28.3174 18.957 28.3231C18.92 28.3296 18.8832 28.3362 18.8465 28.3429C18.805 28.3504 18.7638 28.358 18.7227 28.3657C18.6956 28.3708 18.6686 28.3759 18.6417 28.381C18.5926 28.3904 18.5438 28.3998 18.4953 28.4094C18.4764 28.4132 18.4575 28.4169 18.4387 28.4207C18.3836 28.4317 18.329 28.4428 18.2747 28.4541C18.2621 28.4566 18.2495 28.4593 18.2368 28.462C18.1783 28.4742 18.1204 28.4867 18.0628 28.4992C18.0532 28.5013 18.0437 28.5034 18.0341 28.5055C17.9755 28.5184 17.9174 28.5314 17.8598 28.5446C17.8499 28.5469 17.8399 28.5492 17.83 28.5515C17.7749 28.5642 17.7201 28.5771 17.6659 28.5902C17.6595 28.5917 17.653 28.5932 17.6466 28.5947C17.6398 28.5964 17.6332 28.5981 17.6264 28.5997C17.5988 28.6064 17.5707 28.6131 17.5434 28.6198L25.5 20.397ZM33.1123 32.3305C31.0851 32.8202 28.3816 33.0899 25.5 33.0899C22.6184 33.0899 19.9149 32.8202 17.8877 32.3305C15.5821 31.7736 15.0772 31.1532 15.0772 30.9612C15.0772 30.8454 15.2616 30.5739 15.9127 30.2544C15.9162 30.2528 15.9199 30.2516 15.9234 30.2498C16.1995 30.1154 16.5242 29.9884 16.8908 29.8698C16.8913 29.8696 16.8917 29.8694 16.8922 29.8693C17.0333 29.8237 17.181 29.7793 17.3342 29.7363C17.3499 29.7319 17.366 29.7274 17.3819 29.723C17.4433 29.706 17.5057 29.6892 17.5689 29.6726C17.5846 29.6685 17.6 29.6644 17.6159 29.6602C19.5183 29.1668 22.216 28.8611 25.0909 28.8345C25.1102 28.8343 25.1295 28.8341 25.1488 28.8339C25.2656 28.833 25.3827 28.8324 25.5001 28.8324C25.6174 28.8324 25.7345 28.833 25.8514 28.8339C25.8707 28.8341 25.8899 28.8343 25.9092 28.8345C28.7841 28.8611 31.4818 29.1668 33.3843 29.6602C33.4001 29.6644 33.4156 29.6685 33.4313 29.6726C33.4945 29.6892 33.5568 29.706 33.6181 29.723C33.6341 29.7274 33.6501 29.7318 33.6659 29.7363C33.8191 29.7793 33.9667 29.8237 34.1079 29.8693C34.1083 29.8694 34.1088 29.8696 34.1093 29.8698C34.476 29.9884 34.8006 30.1153 35.0767 30.2498C35.0802 30.2515 35.0838 30.2528 35.0874 30.2544C35.7385 30.5738 35.9229 30.8454 35.9229 30.9612C35.9228 31.1532 35.4179 31.7735 33.1123 32.3305Z" fill="url(#paint2_linear)"/>
</g>
<defs>
<filter id="filter0_d" x="0" y="-1" width="47" height="47" filterUnits="userSpaceOnUse" color-interpolation-filters="sRGB">
<feFlood flood-opacity="0" result="BackgroundImageFix"/>
<feColorMatrix in="SourceAlpha" type="matrix" values="0 0 0 0 0 0 0 0 0 0 0 0 0 0 0 0 0 0 127 0"/>
<feOffset dx="-2" dy="4"/>
<feGaussianBlur stdDeviation="3"/>
<feColorMatrix type="matrix" values="0 0 0 0 1 0 0 0 0 0.442688 0 0 0 0 0 0 0 0 0.5 0"/>
<feBlend mode="normal" in2="BackgroundImageFix" result="effect1_dropShadow"/>
<feBlend mode="normal" in="SourceGraphic" in2="effect1_dropShadow" result="shape"/>
</filter>
<linearGradient id="paint0_linear" x1="8" y1="7.13609" x2="15.2422" y2="10.714" gradientUnits="userSpaceOnUse">
<stop offset="0.000997827" stop-color="#E32A23"/>
<stop offset="1" stop-color="#FF7100"/>
</linearGradient>
<linearGradient id="paint1_linear" x1="34.0664" y1="7.1361" x2="41.3032" y2="10.7069" gradientUnits="userSpaceOnUse">
<stop offset="0.000997827" stop-color="#E32A23"/>
<stop offset="1" stop-color="#FF7100"/>
</linearGradient>
<linearGradient id="paint2_linear" x1="11.1748" y1="21.5408" x2="32.9859" y2="33.9412" gradientUnits="userSpaceOnUse">
<stop offset="0.000997827" stop-color="#E32A23"/>
<stop offset="1" stop-color="#FF7100"/>
</linearGradient>
<clipPath id="clip0">
<rect width="35" height="35" fill="white" transform="translate(8 1)"/>
</clipPath>
</defs>
</svg>
