<svg width="45" height="47" viewBox="0 0 45 47" fill="none" xmlns="http://www.w3.org/2000/svg">
<g filter="url(#filter0_d)">
<path d="M34.878 19.7369C34.7776 19.4721 34.4815 19.3388 34.2169 19.4392C33.9521 19.5396 33.8188 19.8355 33.9192 20.1003L34.6784 22.1039C34.7561 22.3088 34.9509 22.435 35.1579 22.435C35.2184 22.435 35.2797 22.4243 35.3396 22.4016C35.6043 22.3012 35.7376 22.0053 35.6373 21.7405L34.878 19.7369Z" fill="url(#paint0_linear)"/>
<path d="M40.2952 16.8376L38.3397 15.9561C38.0818 15.8397 37.778 15.9545 37.6617 16.2128C37.5452 16.4708 37.6602 16.7745 37.9183 16.8908L39.8738 17.7723C39.9422 17.8032 40.0138 17.8178 40.0842 17.8178C40.2796 17.8178 40.4664 17.7054 40.5519 17.5157C40.6683 17.2575 40.5534 16.954 40.2952 16.8376Z" fill="url(#paint1_linear)"/>
<path d="M29.4966 19.2905C29.2384 19.1735 28.9348 19.2881 28.818 19.546L27.9345 21.4972C27.8176 21.7551 27.9321 22.0589 28.19 22.1757C28.2586 22.2068 28.3305 22.2215 28.4011 22.2215C28.5962 22.2215 28.7828 22.1095 28.8685 21.9202L29.7521 19.969C29.8689 19.7111 29.7545 19.4073 29.4966 19.2905Z" fill="url(#paint2_linear)"/>
<path d="M39.7448 11.2233C39.9929 11.1291 40.1913 10.9049 40.2503 10.6522C40.302 10.4307 40.2448 10.2104 40.0959 10.0504L36.1819 5.78695C35.9004 5.47811 35.5975 5.37927 35.2817 5.49315L35.2781 5.49465L35.2748 5.49575L32.9899 6.35705L32.0901 3.98443C31.4921 2.40196 29.7155 1.60047 28.1304 2.19778L26.87 2.67245C25.2866 3.2714 24.4839 5.04568 25.0818 6.62768L25.0922 6.65516L14.6463 10.591C13.3024 9.70225 11.5034 9.62788 10.0606 10.548C9.11591 11.1511 8.46268 12.0853 8.22165 13.1783C7.9807 14.2712 8.18037 15.3929 8.78424 16.3375C9.53282 17.5048 10.7699 18.1771 12.0614 18.2592L13.588 23.0636C13.6573 23.2818 14.9497 26.5 15.1671 26.5C15.1155 26.5164 15.2185 26.5 15.1671 26.5C15.4369 26.4143 14.6509 23.0229 14.5651 22.753L13.1162 18.1931C13.5856 18.1036 14.0465 17.9328 14.478 17.6754L18.2003 29.3948C17.7228 29.4669 17.2556 29.6193 16.8203 29.8521L14.5651 22.753C14.4791 22.4834 14.9422 24.7194 14.6723 24.8051C14.4026 24.8911 13.5019 22.7939 13.588 23.0636L15.9428 30.4757C15.9 30.5151 15.8573 30.5547 15.8157 30.5962C15.1283 31.2821 14.7043 32.1609 14.5915 33.1108H12.022C10.948 33.1108 10.0742 33.9831 10.0742 35.0553V36.2702C10.0742 36.6725 10.4009 36.9999 10.8024 36.9999H26.8896C27.2922 36.9999 27.6198 36.6725 27.6198 36.2702V35.0553C27.6198 33.9831 26.746 33.1108 25.672 33.1108H23.1022C22.9892 32.1618 22.5646 31.2831 21.8764 30.5962C21.1479 29.8694 20.2202 29.4597 19.2671 29.3666L15.3381 16.9959C15.8766 16.4428 16.2528 15.7506 16.4227 14.9783C16.5188 14.5416 16.5433 14.1006 16.5012 13.6681L23.1953 11.1447L23.095 16.4628C23.092 16.6835 23.1966 16.8846 23.3817 17.0148C23.5146 17.1083 23.6814 17.1572 23.8487 17.1572C23.9465 17.1572 24.0445 17.1404 24.1361 17.1062L27.3567 15.8923C27.6659 16.5063 28.1028 17.0518 28.6391 17.4886C29.5523 18.2346 30.6559 18.5977 31.7532 18.5977C33.1798 18.5977 34.5959 17.9837 35.5683 16.7987C36.5703 15.5776 36.9171 13.9468 36.5219 12.4376L39.7448 11.2233ZM27.2319 3.63191L28.4919 3.15738C29.5487 2.7592 30.7327 3.29273 31.1311 4.34748L32.0304 6.71873L26.9392 8.63786L26.2339 6.77471L26.2334 6.77314L26.2327 6.77157L26.041 6.26504C25.6431 5.21213 26.1774 4.03105 27.2319 3.63191ZM26.5945 35.0554V35.9746H11.0996V35.0554C11.0996 34.5485 11.5135 34.1362 12.0221 34.1362H15.0728H22.6212H25.6721C26.1806 34.1362 26.5945 34.5485 26.5945 35.0554ZM22.0685 33.1108H15.6254C15.7316 32.4358 16.0471 31.8139 16.5399 31.3222C17.8114 30.0533 19.8806 30.0533 21.1522 31.3221C21.6458 31.8147 21.9619 32.4367 22.0685 33.1108ZM15.4214 14.758C15.2748 15.424 14.9257 16.0118 14.4223 16.4534C14.4177 16.4572 14.4135 16.4614 14.409 16.4653C14.2916 16.5672 14.1659 16.6611 14.0325 16.7463C12.5572 17.6854 10.5901 17.2538 9.64786 15.7846C9.19199 15.0716 9.04112 14.2244 9.22309 13.3992C9.40513 12.5737 9.89846 11.8682 10.6123 11.4125C12.0863 10.4726 14.0534 10.9041 14.9965 12.3748C15.452 13.0865 15.603 13.9328 15.4214 14.758ZM15.8598 11.8216C15.7545 11.6573 15.6388 11.5038 15.5155 11.3594L25.4553 7.61428L25.9797 8.99961L16.2726 12.6588C16.1673 12.3687 16.0303 12.0879 15.8598 11.8216ZM34.7758 16.1483C33.4133 17.8085 30.9516 18.0535 29.2873 16.6941C28.8911 16.3714 28.5636 15.9742 28.3229 15.5282L30.8715 14.5583C31.1365 14.4584 33.6525 13.3483 33.5526 13.0833C33.4528 12.8184 30.7995 13.4988 30.5345 13.5989L27.4577 14.7586C27.4546 14.7597 27.4515 14.7604 27.4485 14.7616C27.4455 14.7627 27.4427 14.7643 27.4396 14.7654L24.1291 16.0132L24.2284 10.7554L26.8145 9.78059C26.817 9.7797 26.8194 9.77916 26.8218 9.7782L32.8729 7.49766C32.8777 7.49588 32.8822 7.49349 32.8869 7.49158L35.4633 6.52036L39.024 10.3991L32.7075 12.7792C32.5759 12.8288 31.8026 13.0833 30.5345 13.5989C29.7135 14.0004 29.3142 14.4249 29.3645 14.5583C29.404 14.6633 30.0071 14.7866 30.8715 14.5583C31.6985 14.3399 32.9404 13.7871 33.0691 13.7387C33.0095 13.7611 33.1292 13.7387 33.0691 13.7387L35.5563 12.8015C35.827 13.966 35.5457 15.2099 34.7758 16.1483Z" fill="url(#paint3_linear)"/>
<path d="M12.3081 15.7714C11.7486 15.7715 11.2004 15.4958 10.8772 14.9913C10.6333 14.6107 10.5523 14.1582 10.6494 13.7171C10.7465 13.2752 11.0106 12.8976 11.3929 12.6537C12.1798 12.1518 13.2297 12.3825 13.733 13.1683C13.9769 13.5489 14.0579 14.0013 13.9609 14.4424C13.8637 14.8843 13.5997 15.262 13.2174 15.5058C12.9357 15.6856 12.6201 15.7714 12.3081 15.7714ZM12.3037 13.2597C12.152 13.2597 11.9987 13.3014 11.8617 13.3887C11.8617 13.3887 11.8617 13.3888 11.8616 13.3888C11.676 13.5072 11.5479 13.6904 11.5007 13.9045C11.4538 14.1177 11.4931 14.3367 11.6111 14.5209C11.8558 14.9026 12.3659 15.0148 12.7483 14.7709C12.934 14.6524 13.0621 14.4693 13.1093 14.2551C13.1562 14.0418 13.1169 13.8229 12.9989 13.6387C12.8419 13.3936 12.5755 13.2597 12.3037 13.2597ZM11.6273 13.0213H11.6279H11.6273Z" fill="url(#paint4_linear)"/>
</g>
<defs>
<filter id="filter0_d" x="-1" y="0" width="47" height="47" filterUnits="userSpaceOnUse" color-interpolation-filters="sRGB">
<feFlood flood-opacity="0" result="BackgroundImageFix"/>
<feColorMatrix in="SourceAlpha" type="matrix" values="0 0 0 0 0 0 0 0 0 0 0 0 0 0 0 0 0 0 127 0"/>
<feOffset dx="-2" dy="4"/>
<feGaussianBlur stdDeviation="3"/>
<feColorMatrix type="matrix" values="0 0 0 0 1 0 0 0 0 0.442688 0 0 0 0 0 0 0 0 0.5 0"/>
<feBlend mode="normal" in2="BackgroundImageFix" result="effect1_dropShadow"/>
<feBlend mode="normal" in="SourceGraphic" in2="effect1_dropShadow" result="shape"/>
</filter>
<linearGradient id="paint0_linear" x1="33.8857" y1="20.8745" x2="35.5483" y2="21.349" gradientUnits="userSpaceOnUse">
<stop offset="0.000997827" stop-color="#E32A23"/>
<stop offset="1" stop-color="#FF7100"/>
</linearGradient>
<linearGradient id="paint1_linear" x1="37.6162" y1="16.8353" x2="39.525" y2="18.2805" gradientUnits="userSpaceOnUse">
<stop offset="0.000997827" stop-color="#E32A23"/>
<stop offset="1" stop-color="#FF7100"/>
</linearGradient>
<linearGradient id="paint2_linear" x1="27.8887" y1="20.688" x2="29.6426" y2="21.2328" gradientUnits="userSpaceOnUse">
<stop offset="0.000997827" stop-color="#E32A23"/>
<stop offset="1" stop-color="#FF7100"/>
</linearGradient>
<linearGradient id="paint3_linear" x1="8.12207" y1="18.9696" x2="35.1543" y2="30.9962" gradientUnits="userSpaceOnUse">
<stop offset="0.000997827" stop-color="#E32A23"/>
<stop offset="1" stop-color="#FF7100"/>
</linearGradient>
<linearGradient id="paint4_linear" x1="10.6094" y1="14.0285" x2="13.3739" y2="15.3709" gradientUnits="userSpaceOnUse">
<stop offset="0.000997827" stop-color="#E32A23"/>
<stop offset="1" stop-color="#FF7100"/>
</linearGradient>
</defs>
</svg>
