<svg width="47" height="47" viewBox="0 0 47 47" fill="none" xmlns="http://www.w3.org/2000/svg">
<g clip-path="url(#clip0)" filter="url(#filter0_d)">
<path d="M8.00001 31.6563C7.99851 32.2022 8.21546 32.726 8.60254 33.1109L11.8889 36.3972C12.6923 37.2006 13.9948 37.2006 14.7982 36.3972L25.9042 25.2909L33.4865 22.565C33.6123 22.5198 33.7131 22.4236 33.764 22.3L36.7597 19.3041C37.254 18.8097 37.254 18.0081 36.7597 17.5138L27.4417 8.19604C26.9471 7.70223 26.146 7.70223 25.6514 8.19604L22.5181 11.3294C22.4291 11.4184 22.379 11.5392 22.379 11.6651V11.6679L19.7086 19.0954L8.60254 30.2014C8.21538 30.5864 7.99835 31.1103 8.00001 31.6563ZM17.703 22.4435L22.556 27.2966L17.423 32.4296L12.5701 27.5765L17.703 22.4435ZM26.3227 8.86694C26.4462 8.74326 26.6466 8.74319 26.7703 8.86678L26.7704 8.86694L36.0883 18.1849C36.2119 18.3085 36.212 18.5088 36.0884 18.6325L36.0883 18.6326L33.291 21.4299L23.5253 11.6644L26.3227 8.86694ZM20.4551 19.6916C20.5046 19.6421 20.5425 19.5824 20.5662 19.5165L23.0703 12.5521L32.4476 21.9293L25.483 24.4333C25.4172 24.457 25.3574 24.4949 25.308 24.5445L23.227 26.6254L18.3741 21.7725L20.4551 19.6916ZM9.2739 30.873L11.8988 28.2482L16.7518 33.1011L14.1266 35.7256C13.6936 36.1573 12.9929 36.1573 12.5599 35.7256L9.2739 32.4396C8.84205 32.0067 8.84205 31.3059 9.2739 30.873Z" fill="url(#paint0_linear)"/>
<path d="M40.4817 5.13904C40.2963 4.95365 39.9957 4.95365 39.8103 5.13904L36.1418 8.80754C35.9549 8.99143 35.9524 9.29202 36.1363 9.47891C36.3202 9.6658 36.6208 9.66833 36.8077 9.48445C36.8095 9.48263 36.8114 9.48081 36.8132 9.47891L40.4817 5.81041C40.6671 5.62502 40.6671 5.32443 40.4817 5.13904Z" fill="url(#paint1_linear)"/>
<path d="M38.5054 13.7457C38.5838 13.7457 38.6609 13.7263 38.7298 13.6891L42.7436 11.531C42.9764 11.4104 43.0672 11.1238 42.9466 10.8911C42.8259 10.6583 42.5393 10.5675 42.3066 10.6881C42.3024 10.6904 42.2982 10.6926 42.2941 10.6949L38.2803 12.8528C38.0494 12.9769 37.9628 13.2648 38.087 13.4958C38.1697 13.6498 38.3306 13.7459 38.5054 13.7457Z" fill="url(#paint2_linear)"/>
<path d="M33.4687 2.25635L31.3106 6.27015C31.1844 6.50001 31.2685 6.78857 31.4983 6.91477C31.7282 7.04098 32.0167 6.95695 32.1429 6.72709C32.1443 6.72464 32.1456 6.72219 32.1469 6.71973L34.3048 2.70593C34.4325 2.47687 34.3503 2.18775 34.1212 2.06012C33.8921 1.9325 33.603 2.01471 33.4754 2.24377C33.4731 2.24796 33.4708 2.25216 33.4687 2.25635Z" fill="url(#paint3_linear)"/>
<path d="M15.5421 29.4581C16.191 30.107 17.2431 30.107 17.892 29.4582C17.892 29.4582 17.892 29.4581 17.8921 29.4581L19.5707 27.7795C20.2196 27.1306 20.2196 26.0784 19.5707 25.4295C18.9218 24.7806 17.8697 24.7806 17.2208 25.4295L15.5424 27.108C14.8935 27.7569 14.8934 28.8089 15.5422 29.4578C15.5423 29.4579 15.5423 29.4579 15.5424 29.458L15.5421 29.4581ZM16.2135 27.7795L17.892 26.1011C18.1668 25.8196 18.6176 25.8142 18.8991 26.089C19.1805 26.3637 19.186 26.8145 18.9112 27.096C18.9071 27.1001 18.9031 27.1041 18.8991 27.1081L17.2208 28.7868C16.9426 29.0649 16.4916 29.0649 16.2135 28.7868C15.9353 28.5087 15.9353 28.0577 16.2135 27.7795Z" fill="url(#paint4_linear)"/>
</g>
<defs>
<filter id="filter0_d" x="0" y="0" width="47" height="47" filterUnits="userSpaceOnUse" color-interpolation-filters="sRGB">
<feFlood flood-opacity="0" result="BackgroundImageFix"/>
<feColorMatrix in="SourceAlpha" type="matrix" values="0 0 0 0 0 0 0 0 0 0 0 0 0 0 0 0 0 0 127 0"/>
<feOffset dx="-2" dy="4"/>
<feGaussianBlur stdDeviation="3"/>
<feColorMatrix type="matrix" values="0 0 0 0 1 0 0 0 0 0.442688 0 0 0 0 0 0 0 0 0.5 0"/>
<feBlend mode="normal" in2="BackgroundImageFix" result="effect1_dropShadow"/>
<feBlend mode="normal" in="SourceGraphic" in2="effect1_dropShadow" result="shape"/>
</filter>
<linearGradient id="paint0_linear" x1="8" y1="21.9707" x2="31.7812" y2="33.4727" gradientUnits="userSpaceOnUse">
<stop offset="0.000997827" stop-color="#E32A23"/>
<stop offset="1" stop-color="#FF7100"/>
</linearGradient>
<linearGradient id="paint1_linear" x1="36" y1="7.24036" x2="39.7701" y2="9.06651" gradientUnits="userSpaceOnUse">
<stop offset="0.000997827" stop-color="#E32A23"/>
<stop offset="1" stop-color="#FF7100"/>
</linearGradient>
<linearGradient id="paint2_linear" x1="38.0303" y1="12.1431" x2="41.1616" y2="14.5661" gradientUnits="userSpaceOnUse">
<stop offset="0.000997827" stop-color="#E32A23"/>
<stop offset="1" stop-color="#FF7100"/>
</linearGradient>
<linearGradient id="paint3_linear" x1="31.252" y1="4.41138" x2="34.1238" y2="5.28209" gradientUnits="userSpaceOnUse">
<stop offset="0.000997827" stop-color="#E32A23"/>
<stop offset="1" stop-color="#FF7100"/>
</linearGradient>
<linearGradient id="paint4_linear" x1="15.0557" y1="27.368" x2="19.1367" y2="29.3447" gradientUnits="userSpaceOnUse">
<stop offset="0.000997827" stop-color="#E32A23"/>
<stop offset="1" stop-color="#FF7100"/>
</linearGradient>
<clipPath id="clip0">
<rect width="35" height="35" fill="white" transform="translate(8 2)"/>
</clipPath>
</defs>
</svg>
