<svg width="51" height="54" viewBox="0 0 51 54" fill="none" xmlns="http://www.w3.org/2000/svg">
<g filter="url(#filter0_d)">
<mask id="mask0" mask-type="alpha" maskUnits="userSpaceOnUse" x="10" y="5" width="35" height="35">
<circle cx="27.5" cy="22.5" r="17.5" fill="#C4C4C4"/>
</mask>
<g mask="url(#mask0)">
<circle cx="27.4996" cy="22.5001" r="18.4722" fill="#415B9D"/>
<ellipse cx="28.9579" cy="25.9028" rx="11.1806" ry="17.0139" fill="white"/>
<path d="M38.2134 6.94434H14.8421C12.1724 6.94434 10 9.11673 10 11.7865V35.1578C10 37.8275 12.1724 39.9999 14.8421 39.9999H24.5909V28.3142H20.7172V22.5037H24.5909V18.5654C24.5909 15.3613 27.1974 12.7549 30.4015 12.7549H36.2766V18.5654H30.4015V22.5037H36.2766L35.3082 28.3142H30.4015V39.9999H38.2134C40.8832 39.9999 43.0556 37.8275 43.0556 35.1578V11.7865C43.0556 9.11673 40.8832 6.94434 38.2134 6.94434Z" fill="#415B9D"/>
</g>
</g>
<defs>
<filter id="filter0_d" x="-5" y="-2" width="61" height="61" filterUnits="userSpaceOnUse" color-interpolation-filters="sRGB">
<feFlood flood-opacity="0" result="BackgroundImageFix"/>
<feColorMatrix in="SourceAlpha" type="matrix" values="0 0 0 0 0 0 0 0 0 0 0 0 0 0 0 0 0 0 127 0"/>
<feOffset dx="-2" dy="6"/>
<feGaussianBlur stdDeviation="4"/>
<feColorMatrix type="matrix" values="0 0 0 0 0.254902 0 0 0 0 0.356863 0 0 0 0 0.615686 0 0 0 0.25 0"/>
<feBlend mode="normal" in2="BackgroundImageFix" result="effect1_dropShadow"/>
<feBlend mode="normal" in="SourceGraphic" in2="effect1_dropShadow" result="shape"/>
</filter>
</defs>
</svg>
