<svg width="51" height="54" viewBox="0 0 51 54" fill="none" xmlns="http://www.w3.org/2000/svg">
<g filter="url(#filter0_d)">
<mask id="mask0" mask-type="alpha" maskUnits="userSpaceOnUse" x="10" y="5" width="35" height="35">
<circle cx="27.5" cy="22.5" r="17.5" fill="#C4C4C4"/>
</mask>
<g mask="url(#mask0)">
<path d="M12.3026 7.49904C9.48263 10.4281 10.0598 13.5397 10.0598 22.9923C10.0598 30.8421 8.69017 38.7114 15.8582 40.5639C18.0965 41.1396 37.9288 41.1396 40.1642 40.5609C43.1486 39.7909 45.5768 37.3702 45.9087 33.1492C45.9551 32.5601 45.9551 13.435 45.9072 12.8339C45.5544 8.33785 42.7867 5.74667 39.1399 5.22185C38.3041 5.10074 38.1367 5.06486 33.8484 5.05738C18.6377 5.06486 15.3034 4.38753 12.3026 7.49904Z" fill="url(#paint0_linear)"/>
<path d="M28.0012 12.0099C23.9052 12.0099 20.0157 11.6458 18.53 15.4556C17.9164 17.0292 18.0055 19.0727 18.0055 21.9988C18.0055 24.5665 17.9231 26.9798 18.53 28.5409C20.0123 32.353 23.9334 31.9878 27.999 31.9878C31.9212 31.9878 35.9653 32.3958 37.469 28.5409C38.0838 26.9516 37.9936 24.9385 37.9936 21.9988C37.9936 18.0966 38.209 15.5774 36.315 13.686C34.3973 11.7698 31.8039 12.0099 27.9967 12.0099H28.0012ZM27.1055 13.81C35.6495 13.7964 36.7369 12.8474 36.1368 26.0318C35.9236 30.6949 32.3702 30.1832 28.0023 30.1832C20.0383 30.1832 19.8093 29.9555 19.8093 21.9943C19.8093 13.9407 20.441 13.8145 27.1055 13.8077V13.81ZM33.3369 15.468C32.6748 15.468 32.1378 16.0046 32.1378 16.6662C32.1378 17.3279 32.6748 17.8644 33.3369 17.8644C33.9991 17.8644 34.5361 17.3279 34.5361 16.6662C34.5361 16.0046 33.9991 15.468 33.3369 15.468ZM28.0012 16.8691C25.1664 16.8691 22.8686 19.1663 22.8686 21.9988C22.8686 24.8314 25.1664 27.1274 28.0012 27.1274C30.836 27.1274 33.1328 24.8314 33.1328 21.9988C33.1328 19.1663 30.836 16.8691 28.0012 16.8691ZM28.0012 18.6692C32.4063 18.6692 32.4119 25.3285 28.0012 25.3285C23.5973 25.3285 23.5905 18.6692 28.0012 18.6692Z" fill="white"/>
</g>
</g>
<defs>
<filter id="filter0_d" x="-5" y="-2" width="61" height="61" filterUnits="userSpaceOnUse" color-interpolation-filters="sRGB">
<feFlood flood-opacity="0" result="BackgroundImageFix"/>
<feColorMatrix in="SourceAlpha" type="matrix" values="0 0 0 0 0 0 0 0 0 0 0 0 0 0 0 0 0 0 127 0"/>
<feOffset dx="-2" dy="6"/>
<feGaussianBlur stdDeviation="4"/>
<feColorMatrix type="matrix" values="0 0 0 0 0.933333 0 0 0 0 0.294118 0 0 0 0 0.372549 0 0 0 0.25 0"/>
<feBlend mode="normal" in2="BackgroundImageFix" result="effect1_dropShadow"/>
<feBlend mode="normal" in="SourceGraphic" in2="effect1_dropShadow" result="shape"/>
</filter>
<linearGradient id="paint0_linear" x1="12.3714" y1="38.6502" x2="45.7225" y2="9.78516" gradientUnits="userSpaceOnUse">
<stop stop-color="#FFDD55"/>
<stop offset="0.5" stop-color="#FF543E"/>
<stop offset="1" stop-color="#C837AB"/>
</linearGradient>
</defs>
</svg>
