<svg width="25" height="21" viewBox="0 0 25 21" fill="none" xmlns="http://www.w3.org/2000/svg">
<path d="M22.002 2.50195H4.0842C3.79008 2.50195 3.51473 2.5718 3.26562 2.68693L13.0006 12.091L15.1826 10.0653C15.1826 10.0653 15.1827 10.0651 15.1828 10.065C15.1828 10.0649 15.183 10.0649 15.183 10.0649L22.8209 2.6871C22.5717 2.57188 22.2962 2.50195 22.002 2.50195Z" fill="#2D2D2D"/>
<path d="M23.7218 3.55713L16.5342 10.5L23.7215 17.443C23.8407 17.2024 23.913 16.9364 23.913 16.6523V4.34758C23.913 4.06363 23.8409 3.79769 23.7218 3.55713Z" fill="#2D2D2D"/>
<path d="M2.36532 3.55713C2.24614 3.79777 2.17383 4.06375 2.17383 4.34787V16.6526C2.17383 16.9365 2.24605 17.2025 2.36515 17.4431L9.55278 10.5002L2.36532 3.55713Z" fill="#2D2D2D"/>
<path d="M15.6335 11.3697L13.4513 13.3956C13.3269 13.5158 13.1639 13.5759 13.001 13.5759C12.8381 13.5759 12.6751 13.5158 12.5507 13.3956L10.4534 11.3696L3.26562 18.3125C3.51478 18.4278 3.79029 18.4977 4.08449 18.4977H22.0023C22.2964 18.4977 22.5718 18.4278 22.8209 18.3127L15.6335 11.3697Z" fill="#2D2D2D"/>
</svg>
