<svg width="51" height="54" viewBox="0 0 51 54" fill="none" xmlns="http://www.w3.org/2000/svg">
<g filter="url(#filter0_d)">
<circle cx="27.5" cy="22.5" r="17.5" fill="#F77C00"/>
<path d="M27.4546 22.9998C30.5384 22.9998 33.0468 20.4851 33.0468 17.3923C33.0468 14.2999 30.5384 11.7852 27.4546 11.7852C24.3705 11.7852 21.8623 14.2999 21.8623 17.3923C21.8623 20.4851 24.3705 22.9998 27.4546 22.9998ZM27.4546 14.5886C28.9966 14.5886 30.2506 15.8461 30.2506 17.3923C30.2506 18.9385 28.9966 20.1962 27.4546 20.1962C25.9125 20.1962 24.6583 18.9385 24.6583 17.3923C24.6583 15.8461 25.9125 14.5886 27.4546 14.5886Z" fill="white"/>
<path d="M34.8702 22.844C34.3235 22.2958 33.4397 22.2958 32.8933 22.844C29.8959 25.8495 25.0165 25.8495 22.0178 22.844C21.4713 22.2958 20.5875 22.2958 20.0409 22.844C19.4942 23.392 19.4942 24.2782 20.0409 24.8278C21.78 26.5715 23.9846 27.5656 26.258 27.8246L22.2721 31.8214C21.7257 32.3695 21.7257 33.2554 22.2721 33.8035C22.8189 34.3518 23.7023 34.3518 24.249 33.8035L27.4549 30.5892L30.6607 33.8035C30.9334 34.0768 31.291 34.2145 31.649 34.2145C32.007 34.2145 32.3647 34.0768 32.6373 33.8035C33.184 33.2553 33.184 32.3695 32.6373 31.8213L28.6515 27.8245C30.9248 27.5656 33.1295 26.5715 34.8687 24.8277C35.4154 24.2793 35.4154 23.392 34.8702 22.844Z" fill="white"/>
</g>
<defs>
<filter id="filter0_d" x="-5" y="-2" width="61" height="61" filterUnits="userSpaceOnUse" color-interpolation-filters="sRGB">
<feFlood flood-opacity="0" result="BackgroundImageFix"/>
<feColorMatrix in="SourceAlpha" type="matrix" values="0 0 0 0 0 0 0 0 0 0 0 0 0 0 0 0 0 0 127 0"/>
<feOffset dx="-2" dy="6"/>
<feGaussianBlur stdDeviation="4"/>
<feColorMatrix type="matrix" values="0 0 0 0 0.968627 0 0 0 0 0.486275 0 0 0 0 0 0 0 0 0.25 0"/>
<feBlend mode="normal" in2="BackgroundImageFix" result="effect1_dropShadow"/>
<feBlend mode="normal" in="SourceGraphic" in2="effect1_dropShadow" result="shape"/>
</filter>
</defs>
</svg>
