<svg width="12" height="12" viewBox="0 0 12 12" fill="none" xmlns="http://www.w3.org/2000/svg">
<path d="M11.731 9.49142L9.87777 7.6338C9.50864 7.26533 8.89736 7.27652 8.51538 7.65951L7.73073 8.44577C7.6425 8.53417 7.50634 8.55358 7.39749 8.49235C6.80789 8.16492 6.00093 7.71614 5.15177 6.86444C4.3001 6.01094 3.85192 5.20091 3.52424 4.6096C3.46531 4.50284 3.48357 4.36939 3.56975 4.28314L4.05043 3.80209L4.3585 3.49294C4.74107 3.1094 4.75162 2.4969 4.38336 2.12736L2.53014 0.26953C2.16188 -0.0994993 1.55033 -0.0883041 1.16776 0.295237L0.652964 0.814158C0.648816 0.818339 0.648838 0.825091 0.653013 0.829245C0.656845 0.833058 0.657225 0.839126 0.65391 0.843395C0.481352 1.06564 0.337039 1.32131 0.229341 1.59679C0.128949 1.86195 0.0664456 2.11499 0.0378657 2.36854C-0.206839 4.40179 0.720198 6.26003 3.23606 8.78163C6.71374 12.267 9.5163 12.0037 9.6372 11.9908C9.90052 11.9593 10.1529 11.8962 10.4093 11.7964C10.6825 11.6894 10.9381 11.5445 11.1601 11.3713C11.1634 11.3687 11.168 11.3689 11.1711 11.3717C11.1745 11.3747 11.1797 11.3746 11.1829 11.3714L11.7063 10.8577C12.0881 10.4743 12.0991 9.86156 11.731 9.49142Z" fill="white"/>
</svg>
