<svg width="17" height="17" viewBox="0 0 17 17" fill="none" xmlns="http://www.w3.org/2000/svg">
<path d="M11.3523 1.94503C8.75889 -0.648343 4.53798 -0.648343 1.94461 1.94503C-0.648203 4.53896 -0.648203 8.75931 1.94461 11.3532C4.25408 13.6621 7.85096 13.9095 10.4426 12.1066C10.4972 12.3646 10.622 12.6109 10.8227 12.8116L14.5995 16.5883C15.1498 17.1376 16.0392 17.1376 16.5868 16.5883C17.1366 16.0385 17.1366 15.1491 16.5868 14.601L12.81 10.8231C12.6104 10.6241 12.3636 10.4987 12.1056 10.4442C13.9097 7.85194 13.6623 4.25562 11.3523 1.94503ZM10.1599 10.1608C8.22368 12.097 5.07262 12.097 3.13701 10.1608C1.20196 8.22467 1.20196 5.07417 3.13701 3.13799C5.07262 1.20238 8.22368 1.20238 10.1599 3.13799C12.096 5.07417 12.096 8.22467 10.1599 10.1608Z" fill="white"/>
</svg>
