<svg width="23" height="23" viewBox="0 0 23 23" fill="none" xmlns="http://www.w3.org/2000/svg">
<path d="M21.7504 5.52847L21.7438 5.50193C21.207 3.33212 18.7873 1.0038 16.5651 0.519412L16.5401 0.514251C12.9458 -0.171417 9.30149 -0.171417 5.708 0.514251L5.68219 0.519412C3.46078 1.0038 1.04104 3.33212 0.50356 5.50193L0.497662 5.52847C-0.165887 8.55868 -0.165887 11.6317 0.497662 14.6619L0.50356 14.6884C1.01811 16.7656 3.25766 18.9869 5.39687 19.5979V22.02C5.39687 22.8966 6.46518 23.3271 7.0727 22.6946L9.52672 20.1437C10.059 20.1734 10.5915 20.19 11.124 20.19C12.9333 20.19 14.7433 20.019 16.5401 19.6762L16.5651 19.671C18.7873 19.1866 21.207 16.8583 21.7438 14.6885L21.7504 14.6619C22.414 11.6317 22.414 8.55868 21.7504 5.52847ZM19.8084 14.2224C19.4501 15.638 17.6128 17.3979 16.153 17.723C14.2419 18.0864 12.3157 18.2418 10.3914 18.1885C10.3531 18.1874 10.3163 18.2023 10.2897 18.2297C10.0166 18.51 8.49786 20.069 8.49786 20.069L6.59199 22.025C6.45265 22.1703 6.20787 22.0715 6.20787 21.871V17.8585C6.20787 17.7923 6.16054 17.7359 6.09544 17.7232C6.09507 17.7231 6.0947 17.723 6.09433 17.723C4.63452 17.3978 2.79797 15.6379 2.43891 14.2224C1.84172 11.4834 1.84172 8.7068 2.43891 5.96781C2.79797 4.55224 4.63452 2.79236 6.09433 2.46722C9.43198 1.83243 12.8161 1.83243 16.153 2.46722C17.6135 2.79236 19.4501 4.55224 19.8084 5.96781C20.4063 8.70687 20.4063 11.4835 19.8084 14.2224Z" fill="#7D3DAF"/>
<path d="M14.3002 16.0743C14.0757 16.0062 13.8618 15.9604 13.6632 15.878C11.605 15.0241 9.71083 13.9225 8.21039 12.2337C7.35714 11.2734 6.68932 10.1892 6.12479 9.0419C5.85708 8.49779 5.63147 7.93237 5.40152 7.37064C5.19184 6.85838 5.50068 6.32916 5.82589 5.9432C6.13105 5.58097 6.52373 5.30375 6.94899 5.09946C7.28091 4.93998 7.60833 5.03192 7.85075 5.31327C8.37481 5.92152 8.85617 6.56089 9.24597 7.26594C9.48566 7.69961 9.4199 8.22971 8.98549 8.52484C8.87992 8.59658 8.7837 8.68078 8.68535 8.76181C8.59909 8.83281 8.51791 8.90454 8.45878 9.00068C8.3507 9.1766 8.34554 9.38407 8.41514 9.57532C8.95084 11.0475 9.85378 12.1923 11.3356 12.8089C11.5727 12.9075 11.8108 13.0224 12.084 12.9905C12.5415 12.9371 12.6896 12.4353 13.0101 12.1731C13.3235 11.9169 13.7239 11.9135 14.0614 12.1271C14.399 12.3408 14.7263 12.5701 15.0516 12.8019C15.3709 13.0295 15.6888 13.252 15.9834 13.5114C16.2665 13.7608 16.3641 14.088 16.2046 14.4265C15.9127 15.0464 15.4878 15.5622 14.875 15.8914C14.702 15.9842 14.4953 16.0143 14.3002 16.0743C14.0757 16.0061 14.4953 16.0143 14.3002 16.0743Z" fill="#7D3DAF"/>
<path d="M11.1299 4.39077C13.8221 4.46619 16.0332 6.25284 16.5071 8.91441C16.5878 9.36791 16.6166 9.83158 16.6525 10.2919C16.6676 10.4855 16.5579 10.6694 16.349 10.6719C16.1332 10.6745 16.0361 10.494 16.0221 10.3004C15.9944 9.91733 15.9751 9.53254 15.9223 9.15262C15.6436 7.14715 14.0445 5.48799 12.0483 5.13195C11.748 5.07835 11.4405 5.06427 11.1362 5.03235C10.9439 5.01215 10.692 5.0005 10.6493 4.7614C10.6136 4.56093 10.7828 4.40131 10.9737 4.39106C11.0256 4.38819 11.0778 4.39055 11.1299 4.39077C13.8221 4.46619 11.0778 4.39055 11.1299 4.39077Z" fill="#7D3DAF"/>
<path d="M15.2208 9.69408C15.2164 9.7277 15.2141 9.80674 15.1944 9.8812C15.1229 10.1515 14.7132 10.1853 14.6188 9.91253C14.5908 9.83158 14.5866 9.7395 14.5865 9.65235C14.5855 9.08214 14.4616 8.51252 14.1741 8.01641C13.8785 7.50651 13.4269 7.07785 12.8972 6.81848C12.577 6.66166 12.2306 6.56419 11.8796 6.5061C11.7262 6.48073 11.5711 6.46532 11.4169 6.44387C11.2301 6.41792 11.1304 6.29885 11.1392 6.11475C11.1475 5.94222 11.2735 5.81814 11.4616 5.82876C12.0794 5.86385 12.6761 5.99737 13.2254 6.28823C14.3424 6.87975 14.9804 7.81343 15.1667 9.06017C15.1751 9.11665 15.1886 9.1726 15.1929 9.2293C15.2034 9.36931 15.2101 9.50947 15.2208 9.69408C15.2164 9.7277 15.2101 9.50947 15.2208 9.69408Z" fill="#7D3DAF"/>
<path d="M13.5466 9.62963C13.3213 9.63369 13.2008 9.50902 13.1776 9.3025C13.1614 9.15851 13.1486 9.01261 13.1143 8.87252C13.0466 8.59663 12.9 8.34095 12.6679 8.17189C12.5583 8.09204 12.4342 8.03387 12.3041 7.99634C12.1389 7.94864 11.9673 7.96176 11.8025 7.92136C11.6234 7.87749 11.5244 7.73255 11.5526 7.56459C11.5782 7.41176 11.7269 7.29246 11.8939 7.30456C12.9376 7.37991 13.6836 7.91952 13.7901 9.14827C13.7976 9.23497 13.8064 9.32661 13.7872 9.40956C13.7542 9.55156 13.6491 9.6227 13.5466 9.62963C13.3213 9.63369 13.6491 9.6227 13.5466 9.62963Z" fill="#7D3DAF"/>
</svg>
