<svg width="51" height="54" viewBox="0 0 51 54" fill="none" xmlns="http://www.w3.org/2000/svg">
<g filter="url(#filter0_d)">
<mask id="mask0" mask-type="alpha" maskUnits="userSpaceOnUse" x="10" y="5" width="35" height="35">
<rect x="10" y="5" width="35" height="35" rx="17.5" fill="white"/>
</mask>
<g mask="url(#mask0)">
<circle cx="27.6949" cy="22.5001" r="18.4722" fill="#4A76A8"/>
<circle cx="27.6951" cy="22.4998" r="13.6111" fill="white"/>
<path d="M39.8582 8.88867H15.532C14.7321 8.88867 14.084 9.53708 14.084 10.3367V34.6629C14.084 35.4625 14.7321 36.1109 15.532 36.1109H39.8582C40.6581 36.1109 41.3062 35.4625 41.3062 34.6629V10.3367C41.3062 9.53708 40.6581 8.88867 39.8582 8.88867ZM35.7659 24.2209C36.5079 24.9449 37.2924 25.6266 37.9587 26.4267C38.2536 26.78 38.5316 27.1449 38.7433 27.5559C39.0447 28.142 38.7725 28.7858 38.2472 28.8203L34.9875 28.8194C34.1459 28.8886 33.4758 28.5498 32.9105 27.9743C32.4601 27.5153 32.0414 27.0253 31.6073 26.5513C31.4303 26.3564 31.2427 26.173 31.0208 26.0282C30.5766 25.7398 30.1906 25.8278 29.9354 26.2915C29.6759 26.7635 29.616 27.2871 29.5923 27.8133C29.5561 28.5822 29.3244 28.7829 28.5532 28.8185C26.9054 28.8961 25.3412 28.6459 23.8883 27.8156C22.6057 27.083 21.6138 26.0479 20.7497 24.8774C19.0654 22.5945 17.7755 20.0886 16.6171 17.5109C16.3562 16.9302 16.547 16.6195 17.1867 16.6076C18.2513 16.5865 19.3156 16.5894 20.3787 16.6065C20.8119 16.6131 21.0983 16.861 21.2643 17.2694C21.8391 18.684 22.5446 20.0301 23.4279 21.2783C23.6633 21.6104 23.9037 21.942 24.2454 22.1769C24.623 22.4364 24.9109 22.3509 25.089 21.9296C25.2028 21.6608 25.252 21.3753 25.2764 21.088C25.3609 20.1045 25.3711 19.121 25.2251 18.1413C25.1339 17.5285 24.7887 17.1327 24.1776 17.0168C23.8666 16.9577 23.9121 16.8425 24.0632 16.665C24.3256 16.3574 24.5729 16.1674 25.0641 16.1674L27.7794 16.167C28.4237 16.1669 29.2703 16.119 29.4592 16.735C29.4931 16.8457 29.5168 16.9749 29.5372 17.1257L29.5407 21.2186C29.5346 21.4451 29.6539 22.1158 30.0605 22.2641C30.3858 22.3715 30.6015 22.1106 30.7961 21.9038C31.6788 20.9669 32.3078 19.8604 32.8717 18.7156C33.1198 18.2108 33.335 17.6878 33.5435 17.1645C33.6979 16.7773 33.9394 16.5868 34.3761 16.5937L37.9225 16.5975C38.0268 16.5975 38.1337 16.5986 38.237 16.6157C38.8342 16.7185 38.9978 16.9757 38.8133 17.5589C38.5226 18.4749 37.9564 19.2383 37.4027 20.0034C36.8111 20.8216 36.1795 21.6127 35.5921 22.4349C35.0541 23.189 35.0975 23.5678 35.7659 24.2209Z" fill="#4A76A8"/>
</g>
</g>
<defs>
<filter id="filter0_d" x="-5" y="-2" width="61" height="61" filterUnits="userSpaceOnUse" color-interpolation-filters="sRGB">
<feFlood flood-opacity="0" result="BackgroundImageFix"/>
<feColorMatrix in="SourceAlpha" type="matrix" values="0 0 0 0 0 0 0 0 0 0 0 0 0 0 0 0 0 0 127 0"/>
<feOffset dx="-2" dy="6"/>
<feGaussianBlur stdDeviation="4"/>
<feColorMatrix type="matrix" values="0 0 0 0 0.290196 0 0 0 0 0.462745 0 0 0 0 0.658824 0 0 0 0.25 0"/>
<feBlend mode="normal" in2="BackgroundImageFix" result="effect1_dropShadow"/>
<feBlend mode="normal" in="SourceGraphic" in2="effect1_dropShadow" result="shape"/>
</filter>
</defs>
</svg>
