<svg width="51" height="54" viewBox="0 0 51 54" fill="none" xmlns="http://www.w3.org/2000/svg">
<g filter="url(#filter0_d)">
<path d="M27.5 40C37.165 40 45 32.165 45 22.5C45 12.835 37.165 5 27.5 5C17.835 5 10 12.835 10 22.5C10 32.165 17.835 40 27.5 40Z" fill="#D42428"/>
<path d="M33.6163 26.3712H32.5433L32.5486 25.7214C32.5486 25.4324 32.7758 25.1966 33.0538 25.1966H33.1226C33.4007 25.1966 33.6289 25.4325 33.6289 25.7214L33.6163 26.3712ZM29.5935 24.9787C29.3222 24.9787 29.0995 25.1696 29.0995 25.403V28.5629C29.0995 28.7963 29.3222 28.9861 29.5935 28.9861C29.8668 28.9861 30.0895 28.7963 30.0895 28.5629V25.4027C30.0895 25.1696 29.8668 24.9787 29.5935 24.9787ZM36.1253 23.2115V29.2223C36.1253 30.6644 34.9268 31.8439 33.4611 31.8439H22.5079C21.042 31.8439 19.8438 30.6641 19.8438 29.2223V23.2115C19.8438 21.7695 21.042 20.5894 22.5079 20.5894H33.4614C34.9267 20.5894 36.1253 21.7698 36.1253 23.2115ZM23.2382 29.8751L23.2377 23.5433L24.5954 23.5438V22.6053L20.9759 22.5995V23.5216L22.1059 23.5252V29.8748H23.2382V29.8751ZM27.3085 24.4867H26.1764V27.8677C26.1764 28.357 26.2045 28.6016 26.1749 28.6876C26.0825 28.9497 25.6686 29.2281 25.5076 28.7161C25.4803 28.6262 25.5044 28.3556 25.504 27.8907L25.4987 24.4864H24.3729L24.3771 27.8369C24.3776 28.3506 24.3658 28.7336 24.3808 28.9078C24.4083 29.2151 24.3981 29.5737 24.672 29.7778C25.181 30.1611 26.1573 29.7209 26.4015 29.1738L26.3994 29.8718L27.3083 29.8732V24.4867H27.3085ZM30.9302 28.3583L30.9281 25.5441C30.927 24.4713 30.1581 23.829 29.1134 24.6968L29.1181 22.6045L27.9871 22.6064L27.9815 29.8277L28.9114 29.8134L28.996 29.3633C30.1848 30.5019 30.9322 29.7223 30.9302 28.3583ZM34.4737 27.9855L33.6245 27.9902C33.6245 28.0255 33.6229 28.0658 33.6224 28.1102V28.6043C33.6224 28.8687 33.4131 29.084 33.1586 29.084H32.9923C32.7374 29.084 32.5281 28.8687 32.5281 28.6043V28.5496V28.0055V27.3042H34.4719V26.541C34.4719 25.9836 34.458 25.4261 34.4139 25.1073C34.275 24.0983 32.9178 23.9384 32.2319 24.4547C32.0166 24.6161 31.8524 24.8319 31.7564 25.1223C31.66 25.4125 31.6122 25.8082 31.6122 26.3118V27.9897C31.6129 30.7789 34.8605 30.3846 34.4737 27.9855ZM30.1192 18.8754C30.1772 19.0238 30.2679 19.1435 30.3915 19.2345C30.5126 19.3232 30.6686 19.3684 30.8547 19.3684C31.0178 19.3684 31.1625 19.3224 31.288 19.2274C31.4138 19.1328 31.5199 18.9921 31.606 18.8036L31.5845 19.2671H32.8463V13.6689H31.8529V18.0259C31.8529 18.2615 31.6662 18.4546 31.4384 18.4546C31.2123 18.4546 31.0251 18.2615 31.0251 18.0259V13.6689H29.9885V17.4446C29.9885 17.9257 29.9967 18.2464 30.0106 18.4092C30.0254 18.5707 30.0609 18.7255 30.1192 18.8754ZM26.2952 15.7136C26.2952 15.1761 26.3383 14.7567 26.4233 14.4543C26.509 14.1526 26.6639 13.9102 26.8871 13.7278C27.1103 13.544 27.3961 13.4522 27.7427 13.4522C28.0344 13.4522 28.2847 13.5122 28.494 13.6292C28.7033 13.747 28.8658 13.8996 28.9777 14.0883C29.0927 14.2776 29.1699 14.4724 29.2117 14.6715C29.2542 14.8731 29.2747 15.178 29.2747 15.5881V17.0041C29.2747 17.5234 29.2548 17.9053 29.2162 18.1481C29.1781 18.3914 29.0957 18.6168 28.968 18.828C28.842 19.0373 28.6791 19.1937 28.4816 19.2934C28.2826 19.3945 28.0549 19.4438 27.797 19.4438C27.5098 19.4438 27.2671 19.4024 27.0678 19.3156C26.8677 19.2296 26.7127 19.0997 26.6027 18.9274C26.4908 18.7549 26.4128 18.5447 26.3658 18.2998C26.318 18.0547 26.2954 17.6868 26.2954 17.1959V15.7136H26.2952ZM27.2831 17.9377C27.2831 18.2543 27.5097 18.5132 27.7852 18.5132C28.0606 18.5132 28.2857 18.2546 28.2857 17.9377V14.9572C28.2857 14.6406 28.0606 14.3817 27.7852 14.3817C27.5097 14.3817 27.2831 14.6403 27.2831 14.9572V17.9377ZM23.7907 19.4424H24.9816L24.9826 15.1487L26.3894 11.4705H25.0872L24.3393 14.203L23.5806 11.4634H22.2923L23.7888 15.1512L23.7907 19.4424Z" fill="white"/>
</g>
<defs>
<filter id="filter0_d" x="-5" y="-2" width="61" height="61" filterUnits="userSpaceOnUse" color-interpolation-filters="sRGB">
<feFlood flood-opacity="0" result="BackgroundImageFix"/>
<feColorMatrix in="SourceAlpha" type="matrix" values="0 0 0 0 0 0 0 0 0 0 0 0 0 0 0 0 0 0 127 0"/>
<feOffset dx="-2" dy="6"/>
<feGaussianBlur stdDeviation="4"/>
<feColorMatrix type="matrix" values="0 0 0 0 0.839216 0 0 0 0 0.196078 0 0 0 0 0.211765 0 0 0 0.2 0"/>
<feBlend mode="normal" in2="BackgroundImageFix" result="effect1_dropShadow"/>
<feBlend mode="normal" in="SourceGraphic" in2="effect1_dropShadow" result="shape"/>
</filter>
</defs>
</svg>
